<svg xmlns="http://www.w3.org/2000/svg" xmlns:xlink="http://www.w3.org/1999/xlink" contentStyleType="text/css" data-diagram-type="ACTIVITY" height="2817px" preserveAspectRatio="none" style="width:2536px;height:2817px;background:#FFFFFF;" version="1.1" viewBox="0 0 2536 2817" width="2536px" zoomAndPan="magnify"><title>BP RF-7.1 - Env&#237;o de notificaci&#243;n</title><defs/><g><g class="title" data-source-line="2"><text fill="#000000" font-family="sans-serif" font-size="14" font-weight="bold" lengthAdjust="spacing" textLength="219.3584" x="1157.2638" y="34.5332">BP RF-7.1 - Env&#237;o de notificaci&#243;n</text></g><rect fill="#E8F1FB" height="22.6406" style="stroke:#E8F1FB;stroke-width:1;" width="2503.886" x="15" y="51.0645"/><ellipse cx="123.71" cy="88.7051" fill="#222222" rx="10" ry="10" style="stroke:#222222;stroke-width:1;"/><rect fill="#FFFFFF" height="50.1875" rx="12.5" ry="12.5" style="stroke:#1676D2;stroke-width:0.5;" width="205.4199" x="21" y="118.7051"/><text fill="#000000" font-family="sans-serif" font-size="12" lengthAdjust="spacing" textLength="138.0645" x="31" y="141.1621">POST /api/v1/notifications</text><text fill="#000000" font-family="sans-serif" font-size="12" lengthAdjust="spacing" textLength="185.4199" x="31" y="156.2559">con X-API-Key e Idempotency-Key</text><line style="stroke:#8AB4E8;stroke-width:1.5;" x1="15" x2="15" y1="51.0645" y2="2678.3301"/><path d="M715.1292,185.0879 L715.1292,202.4395 L695.1292,206.4395 L715.1292,210.4395 L715.1292,227.791 A0,0 0 0 0 715.1292,227.791 L941.3679,227.791 A0,0 0 0 0 941.3679,227.791 L941.3679,195.0879 L931.3679,185.0879 L715.1292,185.0879 A0,0 0 0 0 715.1292,185.0879" fill="#FEFFDD" style="stroke:#181818;stroke-width:0.5;"/><path d="M931.3679,185.0879 L931.3679,195.0879 L941.3679,195.0879 L931.3679,185.0879" fill="#FEFFDD" style="stroke:#181818;stroke-width:0.5;"/><text fill="#000000" font-family="sans-serif" font-size="13" lengthAdjust="spacing" textLength="205.2388" x="721.1292" y="203.583">El control no aplica a /api/v1/health,</text><text fill="#000000" font-family="sans-serif" font-size="13" lengthAdjust="spacing" textLength="182.0889" x="721.1292" y="219.9346">/metrics, /openapi.json ni /docs.</text><rect fill="#FFFFFF" height="35.0938" rx="12.5" ry="12.5" style="stroke:#1676D2;stroke-width:0.5;" width="200.75" x="494.3792" y="188.8926"/><text fill="#000000" font-family="sans-serif" font-size="12" lengthAdjust="spacing" textLength="180.75" x="504.3792" y="211.3496">Validar configuraci&#243;n y X-API-Key</text><rect fill="#FFFFFF" height="35.0938" rx="12.5" ry="12.5" style="stroke:#1676D2;stroke-width:0.5;" width="102.0605" x="543.7239" y="296.709"/><text fill="#000000" font-family="sans-serif" font-size="12" lengthAdjust="spacing" textLength="82.0605" x="553.7239" y="319.166">Responder 503</text><ellipse cx="594.7542" cy="370.7559" fill="none" rx="11" ry="11" style="stroke:#222222;stroke-width:1;"/><ellipse cx="594.7542" cy="370.7559" fill="#222222" rx="6" ry="6" style="stroke:#222222;stroke-width:1;"/><polygon fill="#FFF2CC" points="539.1123,247.791,650.396,247.791,662.396,259.791,650.396,271.791,539.1123,271.791,527.1123,259.791,539.1123,247.791" style="stroke:#C99A00;stroke-width:0.5;"/><text fill="#000000" font-family="sans-serif" font-size="11" lengthAdjust="spacing" textLength="14.0615" x="598.7542" y="283.21">No</text><text fill="#000000" font-family="sans-serif" font-size="11" lengthAdjust="spacing" textLength="111.2837" x="539.1123" y="264.292">&#191;API key configurada?</text><rect fill="#FFFFFF" height="35.0938" rx="12.5" ry="12.5" style="stroke:#1676D2;stroke-width:0.5;" width="102.0605" x="543.7239" y="472.6738"/><text fill="#000000" font-family="sans-serif" font-size="12" lengthAdjust="spacing" textLength="82.0605" x="553.7239" y="495.1309">Responder 401</text><ellipse cx="594.7542" cy="546.7207" fill="none" rx="11" ry="11" style="stroke:#222222;stroke-width:1;"/><ellipse cx="594.7542" cy="546.7207" fill="#222222" rx="6" ry="6" style="stroke:#222222;stroke-width:1;"/><polygon fill="#FFF2CC" points="553.4854,423.7559,636.0229,423.7559,648.0229,435.7559,636.0229,447.7559,553.4854,447.7559,541.4854,435.7559,553.4854,423.7559" style="stroke:#C99A00;stroke-width:0.5;"/><text fill="#000000" font-family="sans-serif" font-size="11" lengthAdjust="spacing" textLength="14.0615" x="598.7542" y="459.1748">No</text><text fill="#000000" font-family="sans-serif" font-size="11" lengthAdjust="spacing" textLength="82.5376" x="553.4854" y="440.2568">&#191;API key v&#225;lida?</text><rect fill="#FFFFFF" height="50.1875" rx="12.5" ry="12.5" style="stroke:#1676D2;stroke-width:0.5;" width="158.75" x="515.3792" y="599.7207"/><text fill="#000000" font-family="sans-serif" font-size="12" lengthAdjust="spacing" textLength="138.75" x="525.3792" y="622.1777">Validar body, destinatario,</text><text fill="#000000" font-family="sans-serif" font-size="12" lengthAdjust="spacing" textLength="136.7402" x="525.3792" y="637.2715">plantilla, canal y variables</text><rect fill="#FFFFFF" height="35.0938" rx="12.5" ry="12.5" style="stroke:#1676D2;stroke-width:0.5;" width="135.4238" x="527.0422" y="718.8262"/><text fill="#000000" font-family="sans-serif" font-size="12" lengthAdjust="spacing" textLength="115.4238" x="537.0422" y="741.2832">Responder 400 o 404</text><ellipse cx="594.7542" cy="794.4668" fill="none" rx="11" ry="11" style="stroke:#222222;stroke-width:1;"/><ellipse cx="594.7542" cy="794.4668" fill="#222222" rx="6" ry="6" style="stroke:#222222;stroke-width:1;"/><polygon fill="#FFF2CC" points="551.6484,669.9082,637.8599,669.9082,649.8599,681.9082,637.8599,693.9082,551.6484,693.9082,539.6484,681.9082,551.6484,669.9082" style="stroke:#C99A00;stroke-width:0.5;"/><text fill="#000000" font-family="sans-serif" font-size="11" lengthAdjust="spacing" textLength="14.0615" x="598.7542" y="705.3271">No</text><text fill="#000000" font-family="sans-serif" font-size="11" lengthAdjust="spacing" textLength="86.2114" x="551.6484" y="686.4092">&#191;Solicitud v&#225;lida?</text><polygon fill="#FFF2CC" points="400.5823,1126.9355,494.1414,1126.9355,506.1414,1138.9355,494.1414,1150.9355,400.5823,1150.9355,388.5823,1138.9355,400.5823,1126.9355" style="stroke:#C99A00;stroke-width:0.5;"/><text fill="#000000" font-family="sans-serif" font-size="11" lengthAdjust="spacing" textLength="93.5591" x="400.5823" y="1143.4365">&#191;Payload id&#233;ntico?</text><text fill="#000000" font-family="sans-serif" font-size="11" lengthAdjust="spacing" textLength="10.3931" x="378.1892" y="1136.5186">S&#237;</text><text fill="#000000" font-family="sans-serif" font-size="11" lengthAdjust="spacing" textLength="14.0615" x="506.1414" y="1136.5186">No</text><rect fill="#FFFFFF" height="35.0938" rx="12.5" ry="12.5" style="stroke:#1676D2;stroke-width:0.5;" width="219.4531" x="236.4199" y="1160.9355"/><text fill="#000000" font-family="sans-serif" font-size="12" lengthAdjust="spacing" textLength="199.4531" x="246.4199" y="1183.3926">Responder 200 con recurso existente</text><rect fill="#FFFFFF" height="35.0938" rx="12.5" ry="12.5" style="stroke:#1676D2;stroke-width:0.5;" width="145.4082" x="475.873" y="1160.9355"/><text fill="#000000" font-family="sans-serif" font-size="12" lengthAdjust="spacing" textLength="125.4082" x="485.873" y="1183.3926">Responder 409 Conflict</text><polygon fill="#FFF2CC" points="447.3618,1202.0293,459.3618,1214.0293,447.3618,1226.0293,435.3618,1214.0293,447.3618,1202.0293" style="stroke:#C99A00;stroke-width:0.5;"/><ellipse cx="447.3618" cy="1257.0293" fill="none" rx="11" ry="11" style="stroke:#222222;stroke-width:1;"/><ellipse cx="447.3618" cy="1257.0293" fill="#222222" rx="6" ry="6" style="stroke:#222222;stroke-width:1;"/><rect fill="#FFFFFF" height="35.0938" rx="12.5" ry="12.5" style="stroke:#1676D2;stroke-width:0.5;" width="167.4102" x="658.4414" y="1016.748"/><text fill="#000000" font-family="sans-serif" font-size="12" lengthAdjust="spacing" textLength="147.4102" x="668.4414" y="1039.2051">INSERT notification_outbox</text><rect fill="#FFFFFF" height="35.0938" rx="12.5" ry="12.5" style="stroke:#1676D2;stroke-width:0.5;" width="181.7305" x="651.2813" y="1071.8418"/><text fill="#000000" font-family="sans-serif" font-size="12" lengthAdjust="spacing" textLength="161.7305" x="661.2813" y="1094.2988">COMMIT notificaci&#243;n + outbox</text><path d="M692.468,1291.7715 L692.468,1309.123 L672.468,1313.123 L692.468,1317.123 L692.468,1334.4746 A0,0 0 0 0 692.468,1334.4746 L944.7512,1334.4746 A0,0 0 0 0 944.7512,1334.4746 L944.7512,1301.7715 L934.7512,1291.7715 L692.468,1291.7715 A0,0 0 0 0 692.468,1291.7715" fill="#FEFFDD" style="stroke:#181818;stroke-width:0.5;"/><path d="M934.7512,1291.7715 L934.7512,1301.7715 L944.7512,1301.7715 L934.7512,1291.7715" fill="#FEFFDD" style="stroke:#181818;stroke-width:0.5;"/><text fill="#000000" font-family="sans-serif" font-size="13" lengthAdjust="spacing" textLength="231.2832" x="698.468" y="1310.2666">La aceptaci&#243;n depende de PostgreSQL,</text><text fill="#000000" font-family="sans-serif" font-size="13" lengthAdjust="spacing" textLength="187.186" x="698.468" y="1326.6182">no de la disponibilidad de Redis.</text><rect fill="#FFFFFF" height="50.1875" rx="12.5" ry="12.5" style="stroke:#1676D2;stroke-width:0.5;" width="155.4277" x="517.0403" y="1288.0293"/><text fill="#000000" font-family="sans-serif" font-size="12" lengthAdjust="spacing" textLength="135.4277" x="527.0403" y="1310.4863">Responder 202 Accepted</text><text fill="#000000" font-family="sans-serif" font-size="12" lengthAdjust="spacing" textLength="128.0625" x="527.0403" y="1325.5801">con estado ENCOLADA</text><line style="stroke:#8AB4E8;stroke-width:1.5;" x1="230.4199" x2="230.4199" y1="51.0645" y2="2678.3301"/><rect fill="#FFFFFF" height="35.0938" rx="12.5" ry="12.5" style="stroke:#1676D2;stroke-width:0.5;" width="57.3418" x="1329.3247" y="847.4668"/><text fill="#000000" font-family="sans-serif" font-size="12" lengthAdjust="spacing" textLength="37.3418" x="1339.3247" y="869.9238">BEGIN</text><rect fill="#FFFFFF" height="50.1875" rx="12.5" ry="12.5" style="stroke:#1676D2;stroke-width:0.5;" width="196.7246" x="1259.6333" y="902.5605"/><text fill="#000000" font-family="sans-serif" font-size="12" lengthAdjust="spacing" textLength="176.7246" x="1269.6333" y="925.0176">INSERT notificaci&#243;n ENCOLADA</text><text fill="#000000" font-family="sans-serif" font-size="12" lengthAdjust="spacing" textLength="166.0723" x="1269.6333" y="940.1113">con idempotency_key UNIQUE</text><polygon fill="#FFF2CC" points="1308.4714,972.748,1407.5198,972.748,1419.5198,984.748,1407.5198,996.748,1308.4714,996.748,1296.4714,984.748,1308.4714,972.748" style="stroke:#C99A00;stroke-width:0.5;"/><text fill="#000000" font-family="sans-serif" font-size="11" lengthAdjust="spacing" textLength="99.0483" x="1308.4714" y="989.249">&#191;Clave ya utilizada?</text><text fill="#000000" font-family="sans-serif" font-size="11" lengthAdjust="spacing" textLength="10.3931" x="1286.0784" y="982.3311">S&#237;</text><text fill="#000000" font-family="sans-serif" font-size="11" lengthAdjust="spacing" textLength="14.0615" x="1419.5198" y="982.3311">No</text><rect fill="#FFFFFF" height="35.0938" rx="12.5" ry="12.5" style="stroke:#1676D2;stroke-width:0.5;" width="135.3477" x="1142.9294" y="1016.748"/><text fill="#000000" font-family="sans-serif" font-size="12" lengthAdjust="spacing" textLength="115.3477" x="1152.9294" y="1039.2051">COMMIT sin cambios</text><rect fill="#FFFFFF" height="35.0938" rx="12.5" ry="12.5" style="stroke:#1676D2;stroke-width:0.5;" width="180.0781" x="1120.5642" y="1071.8418"/><text fill="#000000" font-family="sans-serif" font-size="12" lengthAdjust="spacing" textLength="160.0781" x="1130.5642" y="1094.2988">Consultar y comparar payload</text><rect fill="#FFFFFF" height="35.0938" rx="12.5" ry="12.5" style="stroke:#1676D2;stroke-width:0.5;" width="160.0742" x="1277.9585" y="2102.4551"/><text fill="#000000" font-family="sans-serif" font-size="12" lengthAdjust="spacing" textLength="140.0742" x="1287.9585" y="2124.9121">Asegurar estado FALLIDA</text><ellipse cx="1357.9956" cy="2178.0957" fill="none" rx="11" ry="11" style="stroke:#222222;stroke-width:1;"/><ellipse cx="1357.9956" cy="2178.0957" fill="#222222" rx="6" ry="6" style="stroke:#222222;stroke-width:1;"/><path d="M1149.8059,2349.0254 L1149.8059,2366.377 L1129.8059,2370.377 L1149.8059,2374.377 L1149.8059,2391.7285 A0,0 0 0 0 1149.8059,2391.7285 L1457.6375,2391.7285 A0,0 0 0 0 1457.6375,2391.7285 L1457.6375,2359.0254 L1447.6375,2349.0254 L1149.8059,2349.0254 A0,0 0 0 0 1149.8059,2349.0254" fill="#FEFFDD" style="stroke:#181818;stroke-width:0.5;"/><path d="M1447.6375,2349.0254 L1447.6375,2359.0254 L1457.6375,2359.0254 L1447.6375,2349.0254" fill="#FEFFDD" style="stroke:#181818;stroke-width:0.5;"/><text fill="#000000" font-family="sans-serif" font-size="13" lengthAdjust="spacing" textLength="286.8315" x="1155.8059" y="2367.5205">ENVIADA confirma la aceptaci&#243;n de Gmail/Twilio,</text><text fill="#000000" font-family="sans-serif" font-size="13" lengthAdjust="spacing" textLength="191.5151" x="1155.8059" y="2383.8721">no la entrega final al destinatario.</text><rect fill="#FFFFFF" height="50.1875" rx="12.5" ry="12.5" style="stroke:#1676D2;stroke-width:0.5;" width="174.0547" x="955.7512" y="2345.2832"/><text fill="#000000" font-family="sans-serif" font-size="12" lengthAdjust="spacing" textLength="154.0547" x="965.7512" y="2367.7402">Registrar intento EXITOSO y</text><text fill="#000000" font-family="sans-serif" font-size="12" lengthAdjust="spacing" textLength="92.0449" x="965.7512" y="2382.834">estado ENVIADA</text><rect fill="#FFFFFF" height="35.0938" rx="12.5" ry="12.5" style="stroke:#1676D2;stroke-width:0.5;" width="161.3926" x="1572.5164" y="2345.2832"/><text fill="#000000" font-family="sans-serif" font-size="12" lengthAdjust="spacing" textLength="141.3926" x="1582.5164" y="2367.7402">Registrar intento FALLIDO</text><polygon fill="#FFF2CC" points="1607.6765,2415.377,1698.7488,2415.377,1710.7488,2429.2129,1698.7488,2443.0488,1607.6765,2443.0488,1595.6765,2429.2129,1607.6765,2415.377" style="stroke:#C99A00;stroke-width:0.5;"/><text fill="#000000" font-family="sans-serif" font-size="11" lengthAdjust="spacing" textLength="91.0723" x="1607.6765" y="2426.7959">&#191;Error transitorio y</text><text fill="#000000" font-family="sans-serif" font-size="11" lengthAdjust="spacing" textLength="84.4067" x="1607.6765" y="2440.6318">quedan intentos?</text><text fill="#000000" font-family="sans-serif" font-size="11" lengthAdjust="spacing" textLength="10.3931" x="1585.2834" y="2426.7959">S&#237;</text><text fill="#000000" font-family="sans-serif" font-size="11" lengthAdjust="spacing" textLength="14.0615" x="1710.7488" y="2426.7959">No</text><rect fill="#FFFFFF" height="35.0938" rx="12.5" ry="12.5" style="stroke:#1676D2;stroke-width:0.5;" width="179.4102" x="1467.6375" y="2463.0488"/><text fill="#000000" font-family="sans-serif" font-size="12" lengthAdjust="spacing" textLength="159.4102" x="1477.6375" y="2485.5059">Mantener estado ENCOLADA</text><rect fill="#FFFFFF" height="35.0938" rx="12.5" ry="12.5" style="stroke:#1676D2;stroke-width:0.5;" width="164.0703" x="1667.0476" y="2463.0488"/><text fill="#000000" font-family="sans-serif" font-size="12" lengthAdjust="spacing" textLength="144.0703" x="1677.0476" y="2485.5059">Actualizar estado FALLIDA</text><polygon fill="#FFF2CC" points="1653.2126,2578.3301,1665.2126,2590.3301,1653.2126,2602.3301,1641.2126,2590.3301,1653.2126,2578.3301" style="stroke:#C99A00;stroke-width:0.5;"/><ellipse cx="1357.9956" cy="2667.3301" fill="none" rx="11" ry="11" style="stroke:#222222;stroke-width:1;"/><ellipse cx="1357.9956" cy="2667.3301" fill="#222222" rx="6" ry="6" style="stroke:#222222;stroke-width:1;"/><line style="stroke:#8AB4E8;stroke-width:1.5;" x1="949.7512" x2="949.7512" y1="51.0645" y2="2678.3301"/><rect fill="#FFFFFF" height="50.1875" rx="12.5" ry="12.5" style="stroke:#1676D2;stroke-width:0.5;" width="203.3809" x="1848.4832" y="1358.2168"/><text fill="#000000" font-family="sans-serif" font-size="12" lengthAdjust="spacing" textLength="177.4277" x="1858.4832" y="1380.6738">Outbox Publisher reclama evento</text><text fill="#000000" font-family="sans-serif" font-size="12" lengthAdjust="spacing" textLength="183.3809" x="1858.4832" y="1395.7676">con FOR UPDATE SKIP LOCKED</text><rect fill="#FFFFFF" height="50.1875" rx="12.5" ry="12.5" style="stroke:#1676D2;stroke-width:0.5;" width="117.0781" x="1891.6345" y="1428.4043"/><text fill="#000000" font-family="sans-serif" font-size="12" lengthAdjust="spacing" textLength="92.0273" x="1901.6345" y="1450.8613">Crear job BullMQ</text><text fill="#000000" font-family="sans-serif" font-size="12" lengthAdjust="spacing" textLength="97.0781" x="1901.6345" y="1465.9551">jobId = outbox-{id}</text><rect fill="#FFFFFF" height="50.1875" rx="12.5" ry="12.5" style="stroke:#1676D2;stroke-width:0.5;" width="218.1113" x="1841.1179" y="1547.5098"/><text fill="#000000" font-family="sans-serif" font-size="12" lengthAdjust="spacing" textLength="155.4434" x="1851.1179" y="1569.9668">Mantener evento pendiente y</text><text fill="#000000" font-family="sans-serif" font-size="12" lengthAdjust="spacing" textLength="198.1113" x="1851.1179" y="1585.0605">reprogramar available_at con backoff</text><ellipse cx="1950.1736" cy="1629.1035" fill="none" rx="11" ry="11" style="stroke:#222222;stroke-width:1;"/><ellipse cx="1950.1736" cy="1629.1035" fill="#222222" rx="6" ry="6" style="stroke:#222222;stroke-width:1;"/><polygon fill="#FFF2CC" points="1909.8125,1498.5918,1990.5347,1498.5918,2002.5347,1510.5918,1990.5347,1522.5918,1909.8125,1522.5918,1897.8125,1510.5918,1909.8125,1498.5918" style="stroke:#C99A00;stroke-width:0.5;"/><text fill="#000000" font-family="sans-serif" font-size="11" lengthAdjust="spacing" textLength="14.0615" x="1954.1736" y="1534.0107">No</text><text fill="#000000" font-family="sans-serif" font-size="11" lengthAdjust="spacing" textLength="80.7222" x="1909.8125" y="1515.0928">&#191;Job publicado?</text><rect fill="#FFFFFF" height="35.0938" rx="12.5" ry="12.5" style="stroke:#1676D2;stroke-width:0.5;" width="184.0859" x="1858.1306" y="1682.1035"/><text fill="#000000" font-family="sans-serif" font-size="12" lengthAdjust="spacing" textLength="164.0859" x="1868.1306" y="1704.5605">Marcar outbox como publicado</text><rect fill="#FFFFFF" height="50.1875" rx="12.5" ry="12.5" style="stroke:#1676D2;stroke-width:0.5;" width="186.1016" x="1857.1228" y="1737.1973"/><text fill="#000000" font-family="sans-serif" font-size="12" lengthAdjust="spacing" textLength="166.1016" x="1867.1228" y="1759.6543">BullMQ entrega job respetando</text><text fill="#000000" font-family="sans-serif" font-size="12" lengthAdjust="spacing" textLength="126.0938" x="1867.1228" y="1774.748">throughput configurable</text><rect fill="#FFFFFF" height="50.1875" rx="12.5" ry="12.5" style="stroke:#1676D2;stroke-width:0.5;" width="189.4414" x="1855.4529" y="1807.3848"/><text fill="#000000" font-family="sans-serif" font-size="12" lengthAdjust="spacing" textLength="163.3945" x="1865.4529" y="1829.8418">Worker obtiene advisory lock y</text><text fill="#000000" font-family="sans-serif" font-size="12" lengthAdjust="spacing" textLength="169.4414" x="1865.4529" y="1844.9355">consulta estado en PostgreSQL</text><rect fill="#FFFFFF" height="35.0938" rx="12.5" ry="12.5" style="stroke:#1676D2;stroke-width:0.5;" width="126.0488" x="1887.1492" y="1926.4902"/><text fill="#000000" font-family="sans-serif" font-size="12" lengthAdjust="spacing" textLength="106.0488" x="1897.1492" y="1948.9473">Omitir job duplicado</text><ellipse cx="1950.1736" cy="2000.5371" fill="none" rx="11" ry="11" style="stroke:#222222;stroke-width:1;"/><ellipse cx="1950.1736" cy="2000.5371" fill="#222222" rx="6" ry="6" style="stroke:#222222;stroke-width:1;"/><polygon fill="#FFF2CC" points="1899.4302,1877.5723,2000.917,1877.5723,2012.917,1889.5723,2000.917,1901.5723,1899.4302,1901.5723,1887.4302,1889.5723,1899.4302,1877.5723" style="stroke:#C99A00;stroke-width:0.5;"/><text fill="#000000" font-family="sans-serif" font-size="11" lengthAdjust="spacing" textLength="10.3931" x="1954.1736" y="1912.9912">S&#237;</text><text fill="#000000" font-family="sans-serif" font-size="11" lengthAdjust="spacing" textLength="101.4868" x="1899.4302" y="1894.0732">&#191;Ya est&#225; ENVIADA?</text><polygon fill="#FFF2CC" points="1868.2375,2053.5371,2032.1096,2053.5371,2044.1096,2065.5371,2032.1096,2077.5371,1868.2375,2077.5371,1856.2375,2065.5371,1868.2375,2053.5371" style="stroke:#C99A00;stroke-width:0.5;"/><text fill="#000000" font-family="sans-serif" font-size="11" lengthAdjust="spacing" textLength="10.3931" x="1954.1736" y="2088.9561">S&#237;</text><text fill="#000000" font-family="sans-serif" font-size="11" lengthAdjust="spacing" textLength="163.8721" x="1868.2375" y="2070.0381">&#191;Est&#225; FALLIDA o agot&#243; intentos?</text><polygon fill="#FFF2CC" points="1879.5464,2301.2832,2020.8008,2301.2832,2032.8008,2313.2832,2020.8008,2325.2832,1879.5464,2325.2832,1867.5464,2313.2832,1879.5464,2301.2832" style="stroke:#C99A00;stroke-width:0.5;"/><text fill="#000000" font-family="sans-serif" font-size="11" lengthAdjust="spacing" textLength="141.2544" x="1879.5464" y="2317.7842">&#191;Proveedor acept&#243; el env&#237;o?</text><text fill="#000000" font-family="sans-serif" font-size="11" lengthAdjust="spacing" textLength="10.3931" x="1857.1533" y="2310.8662">S&#237;</text><text fill="#000000" font-family="sans-serif" font-size="11" lengthAdjust="spacing" textLength="14.0615" x="2032.8008" y="2310.8662">No</text><rect fill="#FFFFFF" height="50.1875" rx="12.5" ry="12.5" style="stroke:#1676D2;stroke-width:0.5;" width="164.0645" x="2083.2292" y="2518.1426"/><text fill="#000000" font-family="sans-serif" font-size="12" lengthAdjust="spacing" textLength="144.0645" x="2093.2292" y="2540.5996">BullMQ programa reintento</text><text fill="#000000" font-family="sans-serif" font-size="12" lengthAdjust="spacing" textLength="128.7539" x="2093.2292" y="2555.6934">con backoff exponencial</text><polygon fill="#FFF2CC" points="1950.1736,2612.3301,1962.1736,2624.3301,1950.1736,2636.3301,1938.1736,2624.3301,1950.1736,2612.3301" style="stroke:#C99A00;stroke-width:0.5;"/><line style="stroke:#8AB4E8;stroke-width:1.5;" x1="1835.1179" x2="1835.1179" y1="51.0645" y2="2678.3301"/><rect fill="#FFFFFF" height="50.1875" rx="12.5" ry="12.5" style="stroke:#1676D2;stroke-width:0.5;" width="256.0918" x="2257.2937" y="2231.0957"/><text fill="#000000" font-family="sans-serif" font-size="12" lengthAdjust="spacing" textLength="236.0918" x="2267.2937" y="2253.5527">Procesar solicitud de env&#237;o por Gmail SMTP</text><text fill="#000000" font-family="sans-serif" font-size="12" lengthAdjust="spacing" textLength="76.0137" x="2267.2937" y="2268.6465">o Twilio REST</text><line style="stroke:#8AB4E8;stroke-width:1.5;" x1="2251.2937" x2="2251.2937" y1="51.0645" y2="2678.3301"/><line style="stroke:#8AB4E8;stroke-width:1.5;" x1="2517.3855" x2="2517.3855" y1="51.0645" y2="2678.3301"/><line style="stroke:#181818;stroke-width:1;" x1="123.71" x2="123.71" y1="98.7051" y2="118.7051"/><polygon fill="#181818" points="119.71,108.7051,123.71,118.7051,127.71,108.7051,123.71,112.7051" style="stroke:#181818;stroke-width:1;"/><line style="stroke:#181818;stroke-width:1;" x1="594.7542" x2="594.7542" y1="331.8027" y2="359.7559"/><polygon fill="#181818" points="590.7542,349.7559,594.7542,359.7559,598.7542,349.7559,594.7542,353.7559" style="stroke:#181818;stroke-width:1;"/><line style="stroke:#181818;stroke-width:1;" x1="594.7542" x2="594.7542" y1="271.791" y2="296.709"/><polygon fill="#181818" points="590.7542,286.709,594.7542,296.709,598.7542,286.709,594.7542,290.709" style="stroke:#181818;stroke-width:1;"/><line style="stroke:#181818;stroke-width:1;" x1="662.396" x2="674.396" y1="259.791" y2="259.791"/><polygon fill="#181818" points="670.396,329.7559,674.396,339.7559,678.396,329.7559,674.396,333.7559" style="stroke:#181818;stroke-width:1;"/><line style="stroke:#181818;stroke-width:1;" x1="674.396" x2="674.396" y1="259.791" y2="403.7559"/><line style="stroke:#181818;stroke-width:1;" x1="674.396" x2="594.7542" y1="403.7559" y2="403.7559"/><line style="stroke:#181818;stroke-width:1;" x1="594.7542" x2="594.7542" y1="403.7559" y2="423.7559"/><polygon fill="#181818" points="590.7542,413.7559,594.7542,423.7559,598.7542,413.7559,594.7542,417.7559" style="stroke:#181818;stroke-width:1;"/><line style="stroke:#181818;stroke-width:1;" x1="594.7542" x2="594.7542" y1="223.9863" y2="247.791"/><polygon fill="#181818" points="590.7542,237.791,594.7542,247.791,598.7542,237.791,594.7542,241.791" style="stroke:#181818;stroke-width:1;"/><line style="stroke:#181818;stroke-width:1;" x1="594.7542" x2="594.7542" y1="507.7676" y2="535.7207"/><polygon fill="#181818" points="590.7542,525.7207,594.7542,535.7207,598.7542,525.7207,594.7542,529.7207" style="stroke:#181818;stroke-width:1;"/><line style="stroke:#181818;stroke-width:1;" x1="594.7542" x2="594.7542" y1="447.7559" y2="472.6738"/><polygon fill="#181818" points="590.7542,462.6738,594.7542,472.6738,598.7542,462.6738,594.7542,466.6738" style="stroke:#181818;stroke-width:1;"/><line style="stroke:#181818;stroke-width:1;" x1="648.0229" x2="660.0229" y1="435.7559" y2="435.7559"/><polygon fill="#181818" points="656.0229,505.7207,660.0229,515.7207,664.0229,505.7207,660.0229,509.7207" style="stroke:#181818;stroke-width:1;"/><line style="stroke:#181818;stroke-width:1;" x1="660.0229" x2="660.0229" y1="435.7559" y2="579.7207"/><line style="stroke:#181818;stroke-width:1;" x1="660.0229" x2="594.7542" y1="579.7207" y2="579.7207"/><line style="stroke:#181818;stroke-width:1;" x1="594.7542" x2="594.7542" y1="579.7207" y2="599.7207"/><polygon fill="#181818" points="590.7542,589.7207,594.7542,599.7207,598.7542,589.7207,594.7542,593.7207" style="stroke:#181818;stroke-width:1;"/><line style="stroke:#181818;stroke-width:1;" x1="594.7542" x2="594.7542" y1="753.9199" y2="783.4668"/><polygon fill="#181818" points="590.7542,773.4668,594.7542,783.4668,598.7542,773.4668,594.7542,777.4668" style="stroke:#181818;stroke-width:1;"/><line style="stroke:#181818;stroke-width:1;" x1="594.7542" x2="594.7542" y1="693.9082" y2="718.8262"/><polygon fill="#181818" points="590.7542,708.8262,594.7542,718.8262,598.7542,708.8262,594.7542,712.8262" style="stroke:#181818;stroke-width:1;"/><line style="stroke:#181818;stroke-width:1;" x1="649.8599" x2="1357.9956" y1="681.9082" y2="681.9082"/><polygon fill="#181818" points="1353.9956,763.9199,1357.9956,773.9199,1361.9956,763.9199,1357.9956,767.9199" style="stroke:#181818;stroke-width:1;"/><line style="stroke:#181818;stroke-width:1;" x1="1357.9956" x2="1357.9956" y1="681.9082" y2="847.4668"/><polygon fill="#181818" points="1353.9956,837.4668,1357.9956,847.4668,1361.9956,837.4668,1357.9956,841.4668" style="stroke:#181818;stroke-width:1;"/><line style="stroke:#181818;stroke-width:1;" x1="594.7542" x2="594.7542" y1="649.9082" y2="669.9082"/><polygon fill="#181818" points="590.7542,659.9082,594.7542,669.9082,598.7542,659.9082,594.7542,663.9082" style="stroke:#181818;stroke-width:1;"/><line style="stroke:#181818;stroke-width:1;" x1="388.5823" x2="346.1465" y1="1138.9355" y2="1138.9355"/><line style="stroke:#181818;stroke-width:1;" x1="346.1465" x2="346.1465" y1="1138.9355" y2="1160.9355"/><polygon fill="#181818" points="342.1465,1150.9355,346.1465,1160.9355,350.1465,1150.9355,346.1465,1154.9355" style="stroke:#181818;stroke-width:1;"/><line style="stroke:#181818;stroke-width:1;" x1="506.1414" x2="548.5771" y1="1138.9355" y2="1138.9355"/><line style="stroke:#181818;stroke-width:1;" x1="548.5771" x2="548.5771" y1="1138.9355" y2="1160.9355"/><polygon fill="#181818" points="544.5771,1150.9355,548.5771,1160.9355,552.5771,1150.9355,548.5771,1154.9355" style="stroke:#181818;stroke-width:1;"/><line style="stroke:#181818;stroke-width:1;" x1="346.1465" x2="346.1465" y1="1196.0293" y2="1214.0293"/><line style="stroke:#181818;stroke-width:1;" x1="346.1465" x2="435.3618" y1="1214.0293" y2="1214.0293"/><polygon fill="#181818" points="425.3618,1210.0293,435.3618,1214.0293,425.3618,1218.0293,429.3618,1214.0293" style="stroke:#181818;stroke-width:1;"/><line style="stroke:#181818;stroke-width:1;" x1="548.5771" x2="548.5771" y1="1196.0293" y2="1214.0293"/><line style="stroke:#181818;stroke-width:1;" x1="548.5771" x2="459.3618" y1="1214.0293" y2="1214.0293"/><polygon fill="#181818" points="469.3618,1210.0293,459.3618,1214.0293,469.3618,1218.0293,465.3618,1214.0293" style="stroke:#181818;stroke-width:1;"/><line style="stroke:#181818;stroke-width:1;" x1="447.3618" x2="447.3618" y1="1226.0293" y2="1246.0293"/><polygon fill="#181818" points="443.3618,1236.0293,447.3618,1246.0293,451.3618,1236.0293,447.3618,1240.0293" style="stroke:#181818;stroke-width:1;"/><line style="stroke:#181818;stroke-width:1;" x1="742.1465" x2="742.1465" y1="1051.8418" y2="1071.8418"/><polygon fill="#181818" points="738.1465,1061.8418,742.1465,1071.8418,746.1465,1061.8418,742.1465,1065.8418" style="stroke:#181818;stroke-width:1;"/><line style="stroke:#181818;stroke-width:1;" x1="1357.9956" x2="1357.9956" y1="882.5605" y2="902.5605"/><polygon fill="#181818" points="1353.9956,892.5605,1357.9956,902.5605,1361.9956,892.5605,1357.9956,896.5605" style="stroke:#181818;stroke-width:1;"/><line style="stroke:#181818;stroke-width:1;" x1="1210.6033" x2="1210.6033" y1="1051.8418" y2="1071.8418"/><polygon fill="#181818" points="1206.6033,1061.8418,1210.6033,1071.8418,1214.6033,1061.8418,1210.6033,1065.8418" style="stroke:#181818;stroke-width:1;"/><line style="stroke:#181818;stroke-width:1;" x1="1296.4714" x2="1210.6033" y1="984.748" y2="984.748"/><line style="stroke:#181818;stroke-width:1;" x1="1210.6033" x2="1210.6033" y1="984.748" y2="1016.748"/><polygon fill="#181818" points="1206.6033,1006.748,1210.6033,1016.748,1214.6033,1006.748,1210.6033,1010.748" style="stroke:#181818;stroke-width:1;"/><line style="stroke:#181818;stroke-width:1;" x1="1357.9956" x2="1357.9956" y1="952.748" y2="972.748"/><polygon fill="#181818" points="1353.9956,962.748,1357.9956,972.748,1361.9956,962.748,1357.9956,966.748" style="stroke:#181818;stroke-width:1;"/><line style="stroke:#181818;stroke-width:1;" x1="1357.9956" x2="1357.9956" y1="2137.5488" y2="2167.0957"/><polygon fill="#181818" points="1353.9956,2157.0957,1357.9956,2167.0957,1361.9956,2157.0957,1357.9956,2161.0957" style="stroke:#181818;stroke-width:1;"/><line style="stroke:#181818;stroke-width:1;" x1="1595.6765" x2="1557.3425" y1="2429.2129" y2="2429.2129"/><line style="stroke:#181818;stroke-width:1;" x1="1557.3425" x2="1557.3425" y1="2429.2129" y2="2463.0488"/><polygon fill="#181818" points="1553.3425,2453.0488,1557.3425,2463.0488,1561.3425,2453.0488,1557.3425,2457.0488" style="stroke:#181818;stroke-width:1;"/><line style="stroke:#181818;stroke-width:1;" x1="1710.7488" x2="1749.0828" y1="2429.2129" y2="2429.2129"/><line style="stroke:#181818;stroke-width:1;" x1="1749.0828" x2="1749.0828" y1="2429.2129" y2="2463.0488"/><polygon fill="#181818" points="1745.0828,2453.0488,1749.0828,2463.0488,1753.0828,2453.0488,1749.0828,2457.0488" style="stroke:#181818;stroke-width:1;"/><line style="stroke:#181818;stroke-width:1;" x1="1749.0828" x2="1749.0828" y1="2498.1426" y2="2590.3301"/><line style="stroke:#181818;stroke-width:1;" x1="1749.0828" x2="1665.2126" y1="2590.3301" y2="2590.3301"/><polygon fill="#181818" points="1675.2126,2586.3301,1665.2126,2590.3301,1675.2126,2594.3301,1671.2126,2590.3301" style="stroke:#181818;stroke-width:1;"/><line style="stroke:#181818;stroke-width:1;" x1="1653.2126" x2="1653.2126" y1="2380.377" y2="2415.377"/><polygon fill="#181818" points="1649.2126,2405.377,1653.2126,2415.377,1657.2126,2405.377,1653.2126,2409.377" style="stroke:#181818;stroke-width:1;"/><line style="stroke:#181818;stroke-width:1;" x1="1950.1736" x2="1950.1736" y1="1408.4043" y2="1428.4043"/><polygon fill="#181818" points="1946.1736,1418.4043,1950.1736,1428.4043,1954.1736,1418.4043,1950.1736,1422.4043" style="stroke:#181818;stroke-width:1;"/><line style="stroke:#181818;stroke-width:1;" x1="1950.1736" x2="1950.1736" y1="1597.6973" y2="1618.1035"/><polygon fill="#181818" points="1946.1736,1608.1035,1950.1736,1618.1035,1954.1736,1608.1035,1950.1736,1612.1035" style="stroke:#181818;stroke-width:1;"/><line style="stroke:#181818;stroke-width:1;" x1="1950.1736" x2="1950.1736" y1="1522.5918" y2="1547.5098"/><polygon fill="#181818" points="1946.1736,1537.5098,1950.1736,1547.5098,1954.1736,1537.5098,1950.1736,1541.5098" style="stroke:#181818;stroke-width:1;"/><line style="stroke:#181818;stroke-width:1;" x1="2002.5347" x2="2069.2292" y1="1510.5918" y2="1510.5918"/><polygon fill="#181818" points="2065.2292,1588.1035,2069.2292,1598.1035,2073.2292,1588.1035,2069.2292,1592.1035" style="stroke:#181818;stroke-width:1;"/><line style="stroke:#181818;stroke-width:1;" x1="2069.2292" x2="2069.2292" y1="1510.5918" y2="1662.1035"/><line style="stroke:#181818;stroke-width:1;" x1="2069.2292" x2="1950.1736" y1="1662.1035" y2="1662.1035"/><line style="stroke:#181818;stroke-width:1;" x1="1950.1736" x2="1950.1736" y1="1662.1035" y2="1682.1035"/><polygon fill="#181818" points="1946.1736,1672.1035,1950.1736,1682.1035,1954.1736,1672.1035,1950.1736,1676.1035" style="stroke:#181818;stroke-width:1;"/><line style="stroke:#181818;stroke-width:1;" x1="1950.1736" x2="1950.1736" y1="1478.5918" y2="1498.5918"/><polygon fill="#181818" points="1946.1736,1488.5918,1950.1736,1498.5918,1954.1736,1488.5918,1950.1736,1492.5918" style="stroke:#181818;stroke-width:1;"/><line style="stroke:#181818;stroke-width:1;" x1="1950.1736" x2="1950.1736" y1="1717.1973" y2="1737.1973"/><polygon fill="#181818" points="1946.1736,1727.1973,1950.1736,1737.1973,1954.1736,1727.1973,1950.1736,1731.1973" style="stroke:#181818;stroke-width:1;"/><line style="stroke:#181818;stroke-width:1;" x1="1950.1736" x2="1950.1736" y1="1787.3848" y2="1807.3848"/><polygon fill="#181818" points="1946.1736,1797.3848,1950.1736,1807.3848,1954.1736,1797.3848,1950.1736,1801.3848" style="stroke:#181818;stroke-width:1;"/><line style="stroke:#181818;stroke-width:1;" x1="1950.1736" x2="1950.1736" y1="1961.584" y2="1989.5371"/><polygon fill="#181818" points="1946.1736,1979.5371,1950.1736,1989.5371,1954.1736,1979.5371,1950.1736,1983.5371" style="stroke:#181818;stroke-width:1;"/><line style="stroke:#181818;stroke-width:1;" x1="1950.1736" x2="1950.1736" y1="1901.5723" y2="1926.4902"/><polygon fill="#181818" points="1946.1736,1916.4902,1950.1736,1926.4902,1954.1736,1916.4902,1950.1736,1920.4902" style="stroke:#181818;stroke-width:1;"/><line style="stroke:#181818;stroke-width:1;" x1="2012.917" x2="2024.917" y1="1889.5723" y2="1889.5723"/><polygon fill="#181818" points="2020.917,1959.5371,2024.917,1969.5371,2028.917,1959.5371,2024.917,1963.5371" style="stroke:#181818;stroke-width:1;"/><line style="stroke:#181818;stroke-width:1;" x1="2024.917" x2="2024.917" y1="1889.5723" y2="2033.5371"/><line style="stroke:#181818;stroke-width:1;" x1="2024.917" x2="1950.1736" y1="2033.5371" y2="2033.5371"/><line style="stroke:#181818;stroke-width:1;" x1="1950.1736" x2="1950.1736" y1="2033.5371" y2="2053.5371"/><polygon fill="#181818" points="1946.1736,2043.5371,1950.1736,2053.5371,1954.1736,2043.5371,1950.1736,2047.5371" style="stroke:#181818;stroke-width:1;"/><line style="stroke:#181818;stroke-width:1;" x1="1950.1736" x2="1950.1736" y1="1857.5723" y2="1877.5723"/><polygon fill="#181818" points="1946.1736,1867.5723,1950.1736,1877.5723,1954.1736,1867.5723,1950.1736,1871.5723" style="stroke:#181818;stroke-width:1;"/><line style="stroke:#181818;stroke-width:1;" x1="2044.1096" x2="2385.3396" y1="2065.5371" y2="2065.5371"/><polygon fill="#181818" points="2381.3396,2147.5488,2385.3396,2157.5488,2389.3396,2147.5488,2385.3396,2151.5488" style="stroke:#181818;stroke-width:1;"/><line style="stroke:#181818;stroke-width:1;" x1="2385.3396" x2="2385.3396" y1="2065.5371" y2="2231.0957"/><polygon fill="#181818" points="2381.3396,2221.0957,2385.3396,2231.0957,2389.3396,2221.0957,2385.3396,2225.0957" style="stroke:#181818;stroke-width:1;"/><line style="stroke:#181818;stroke-width:1;" x1="123.71" x2="123.71" y1="168.8926" y2="173.8926"/><line style="stroke:#181818;stroke-width:1;" x1="123.71" x2="594.7542" y1="173.8926" y2="173.8926"/><line style="stroke:#181818;stroke-width:1;" x1="594.7542" x2="594.7542" y1="173.8926" y2="188.8926"/><polygon fill="#181818" points="590.7542,178.8926,594.7542,188.8926,598.7542,178.8926,594.7542,182.8926" style="stroke:#181818;stroke-width:1;"/><line style="stroke:#181818;stroke-width:1;" x1="1210.6033" x2="1210.6033" y1="1106.9355" y2="1111.9355"/><line style="stroke:#181818;stroke-width:1;" x1="1210.6033" x2="447.3618" y1="1111.9355" y2="1111.9355"/><line style="stroke:#181818;stroke-width:1;" x1="447.3618" x2="447.3618" y1="1111.9355" y2="1126.9355"/><polygon fill="#181818" points="443.3618,1116.9355,447.3618,1126.9355,451.3618,1116.9355,447.3618,1120.9355" style="stroke:#181818;stroke-width:1;"/><line style="stroke:#181818;stroke-width:1;" x1="1419.5198" x2="1431.5198" y1="984.748" y2="984.748"/><line style="stroke:#181818;stroke-width:1;" x1="1431.5198" x2="1431.5198" y1="984.748" y2="1002.748"/><line style="stroke:#181818;stroke-width:1;" x1="1431.5198" x2="742.1465" y1="1002.748" y2="1002.748"/><line style="stroke:#181818;stroke-width:1;" x1="742.1465" x2="742.1465" y1="1002.748" y2="1016.748"/><polygon fill="#181818" points="738.1465,1006.748,742.1465,1016.748,746.1465,1006.748,742.1465,1010.748" style="stroke:#181818;stroke-width:1;"/><line style="stroke:#181818;stroke-width:1;" x1="742.1465" x2="742.1465" y1="1106.9355" y2="1273.0293"/><line style="stroke:#181818;stroke-width:1;" x1="742.1465" x2="594.7542" y1="1273.0293" y2="1273.0293"/><line style="stroke:#181818;stroke-width:1;" x1="594.7542" x2="594.7542" y1="1273.0293" y2="1288.0293"/><polygon fill="#181818" points="590.7542,1278.0293,594.7542,1288.0293,598.7542,1278.0293,594.7542,1282.0293" style="stroke:#181818;stroke-width:1;"/><line style="stroke:#181818;stroke-width:1;" x1="594.7542" x2="594.7542" y1="1338.2168" y2="1343.2168"/><line style="stroke:#181818;stroke-width:1;" x1="594.7542" x2="1950.1736" y1="1343.2168" y2="1343.2168"/><line style="stroke:#181818;stroke-width:1;" x1="1950.1736" x2="1950.1736" y1="1343.2168" y2="1358.2168"/><polygon fill="#181818" points="1946.1736,1348.2168,1950.1736,1358.2168,1954.1736,1348.2168,1950.1736,1352.2168" style="stroke:#181818;stroke-width:1;"/><line style="stroke:#181818;stroke-width:1;" x1="1950.1736" x2="1950.1736" y1="2077.5371" y2="2089.9961"/><line style="stroke:#181818;stroke-width:1;" x1="1950.1736" x2="1357.9956" y1="2089.9961" y2="2089.9961"/><line style="stroke:#181818;stroke-width:1;" x1="1357.9956" x2="1357.9956" y1="2089.9961" y2="2102.4551"/><polygon fill="#181818" points="1353.9956,2092.4551,1357.9956,2102.4551,1361.9956,2092.4551,1357.9956,2096.4551" style="stroke:#181818;stroke-width:1;"/><line style="stroke:#181818;stroke-width:1;" x1="1557.3425" x2="1557.3425" y1="2498.1426" y2="2503.1426"/><line style="stroke:#181818;stroke-width:1;" x1="1557.3425" x2="2165.2615" y1="2503.1426" y2="2503.1426"/><line style="stroke:#181818;stroke-width:1;" x1="2165.2615" x2="2165.2615" y1="2503.1426" y2="2518.1426"/><polygon fill="#181818" points="2161.2615,2508.1426,2165.2615,2518.1426,2169.2615,2508.1426,2165.2615,2512.1426" style="stroke:#181818;stroke-width:1;"/><line style="stroke:#181818;stroke-width:1;" x1="2165.2615" x2="2165.2615" y1="2568.3301" y2="2572.3301"/><line style="stroke:#181818;stroke-width:1;" x1="2165.2615" x2="1623.2126" y1="2572.3301" y2="2572.3301"/><line style="stroke:#181818;stroke-width:1;" x1="1623.2126" x2="1623.2126" y1="2572.3301" y2="2590.3301"/><line style="stroke:#181818;stroke-width:1;" x1="1623.2126" x2="1641.2126" y1="2590.3301" y2="2590.3301"/><polygon fill="#181818" points="1631.2126,2586.3301,1641.2126,2590.3301,1631.2126,2594.3301,1635.2126,2590.3301" style="stroke:#181818;stroke-width:1;"/><line style="stroke:#181818;stroke-width:1;" x1="1867.5464" x2="1042.7786" y1="2313.2832" y2="2313.2832"/><line style="stroke:#181818;stroke-width:1;" x1="1042.7786" x2="1042.7786" y1="2313.2832" y2="2345.2832"/><polygon fill="#181818" points="1038.7786,2335.2832,1042.7786,2345.2832,1046.7786,2335.2832,1042.7786,2339.2832" style="stroke:#181818;stroke-width:1;"/><line style="stroke:#181818;stroke-width:1;" x1="2032.8008" x2="2044.8008" y1="2313.2832" y2="2313.2832"/><line style="stroke:#181818;stroke-width:1;" x1="2044.8008" x2="2044.8008" y1="2313.2832" y2="2331.2832"/><line style="stroke:#181818;stroke-width:1;" x1="2044.8008" x2="1653.2126" y1="2331.2832" y2="2331.2832"/><line style="stroke:#181818;stroke-width:1;" x1="1653.2126" x2="1653.2126" y1="2331.2832" y2="2345.2832"/><polygon fill="#181818" points="1649.2126,2335.2832,1653.2126,2345.2832,1657.2126,2335.2832,1653.2126,2339.2832" style="stroke:#181818;stroke-width:1;"/><line style="stroke:#181818;stroke-width:1;" x1="1042.7786" x2="1042.7786" y1="2395.4707" y2="2624.3301"/><line style="stroke:#181818;stroke-width:1;" x1="1042.7786" x2="1938.1736" y1="2624.3301" y2="2624.3301"/><polygon fill="#181818" points="1928.1736,2620.3301,1938.1736,2624.3301,1928.1736,2628.3301,1932.1736,2624.3301" style="stroke:#181818;stroke-width:1;"/><line style="stroke:#181818;stroke-width:1;" x1="1653.2126" x2="1653.2126" y1="2602.3301" y2="2606.3301"/><line style="stroke:#181818;stroke-width:1;" x1="1653.2126" x2="1980.1736" y1="2606.3301" y2="2606.3301"/><line style="stroke:#181818;stroke-width:1;" x1="1980.1736" x2="1980.1736" y1="2606.3301" y2="2624.3301"/><line style="stroke:#181818;stroke-width:1;" x1="1980.1736" x2="1962.1736" y1="2624.3301" y2="2624.3301"/><polygon fill="#181818" points="1972.1736,2620.3301,1962.1736,2624.3301,1972.1736,2628.3301,1968.1736,2624.3301" style="stroke:#181818;stroke-width:1;"/><line style="stroke:#181818;stroke-width:1;" x1="2385.3396" x2="2385.3396" y1="2281.2832" y2="2286.2832"/><line style="stroke:#181818;stroke-width:1;" x1="2385.3396" x2="1950.1736" y1="2286.2832" y2="2286.2832"/><line style="stroke:#181818;stroke-width:1;" x1="1950.1736" x2="1950.1736" y1="2286.2832" y2="2301.2832"/><polygon fill="#181818" points="1946.1736,2291.2832,1950.1736,2301.2832,1954.1736,2291.2832,1950.1736,2295.2832" style="stroke:#181818;stroke-width:1;"/><line style="stroke:#181818;stroke-width:1;" x1="1950.1736" x2="1950.1736" y1="2636.3301" y2="2641.3301"/><line style="stroke:#181818;stroke-width:1;" x1="1950.1736" x2="1357.9956" y1="2641.3301" y2="2641.3301"/><line style="stroke:#181818;stroke-width:1;" x1="1357.9956" x2="1357.9956" y1="2641.3301" y2="2656.3301"/><polygon fill="#181818" points="1353.9956,2646.3301,1357.9956,2656.3301,1361.9956,2646.3301,1357.9956,2650.3301" style="stroke:#181818;stroke-width:1;"/><text fill="#003B70" font-family="sans-serif" font-size="18" lengthAdjust="spacing" textLength="124.0576" x="60.6812" y="69.75">Servicio interno</text><text fill="#003B70" font-family="sans-serif" font-size="18" lengthAdjust="spacing" textLength="82.0195" x="549.0758" y="69.75">API REST</text><text fill="#003B70" font-family="sans-serif" font-size="18" lengthAdjust="spacing" textLength="249.1523" x="1267.8584" y="69.75">PostgreSQL - fuente de verdad</text><text fill="#003B70" font-family="sans-serif" font-size="18" lengthAdjust="spacing" textLength="204.1084" x="1941.1516" y="69.75">Procesamiento as&#237;ncrono</text><text fill="#003B70" font-family="sans-serif" font-size="18" lengthAdjust="spacing" textLength="148.0869" x="2310.2961" y="69.75">Proveedor externo</text><g class="legend" data-source-line="114"><rect fill="none" height="102.0469" rx="7.5" ry="7.5" style="stroke:#000000;stroke-width:1;" width="391.3154" x="2120.5706" y="2690.3301"/><text fill="#000000" font-family="sans-serif" font-size="14" font-weight="bold" lengthAdjust="spacing" textLength="38.124" x="2129.4602" y="2711.8633">Regla</text><text fill="#000000" font-family="sans-serif" font-size="14" font-weight="bold" lengthAdjust="spacing" textLength="56.7998" x="2213.4944" y="2711.8633">Garant&#237;a</text><text fill="#000000" font-family="sans-serif" font-size="14" lengthAdjust="spacing" textLength="76.2549" x="2129.4602" y="2729.4727">Persistencia</text><text fill="#000000" font-family="sans-serif" font-size="14" lengthAdjust="spacing" textLength="189.0889" x="2213.4944" y="2729.4727">Notificaci&#243;n y outbox at&#243;micos</text><text fill="#000000" font-family="sans-serif" font-size="14" lengthAdjust="spacing" textLength="49.0342" x="2129.4602" y="2747.082">Entrega</text><text fill="#000000" font-family="sans-serif" font-size="14" lengthAdjust="spacing" textLength="289.502" x="2213.4944" y="2747.082">Al menos una vez con controles anti-duplicado</text><text fill="#000000" font-family="sans-serif" font-size="14" lengthAdjust="spacing" textLength="35.793" x="2129.4602" y="2764.6914">Redis</text><text fill="#000000" font-family="sans-serif" font-size="14" lengthAdjust="spacing" textLength="232.6611" x="2213.4944" y="2764.6914">Solo infraestructura operativa BullMQ</text><text fill="#000000" font-family="sans-serif" font-size="14" lengthAdjust="spacing" textLength="45.9102" x="2129.4602" y="2782.3008">Acceso</text><text fill="#000000" font-family="sans-serif" font-size="14" lengthAdjust="spacing" textLength="279.3848" x="2213.4944" y="2782.3008">X-API-Key en operaciones /api/v1 protegidas</text><line style="stroke:#000000;stroke-width:1;" x1="2125.5706" x2="2506.886" y1="2697.3301" y2="2697.3301"/><line style="stroke:#000000;stroke-width:1;" x1="2125.5706" x2="2506.886" y1="2714.9395" y2="2714.9395"/><line style="stroke:#000000;stroke-width:1;" x1="2125.5706" x2="2506.886" y1="2732.5488" y2="2732.5488"/><line style="stroke:#000000;stroke-width:1;" x1="2125.5706" x2="2506.886" y1="2750.1582" y2="2750.1582"/><line style="stroke:#000000;stroke-width:1;" x1="2125.5706" x2="2506.886" y1="2767.7676" y2="2767.7676"/><line style="stroke:#000000;stroke-width:1;" x1="2125.5706" x2="2506.886" y1="2785.377" y2="2785.377"/><line style="stroke:#000000;stroke-width:1;" x1="2125.5706" x2="2125.5706" y1="2697.3301" y2="2785.377"/><line style="stroke:#000000;stroke-width:1;" x1="2209.6047" x2="2209.6047" y1="2697.3301" y2="2785.377"/><line style="stroke:#000000;stroke-width:1;" x1="2506.886" x2="2506.886" y1="2697.3301" y2="2785.377"/></g><!--SRC=[dLPVRnev47_VJp5INrfT4aZQwv-WwWHagRWcWGBjzQH8bLaRyCNOUxPtKrhwOVfu3tdg1pZf-68tjdTXWLokAeeYiCUUtypyVZEst0e6hJuCEeVFZexX46APhsuLK0PIMJxX2KduwfkC8dFDPKeqcSEO9DTJhJ99sqee3JSpRbbbtym8LJTSJc52XAdkaCJodDi5V8u0FwqxB_8xIbEcm-g3uwVFdfwT-FKpJkPAqjs33pgTpacxlMLIlQ7zuaMpNlVRGqkqBPPF_CSln-khYiKlrO1k-5mGoKhOrQkVDrjFukT-VUIIkGSjVjuvxhGs1XqbI__r-kFMipgwYfP3fdEUS0LSMgQbMaR60OrE-xtX26eavRNyk5QMn78bpPLCb8JtXyr-z_0rMm23BcNpL5acauLRQU2zk0c3U3XQHgVlYE2KQC1J4pxDT2WiB3PND29qm43pwSmYu5WuMwkLG2u0IGLw1h86CsD4sDa16jRcp6gUc0EegPH9t3_wmo0soQ56LMAE8YQfunEB-0GU_lEtGtMDaDTGAFdb4TWPa_3mKZtooJeTC9DY8Pc6d-kF6txDM9Mwk_Xavw9yzTK5TzybJ-h7UvUiSp9MT760f3UMIuA9v-hWIgPOSyk580UG44a4fYh7BJ8Mp3GA04E5MU4sezy7eGuA_p_P0n8j-yhOgMR3D-Semad6a0PEX3dJb52iNYj-rRriHAVTos4y66sB4-BBTk-yUTOCbE0R6dnmoNbxsNtpDYuHjmN96Im8P1WR_rHD_N1rMs1kzoukkYCmN6Beyp5Nfb5i8F4oWHa2LxsvquU6b2o48ZIOL2ZdVWQd_M21q5P_OKuJjUzp9rSdc2iNZ6P9feq2zf4Rwx8Il31iB9iSx-Nv1I3G2PR65kO-ovkaRvtUpQbJrmULsR7wsDXAntRIVuBIfgnXHMpLG4wWcIGijOo6-Y3Bi46kYxQZkdFKcBCkl526YgAU2nkAED59twG50SgTApxcZdxKBGuOhbL4X-pIAc66p3bc4ALiLhSoqSgrcTEU3mBwsLXmCqF0c751vWHOxem3v4vl06_xPyrH3CFNtJwSzzglupEaOrip9C0VQWojJ8YBDrSIltSfl2oIS_YPqoybzNv5izJvIJ3-VQ5SeDoOH0J1CxZ0kHV2uafgbcernMwCxaXEk70o_42i9ucRI6eosTVt1T497WXO767L1W2Y3vYH7LQpAV5XQ2mSiqHIZDpEi95FPsbcDvqAlUB1tvI-Hg1gR14W0q9pRfHUW539jKER538fQurnRgfNfkDtlxtwYanurqKYtA73tfnR7l9BixJ4VMShZFrLdURvUVUiYMs6J9LTVVFp19DfzY__lvRZ0JGDSr7hCf3Y_hiQc5OvOnJd6ljOZB3JWdOQpBfDeWCMdXWfchwQOoLXU37gNo6VHpV8OUKbrBYNj4LJMNlqWi5WcIWk_y5e1soANSQ5MwGDulVTKM_OSpLTozONAsHWIxd-7H5s0ryqgaZioZd4N0kn7XJ7C7WqB7auuMxQu5zr81sLZIneUhk5_M1qePgzHgLJnrfZGj5A6cuL-dMX_vanIkGzNDhHxsw3AqtkAUdwbaAJfTfHa8NRq8aAgIF9iEdXYED4_DT4-9wa198dDYDk5jvDyy3myDzJFX9iwWeH2hzyYGrtYkN3Bwzm7agxkiKVqHBwJ1i_jH0bBE5oQtmiogv4aBbp78d6duaB3YoXAM3E92vdaY3cJxxJ5GyoPi2zJGxNJS6VzNqVJ-AZn3qa9vfWE3h3w3G1V9bf76qvAJgrF-464mxNPVKPAOCfFaQHykLhpzN38dyeSJ0n-922w5y0]--></g></svg>