<svg xmlns="http://www.w3.org/2000/svg" xmlns:xlink="http://www.w3.org/1999/xlink" contentStyleType="text/css" data-diagram-type="CLASS" height="1615px" preserveAspectRatio="none" style="width:1999px;height:1615px;background:#FFFFFF;" version="1.1" viewBox="0 0 1999 1615" width="1999px" zoomAndPan="magnify"><title>Vista de c&#243;digo y modelo - Notificaciones</title><defs/><g><g class="title" data-source-line="20"><text fill="#000000" font-family="sans-serif" font-size="14" font-weight="bold" lengthAdjust="spacing" textLength="276.9375" x="854.0313" y="24.5332">Vista de c&#243;digo y modelo - Notificaciones</text></g><!--cluster model--><g class="cluster" data-entity="model" data-source-line="22" data-uid="ent0002" id="cluster_model"><rect fill="#F4F8FD" height="756" rx="2.5" ry="2.5" style="stroke:#9BB7D4;stroke-width:1.5;" width="469" x="386" y="853.6094"/><text fill="#003865" font-family="sans-serif" font-size="14" font-weight="bold" lengthAdjust="spacing" textLength="224.8066" x="508.0967" y="870.1426">Modelo persistido en PostgreSQL</text></g><!--cluster application--><g class="cluster" data-entity="application" data-source-line="71" data-uid="ent0010" id="cluster_application"><rect fill="#F4F8FD" height="423" rx="2.5" ry="2.5" style="stroke:#9BB7D4;stroke-width:1.5;" width="823" x="7" y="406.6094"/><text fill="#003865" font-family="sans-serif" font-size="14" font-weight="bold" lengthAdjust="spacing" textLength="107.3721" x="364.814" y="423.1426">API y aplicaci&#243;n</text></g><!--cluster asynchronous--><g class="cluster" data-entity="asynchronous" data-source-line="116" data-uid="ent0024" id="cluster_asynchronous"><rect fill="#F4F8FD" height="1019" rx="2.5" ry="2.5" style="stroke:#9BB7D4;stroke-width:1.5;" width="1089" x="904" y="45.6094"/><text fill="#003865" font-family="sans-serif" font-size="14" font-weight="bold" lengthAdjust="spacing" textLength="171.165" x="1362.9175" y="62.1426">Procesamiento as&#237;ncrono</text></g><!--class Plantilla--><g class="entity" data-entity="Plantilla" data-source-line="23" data-uid="ent0003" id="entity_Plantilla"><rect fill="#FFFFFF" height="171.2656" rx="2.5" ry="2.5" style="stroke:#1168BD;stroke-width:0.5;" width="167.251" x="547.5" y="889.6094"/><ellipse cx="602.3618" cy="905.6094" fill="#ADD1B2" rx="11" ry="11" style="stroke:#181818;stroke-width:1;"/><path d="M605.1274,901.4844 Q605.2837,901.2656 605.4712,901.1563 Q605.6587,901.0469 605.8774,901.0469 Q606.2524,901.0469 606.4868,901.3125 Q606.7212,901.5625 606.7212,902.1719 L606.7212,903.625 Q606.7212,904.2344 606.4868,904.5 Q606.2524,904.7656 605.8774,904.7656 Q605.5337,904.7656 605.3306,904.5625 Q605.1274,904.375 605.0181,903.8594 Q604.9712,903.5 604.7837,903.3125 Q604.4556,902.9375 603.8462,902.7188 Q603.2368,902.5 602.6118,902.5 Q601.8462,902.5 601.2056,902.8281 Q600.5806,903.1563 600.0806,903.9063 Q599.5962,904.6563 599.5962,905.6875 L599.5962,906.7813 Q599.5962,908.0156 600.4868,908.8438 Q601.3774,909.6563 602.9712,909.6563 Q603.9087,909.6563 604.5649,909.4063 Q604.9556,909.25 605.3774,908.8125 Q605.6431,908.5469 605.7837,908.4688 Q605.9399,908.3906 606.1431,908.3906 Q606.4712,908.3906 606.7212,908.6563 Q606.9868,908.9063 606.9868,909.25 Q606.9868,909.5938 606.6431,910 Q606.1431,910.5781 605.3462,910.9063 Q604.2681,911.3594 602.9712,911.3594 Q601.4556,911.3594 600.2524,910.7344 Q599.2681,910.2344 598.5806,909.1719 Q597.8931,908.0938 597.8931,906.8125 L597.8931,905.6563 Q597.8931,904.3281 598.5024,903.1875 Q599.1274,902.0313 600.2212,901.4219 Q601.3149,900.7969 602.5493,900.7969 Q603.2837,900.7969 603.9243,900.9688 Q604.5806,901.125 605.1274,901.4844 Z " fill="#000000"/><text fill="#1A1A1A" font-family="sans-serif" font-size="14" lengthAdjust="spacing" textLength="49.0273" x="622.8618" y="911.3379">Plantilla</text><line style="stroke:#1168BD;stroke-width:0.5;" x1="548.5" x2="713.751" y1="921.6094" y2="921.6094"/><text fill="#000000" font-family="sans-serif" font-size="14" lengthAdjust="spacing" textLength="60.3203" x="553.5" y="940.1426">+id: bigint</text><text fill="#000000" font-family="sans-serif" font-size="14" lengthAdjust="spacing" textLength="97.6582" x="553.5" y="957.752">+nombre: string</text><text fill="#000000" font-family="sans-serif" font-size="14" lengthAdjust="spacing" textLength="133.1914" x="553.5" y="975.3613">+canal: EMAIL | SMS</text><text fill="#000000" font-family="sans-serif" font-size="14" lengthAdjust="spacing" textLength="110.9063" x="553.5" y="992.9707">+contenido: string</text><text fill="#000000" font-family="sans-serif" font-size="14" lengthAdjust="spacing" textLength="113.9961" x="553.5" y="1010.5801">+variables: string[]</text><text fill="#000000" font-family="sans-serif" font-size="14" lengthAdjust="spacing" textLength="151.3408" x="553.5" y="1028.1895">+createdAt: timestamptz</text><text fill="#000000" font-family="sans-serif" font-size="14" lengthAdjust="spacing" textLength="155.251" x="553.5" y="1045.7988">+updatedAt: timestamptz</text><line style="stroke:#1168BD;stroke-width:0.5;" x1="548.5" x2="713.751" y1="1052.875" y2="1052.875"/></g><!--class Notificacion--><g class="entity" data-entity="Notificacion" data-source-line="33" data-uid="ent0004" id="entity_Notificacion"><rect fill="#FFFFFF" height="224.0938" rx="2.5" ry="2.5" style="stroke:#1168BD;stroke-width:0.5;" width="288.1035" x="526" y="1120.6094"/><ellipse cx="629.6191" cy="1136.6094" fill="#ADD1B2" rx="11" ry="11" style="stroke:#181818;stroke-width:1;"/><path d="M632.3848,1132.4844 Q632.541,1132.2656 632.7285,1132.1563 Q632.916,1132.0469 633.1348,1132.0469 Q633.5098,1132.0469 633.7441,1132.3125 Q633.9785,1132.5625 633.9785,1133.1719 L633.9785,1134.625 Q633.9785,1135.2344 633.7441,1135.5 Q633.5098,1135.7656 633.1348,1135.7656 Q632.791,1135.7656 632.5879,1135.5625 Q632.3848,1135.375 632.2754,1134.8594 Q632.2285,1134.5 632.041,1134.3125 Q631.7129,1133.9375 631.1035,1133.7188 Q630.4941,1133.5 629.8691,1133.5 Q629.1035,1133.5 628.4629,1133.8281 Q627.8379,1134.1563 627.3379,1134.9063 Q626.8535,1135.6563 626.8535,1136.6875 L626.8535,1137.7813 Q626.8535,1139.0156 627.7441,1139.8438 Q628.6348,1140.6563 630.2285,1140.6563 Q631.166,1140.6563 631.8223,1140.4063 Q632.2129,1140.25 632.6348,1139.8125 Q632.9004,1139.5469 633.041,1139.4688 Q633.1973,1139.3906 633.4004,1139.3906 Q633.7285,1139.3906 633.9785,1139.6563 Q634.2441,1139.9063 634.2441,1140.25 Q634.2441,1140.5938 633.9004,1141 Q633.4004,1141.5781 632.6035,1141.9063 Q631.5254,1142.3594 630.2285,1142.3594 Q628.7129,1142.3594 627.5098,1141.7344 Q626.5254,1141.2344 625.8379,1140.1719 Q625.1504,1139.0938 625.1504,1137.8125 L625.1504,1136.6563 Q625.1504,1135.3281 625.7598,1134.1875 Q626.3848,1133.0313 627.4785,1132.4219 Q628.5723,1131.7969 629.8066,1131.7969 Q630.541,1131.7969 631.1816,1131.9688 Q631.8379,1132.125 632.3848,1132.4844 Z " fill="#000000"/><text fill="#1A1A1A" font-family="sans-serif" font-size="14" lengthAdjust="spacing" textLength="72.3652" x="650.1191" y="1142.3379">Notificacion</text><line style="stroke:#1168BD;stroke-width:0.5;" x1="527" x2="813.1035" y1="1152.6094" y2="1152.6094"/><text fill="#000000" font-family="sans-serif" font-size="14" lengthAdjust="spacing" textLength="60.3203" x="532" y="1171.1426">+id: bigint</text><text fill="#000000" font-family="sans-serif" font-size="14" lengthAdjust="spacing" textLength="133.1914" x="532" y="1188.752">+canal: EMAIL | SMS</text><text fill="#000000" font-family="sans-serif" font-size="14" lengthAdjust="spacing" textLength="122.5684" x="532" y="1206.3613">+destinatario: string</text><text fill="#000000" font-family="sans-serif" font-size="14" lengthAdjust="spacing" textLength="108.5752" x="532" y="1223.9707">+plantillaId: bigint</text><text fill="#000000" font-family="sans-serif" font-size="14" lengthAdjust="spacing" textLength="118.6582" x="532" y="1241.5801">+variables: JSONB</text><text fill="#000000" font-family="sans-serif" font-size="14" lengthAdjust="spacing" textLength="276.1035" x="532" y="1259.1895">+estado: ENCOLADA | ENVIADA | FALLIDA</text><text fill="#000000" font-family="sans-serif" font-size="14" lengthAdjust="spacing" textLength="107.7959" x="532" y="1276.7988">+intentos: integer</text><text fill="#000000" font-family="sans-serif" font-size="14" lengthAdjust="spacing" textLength="153.6924" x="532" y="1294.4082">+idempotencyKey: string</text><text fill="#000000" font-family="sans-serif" font-size="14" lengthAdjust="spacing" textLength="151.3408" x="532" y="1312.0176">+createdAt: timestamptz</text><text fill="#000000" font-family="sans-serif" font-size="14" lengthAdjust="spacing" textLength="155.251" x="532" y="1329.627">+updatedAt: timestamptz</text><line style="stroke:#1168BD;stroke-width:0.5;" x1="527" x2="813.1035" y1="1336.7031" y2="1336.7031"/></g><!--class Intento--><g class="entity" data-entity="Intento" data-source-line="46" data-uid="ent0005" id="entity_Intento"><rect fill="#FFFFFF" height="153.6563" rx="2.5" ry="2.5" style="stroke:#1168BD;stroke-width:0.5;" width="217.5498" x="621" y="1422.1094"/><ellipse cx="704.1182" cy="1438.1094" fill="#ADD1B2" rx="11" ry="11" style="stroke:#181818;stroke-width:1;"/><path d="M706.8838,1433.9844 Q707.04,1433.7656 707.2275,1433.6563 Q707.415,1433.5469 707.6338,1433.5469 Q708.0088,1433.5469 708.2432,1433.8125 Q708.4775,1434.0625 708.4775,1434.6719 L708.4775,1436.125 Q708.4775,1436.7344 708.2432,1437 Q708.0088,1437.2656 707.6338,1437.2656 Q707.29,1437.2656 707.0869,1437.0625 Q706.8838,1436.875 706.7744,1436.3594 Q706.7275,1436 706.54,1435.8125 Q706.2119,1435.4375 705.6025,1435.2188 Q704.9932,1435 704.3682,1435 Q703.6025,1435 702.9619,1435.3281 Q702.3369,1435.6563 701.8369,1436.4063 Q701.3525,1437.1563 701.3525,1438.1875 L701.3525,1439.2813 Q701.3525,1440.5156 702.2432,1441.3438 Q703.1338,1442.1563 704.7275,1442.1563 Q705.665,1442.1563 706.3213,1441.9063 Q706.7119,1441.75 707.1338,1441.3125 Q707.3994,1441.0469 707.54,1440.9688 Q707.6963,1440.8906 707.8994,1440.8906 Q708.2275,1440.8906 708.4775,1441.1563 Q708.7432,1441.4063 708.7432,1441.75 Q708.7432,1442.0938 708.3994,1442.5 Q707.8994,1443.0781 707.1025,1443.4063 Q706.0244,1443.8594 704.7275,1443.8594 Q703.2119,1443.8594 702.0088,1443.2344 Q701.0244,1442.7344 700.3369,1441.6719 Q699.6494,1440.5938 699.6494,1439.3125 L699.6494,1438.1563 Q699.6494,1436.8281 700.2588,1435.6875 Q700.8838,1434.5313 701.9775,1433.9219 Q703.0713,1433.2969 704.3057,1433.2969 Q705.04,1433.2969 705.6807,1433.4688 Q706.3369,1433.625 706.8838,1433.9844 Z " fill="#000000"/><text fill="#1A1A1A" font-family="sans-serif" font-size="14" lengthAdjust="spacing" textLength="42.8135" x="724.6182" y="1443.8379">Intento</text><line style="stroke:#1168BD;stroke-width:0.5;" x1="622" x2="837.5498" y1="1454.1094" y2="1454.1094"/><text fill="#000000" font-family="sans-serif" font-size="14" lengthAdjust="spacing" textLength="60.3203" x="627" y="1472.6426">+id: bigint</text><text fill="#000000" font-family="sans-serif" font-size="14" lengthAdjust="spacing" textLength="131.1406" x="627" y="1490.252">+notificacionId: bigint</text><text fill="#000000" font-family="sans-serif" font-size="14" lengthAdjust="spacing" textLength="106.2305" x="627" y="1507.8613">+numero: integer</text><text fill="#000000" font-family="sans-serif" font-size="14" lengthAdjust="spacing" textLength="205.5498" x="627" y="1525.4707">+resultado: EXITOSO | FALLIDO</text><text fill="#000000" font-family="sans-serif" font-size="14" lengthAdjust="spacing" textLength="99.2305" x="627" y="1543.0801">+detalle: string?</text><text fill="#000000" font-family="sans-serif" font-size="14" lengthAdjust="spacing" textLength="155.9893" x="627" y="1560.6895">+timestamp: timestamptz</text><line style="stroke:#1168BD;stroke-width:0.5;" x1="622" x2="837.5498" y1="1567.7656" y2="1567.7656"/></g><!--class OutboxEvent--><g class="entity" data-entity="OutboxEvent" data-source-line="55" data-uid="ent0006" id="entity_OutboxEvent"><rect fill="#FFFFFF" height="188.875" rx="2.5" ry="2.5" style="stroke:#1168BD;stroke-width:0.5;" width="184.3682" x="402" y="1404.6094"/><ellipse cx="449.4653" cy="1420.6094" fill="#ADD1B2" rx="11" ry="11" style="stroke:#181818;stroke-width:1;"/><path d="M452.231,1416.4844 Q452.3872,1416.2656 452.5747,1416.1563 Q452.7622,1416.0469 452.981,1416.0469 Q453.356,1416.0469 453.5903,1416.3125 Q453.8247,1416.5625 453.8247,1417.1719 L453.8247,1418.625 Q453.8247,1419.2344 453.5903,1419.5 Q453.356,1419.7656 452.981,1419.7656 Q452.6372,1419.7656 452.4341,1419.5625 Q452.231,1419.375 452.1216,1418.8594 Q452.0747,1418.5 451.8872,1418.3125 Q451.5591,1417.9375 450.9497,1417.7188 Q450.3403,1417.5 449.7153,1417.5 Q448.9497,1417.5 448.3091,1417.8281 Q447.6841,1418.1563 447.1841,1418.9063 Q446.6997,1419.6563 446.6997,1420.6875 L446.6997,1421.7813 Q446.6997,1423.0156 447.5903,1423.8438 Q448.481,1424.6563 450.0747,1424.6563 Q451.0122,1424.6563 451.6685,1424.4063 Q452.0591,1424.25 452.481,1423.8125 Q452.7466,1423.5469 452.8872,1423.4688 Q453.0435,1423.3906 453.2466,1423.3906 Q453.5747,1423.3906 453.8247,1423.6563 Q454.0903,1423.9063 454.0903,1424.25 Q454.0903,1424.5938 453.7466,1425 Q453.2466,1425.5781 452.4497,1425.9063 Q451.3716,1426.3594 450.0747,1426.3594 Q448.5591,1426.3594 447.356,1425.7344 Q446.3716,1425.2344 445.6841,1424.1719 Q444.9966,1423.0938 444.9966,1421.8125 L444.9966,1420.6563 Q444.9966,1419.3281 445.606,1418.1875 Q446.231,1417.0313 447.3247,1416.4219 Q448.4185,1415.7969 449.6528,1415.7969 Q450.3872,1415.7969 451.0278,1415.9688 Q451.6841,1416.125 452.231,1416.4844 Z " fill="#000000"/><text fill="#1A1A1A" font-family="sans-serif" font-size="14" lengthAdjust="spacing" textLength="80.9375" x="469.9653" y="1426.3379">OutboxEvent</text><line style="stroke:#1168BD;stroke-width:0.5;" x1="403" x2="585.3682" y1="1436.6094" y2="1436.6094"/><text fill="#000000" font-family="sans-serif" font-size="14" lengthAdjust="spacing" textLength="60.3203" x="408" y="1455.1426">+id: bigint</text><text fill="#000000" font-family="sans-serif" font-size="14" lengthAdjust="spacing" textLength="128.0303" x="408" y="1472.752">+notificationId: bigint</text><text fill="#000000" font-family="sans-serif" font-size="14" lengthAdjust="spacing" textLength="172.3682" x="408" y="1490.3613">+publishedAt: timestamptz?</text><text fill="#000000" font-family="sans-serif" font-size="14" lengthAdjust="spacing" textLength="158.3682" x="408" y="1507.9707">+publishAttempts: integer</text><text fill="#000000" font-family="sans-serif" font-size="14" lengthAdjust="spacing" textLength="159.9063" x="408" y="1525.5801">+availableAt: timestamptz</text><text fill="#000000" font-family="sans-serif" font-size="14" lengthAdjust="spacing" textLength="110.8721" x="408" y="1543.1895">+lastError: string?</text><text fill="#000000" font-family="sans-serif" font-size="14" lengthAdjust="spacing" textLength="151.3408" x="408" y="1560.7988">+createdAt: timestamptz</text><text fill="#000000" font-family="sans-serif" font-size="14" lengthAdjust="spacing" textLength="155.251" x="408" y="1578.4082">+updatedAt: timestamptz</text><line style="stroke:#1168BD;stroke-width:0.5;" x1="403" x2="585.3682" y1="1585.4844" y2="1585.4844"/></g><!--class NotificationService--><g class="entity" data-entity="NotificationService" data-source-line="72" data-uid="ent0011" id="entity_NotificationService"><rect fill="#FFFFFF" height="146.75" rx="2.5" ry="2.5" style="stroke:#1168BD;stroke-width:0.5;" width="342.3262" x="187" y="442.6094"/><ellipse cx="295.9443" cy="463.9609" fill="#ADD1B2" rx="11" ry="11" style="stroke:#181818;stroke-width:1;"/><path d="M298.71,459.8359 Q298.8662,459.6172 299.0537,459.5078 Q299.2412,459.3984 299.46,459.3984 Q299.835,459.3984 300.0693,459.6641 Q300.3037,459.9141 300.3037,460.5234 L300.3037,461.9766 Q300.3037,462.5859 300.0693,462.8516 Q299.835,463.1172 299.46,463.1172 Q299.1162,463.1172 298.9131,462.9141 Q298.71,462.7266 298.6006,462.2109 Q298.5537,461.8516 298.3662,461.6641 Q298.0381,461.2891 297.4287,461.0703 Q296.8193,460.8516 296.1943,460.8516 Q295.4287,460.8516 294.7881,461.1797 Q294.1631,461.5078 293.6631,462.2578 Q293.1787,463.0078 293.1787,464.0391 L293.1787,465.1328 Q293.1787,466.3672 294.0693,467.1953 Q294.96,468.0078 296.5537,468.0078 Q297.4912,468.0078 298.1475,467.7578 Q298.5381,467.6016 298.96,467.1641 Q299.2256,466.8984 299.3662,466.8203 Q299.5225,466.7422 299.7256,466.7422 Q300.0537,466.7422 300.3037,467.0078 Q300.5693,467.2578 300.5693,467.6016 Q300.5693,467.9453 300.2256,468.3516 Q299.7256,468.9297 298.9287,469.2578 Q297.8506,469.7109 296.5537,469.7109 Q295.0381,469.7109 293.835,469.0859 Q292.8506,468.5859 292.1631,467.5234 Q291.4756,466.4453 291.4756,465.1641 L291.4756,464.0078 Q291.4756,462.6797 292.085,461.5391 Q292.71,460.3828 293.8037,459.7734 Q294.8975,459.1484 296.1318,459.1484 Q296.8662,459.1484 297.5068,459.3203 Q298.1631,459.4766 298.71,459.8359 Z " fill="#000000"/><text fill="#000000" font-family="sans-serif" font-size="12" font-style="italic" lengthAdjust="spacing" textLength="52.7051" x="348.0605" y="460.0664">&#171;module&#187;</text><text fill="#1A1A1A" font-family="sans-serif" font-size="14" lengthAdjust="spacing" textLength="115.9375" x="316.4443" y="477.2363">NotificationService</text><line style="stroke:#1168BD;stroke-width:0.5;" x1="188" x2="528.3262" y1="485.3125" y2="485.3125"/><line style="stroke:#1168BD;stroke-width:0.5;" x1="188" x2="528.3262" y1="493.3125" y2="493.3125"/><text fill="#000000" font-family="sans-serif" font-size="14" lengthAdjust="spacing" textLength="330.3262" x="193" y="511.8457">+createNotificationService(request, idempotencyKey)</text><text fill="#000000" font-family="sans-serif" font-size="14" lengthAdjust="spacing" textLength="163.7959" x="193" y="529.4551">+getNotificationService(id)</text><text fill="#000000" font-family="sans-serif" font-size="14" lengthAdjust="spacing" textLength="190.9961" x="193" y="547.0645">+listNotificationsService(filters)</text><text fill="#000000" font-family="sans-serif" font-size="14" lengthAdjust="spacing" textLength="172.334" x="193" y="564.6738">+retryNotificationService(id)</text><text fill="#000000" font-family="sans-serif" font-size="14" lengthAdjust="spacing" textLength="145.8789" x="193" y="582.2832">+retryBackoff(attempts)</text></g><!--class TemplateService--><g class="entity" data-entity="TemplateService" data-source-line="80" data-uid="ent0012" id="entity_TemplateService"><rect fill="#FFFFFF" height="111.5313" rx="2.5" ry="2.5" style="stroke:#1168BD;stroke-width:0.5;" width="249.7334" x="564" y="460.1094"/><ellipse cx="632.0962" cy="481.4609" fill="#ADD1B2" rx="11" ry="11" style="stroke:#181818;stroke-width:1;"/><path d="M634.8618,477.3359 Q635.0181,477.1172 635.2056,477.0078 Q635.3931,476.8984 635.6118,476.8984 Q635.9868,476.8984 636.2212,477.1641 Q636.4556,477.4141 636.4556,478.0234 L636.4556,479.4766 Q636.4556,480.0859 636.2212,480.3516 Q635.9868,480.6172 635.6118,480.6172 Q635.2681,480.6172 635.0649,480.4141 Q634.8618,480.2266 634.7524,479.7109 Q634.7056,479.3516 634.5181,479.1641 Q634.1899,478.7891 633.5806,478.5703 Q632.9712,478.3516 632.3462,478.3516 Q631.5806,478.3516 630.9399,478.6797 Q630.3149,479.0078 629.8149,479.7578 Q629.3306,480.5078 629.3306,481.5391 L629.3306,482.6328 Q629.3306,483.8672 630.2212,484.6953 Q631.1118,485.5078 632.7056,485.5078 Q633.6431,485.5078 634.2993,485.2578 Q634.6899,485.1016 635.1118,484.6641 Q635.3774,484.3984 635.5181,484.3203 Q635.6743,484.2422 635.8774,484.2422 Q636.2056,484.2422 636.4556,484.5078 Q636.7212,484.7578 636.7212,485.1016 Q636.7212,485.4453 636.3774,485.8516 Q635.8774,486.4297 635.0806,486.7578 Q634.0024,487.2109 632.7056,487.2109 Q631.1899,487.2109 629.9868,486.5859 Q629.0024,486.0859 628.3149,485.0234 Q627.6274,483.9453 627.6274,482.6641 L627.6274,481.5078 Q627.6274,480.1797 628.2368,479.0391 Q628.8618,477.8828 629.9556,477.2734 Q631.0493,476.6484 632.2837,476.6484 Q633.0181,476.6484 633.6587,476.8203 Q634.3149,476.9766 634.8618,477.3359 Z " fill="#000000"/><text fill="#000000" font-family="sans-serif" font-size="12" font-style="italic" lengthAdjust="spacing" textLength="52.7051" x="678.7642" y="477.5664">&#171;module&#187;</text><text fill="#1A1A1A" font-family="sans-serif" font-size="14" lengthAdjust="spacing" textLength="105.041" x="652.5962" y="494.7363">TemplateService</text><line style="stroke:#1168BD;stroke-width:0.5;" x1="565" x2="812.7334" y1="502.8125" y2="502.8125"/><line style="stroke:#1168BD;stroke-width:0.5;" x1="565" x2="812.7334" y1="510.8125" y2="510.8125"/><text fill="#000000" font-family="sans-serif" font-size="14" lengthAdjust="spacing" textLength="215.1475" x="570" y="529.3457">+createTemplateService(template)</text><text fill="#000000" font-family="sans-serif" font-size="14" lengthAdjust="spacing" textLength="237.7334" x="570" y="546.9551">+updateTemplateService(id, template)</text><text fill="#000000" font-family="sans-serif" font-size="14" lengthAdjust="spacing" textLength="171.582" x="570" y="564.5645">+deleteTemplateService(id)</text></g><!--class NotificationRepository--><g class="entity" data-entity="NotificationRepository" data-source-line="86" data-uid="ent0013" id="entity_NotificationRepository"><rect fill="#FFFFFF" height="164.3594" rx="2.5" ry="2.5" style="stroke:#1168BD;stroke-width:0.5;" width="299.5127" x="23" y="649.6094"/><ellipse cx="100.4204" cy="670.9609" fill="#ADD1B2" rx="11" ry="11" style="stroke:#181818;stroke-width:1;"/><path d="M103.186,666.8359 Q103.3423,666.6172 103.5298,666.5078 Q103.7173,666.3984 103.936,666.3984 Q104.311,666.3984 104.5454,666.6641 Q104.7798,666.9141 104.7798,667.5234 L104.7798,668.9766 Q104.7798,669.5859 104.5454,669.8516 Q104.311,670.1172 103.936,670.1172 Q103.5923,670.1172 103.3892,669.9141 Q103.186,669.7266 103.0767,669.2109 Q103.0298,668.8516 102.8423,668.6641 Q102.5142,668.2891 101.9048,668.0703 Q101.2954,667.8516 100.6704,667.8516 Q99.9048,667.8516 99.2642,668.1797 Q98.6392,668.5078 98.1392,669.2578 Q97.6548,670.0078 97.6548,671.0391 L97.6548,672.1328 Q97.6548,673.3672 98.5454,674.1953 Q99.436,675.0078 101.0298,675.0078 Q101.9673,675.0078 102.6235,674.7578 Q103.0142,674.6016 103.436,674.1641 Q103.7017,673.8984 103.8423,673.8203 Q103.9985,673.7422 104.2017,673.7422 Q104.5298,673.7422 104.7798,674.0078 Q105.0454,674.2578 105.0454,674.6016 Q105.0454,674.9453 104.7017,675.3516 Q104.2017,675.9297 103.4048,676.2578 Q102.3267,676.7109 101.0298,676.7109 Q99.5142,676.7109 98.311,676.0859 Q97.3267,675.5859 96.6392,674.5234 Q95.9517,673.4453 95.9517,672.1641 L95.9517,671.0078 Q95.9517,669.6797 96.561,668.5391 Q97.186,667.3828 98.2798,666.7734 Q99.3735,666.1484 100.6079,666.1484 Q101.3423,666.1484 101.9829,666.3203 Q102.6392,666.4766 103.186,666.8359 Z " fill="#000000"/><text fill="#000000" font-family="sans-serif" font-size="12" font-style="italic" lengthAdjust="spacing" textLength="52.7051" x="162.6538" y="667.0664">&#171;module&#187;</text><text fill="#1A1A1A" font-family="sans-serif" font-size="14" lengthAdjust="spacing" textLength="136.1719" x="120.9204" y="684.2363">NotificationRepository</text><line style="stroke:#1168BD;stroke-width:0.5;" x1="24" x2="321.5127" y1="692.3125" y2="692.3125"/><line style="stroke:#1168BD;stroke-width:0.5;" x1="24" x2="321.5127" y1="700.3125" y2="700.3125"/><text fill="#000000" font-family="sans-serif" font-size="14" lengthAdjust="spacing" textLength="148.2373" x="29" y="718.8457">+insertNotification(data)</text><text fill="#000000" font-family="sans-serif" font-size="14" lengthAdjust="spacing" textLength="251.7334" x="29" y="736.4551">+findNotificationByIdempotencyKey(key)</text><text fill="#000000" font-family="sans-serif" font-size="14" lengthAdjust="spacing" textLength="148.2373" x="29" y="754.0645">+findNotificationById(id)</text><text fill="#000000" font-family="sans-serif" font-size="14" lengthAdjust="spacing" textLength="254.8438" x="29" y="771.6738">+findNotificationByIdForUpdate(client, id)</text><text fill="#000000" font-family="sans-serif" font-size="14" lengthAdjust="spacing" textLength="182.4717" x="29" y="789.2832">+findNotificationsPage(filters)</text><text fill="#000000" font-family="sans-serif" font-size="14" lengthAdjust="spacing" textLength="287.5127" x="29" y="806.8926">+scheduleNotificationRetry(client, id, delayMs)</text></g><!--class TemplateRepository--><g class="entity" data-entity="TemplateRepository" data-source-line="95" data-uid="ent0014" id="entity_TemplateRepository"><rect fill="#FFFFFF" height="129.1406" rx="2.5" ry="2.5" style="stroke:#1168BD;stroke-width:0.5;" width="204.6162" x="608.5" y="667.1094"/><ellipse cx="644.8034" cy="688.4609" fill="#ADD1B2" rx="11" ry="11" style="stroke:#181818;stroke-width:1;"/><path d="M647.569,684.3359 Q647.7252,684.1172 647.9127,684.0078 Q648.1002,683.8984 648.319,683.8984 Q648.694,683.8984 648.9284,684.1641 Q649.1627,684.4141 649.1627,685.0234 L649.1627,686.4766 Q649.1627,687.0859 648.9284,687.3516 Q648.694,687.6172 648.319,687.6172 Q647.9752,687.6172 647.7721,687.4141 Q647.569,687.2266 647.4596,686.7109 Q647.4127,686.3516 647.2252,686.1641 Q646.8971,685.7891 646.2877,685.5703 Q645.6784,685.3516 645.0534,685.3516 Q644.2877,685.3516 643.6471,685.6797 Q643.0221,686.0078 642.5221,686.7578 Q642.0377,687.5078 642.0377,688.5391 L642.0377,689.6328 Q642.0377,690.8672 642.9284,691.6953 Q643.819,692.5078 645.4127,692.5078 Q646.3502,692.5078 647.0065,692.2578 Q647.3971,692.1016 647.819,691.6641 Q648.0846,691.3984 648.2252,691.3203 Q648.3815,691.2422 648.5846,691.2422 Q648.9127,691.2422 649.1627,691.5078 Q649.4284,691.7578 649.4284,692.1016 Q649.4284,692.4453 649.0846,692.8516 Q648.5846,693.4297 647.7877,693.7578 Q646.7096,694.2109 645.4127,694.2109 Q643.8971,694.2109 642.694,693.5859 Q641.7096,693.0859 641.0221,692.0234 Q640.3346,690.9453 640.3346,689.6641 L640.3346,688.5078 Q640.3346,687.1797 640.944,686.0391 Q641.569,684.8828 642.6627,684.2734 Q643.7565,683.6484 644.9909,683.6484 Q645.7252,683.6484 646.3659,683.8203 Q647.0221,683.9766 647.569,684.3359 Z " fill="#000000"/><text fill="#000000" font-family="sans-serif" font-size="12" font-style="italic" lengthAdjust="spacing" textLength="52.7051" x="699.8226" y="684.5664">&#171;module&#187;</text><text fill="#1A1A1A" font-family="sans-serif" font-size="14" lengthAdjust="spacing" textLength="125.2754" x="663.5375" y="701.7363">TemplateRepository</text><line style="stroke:#1168BD;stroke-width:0.5;" x1="609.5" x2="812.1162" y1="709.8125" y2="709.8125"/><line style="stroke:#1168BD;stroke-width:0.5;" x1="609.5" x2="812.1162" y1="717.8125" y2="717.8125"/><text fill="#000000" font-family="sans-serif" font-size="14" lengthAdjust="spacing" textLength="137.3408" x="614.5" y="736.3457">+findTemplateById(id)</text><text fill="#000000" font-family="sans-serif" font-size="14" lengthAdjust="spacing" textLength="137.3408" x="614.5" y="753.9551">+insertTemplate(data)</text><text fill="#000000" font-family="sans-serif" font-size="14" lengthAdjust="spacing" textLength="192.6162" x="614.5" y="771.5645">+updateTemplateById(id, data)</text><text fill="#000000" font-family="sans-serif" font-size="14" lengthAdjust="spacing" textLength="152.9131" x="614.5" y="789.1738">+deleteTemplateById(id)</text></g><!--class AttemptRepository--><g class="entity" data-entity="AttemptRepository" data-source-line="102" data-uid="ent0015" id="entity_AttemptRepository"><rect fill="#FFFFFF" height="76.3125" rx="2.5" ry="2.5" style="stroke:#1168BD;stroke-width:0.5;" width="215.4785" x="358.5" y="693.6094"/><ellipse cx="404.4102" cy="714.9609" fill="#ADD1B2" rx="11" ry="11" style="stroke:#181818;stroke-width:1;"/><path d="M407.1758,710.8359 Q407.332,710.6172 407.5195,710.5078 Q407.707,710.3984 407.9258,710.3984 Q408.3008,710.3984 408.5352,710.6641 Q408.7695,710.9141 408.7695,711.5234 L408.7695,712.9766 Q408.7695,713.5859 408.5352,713.8516 Q408.3008,714.1172 407.9258,714.1172 Q407.582,714.1172 407.3789,713.9141 Q407.1758,713.7266 407.0664,713.2109 Q407.0195,712.8516 406.832,712.6641 Q406.5039,712.2891 405.8945,712.0703 Q405.2852,711.8516 404.6602,711.8516 Q403.8945,711.8516 403.2539,712.1797 Q402.6289,712.5078 402.1289,713.2578 Q401.6445,714.0078 401.6445,715.0391 L401.6445,716.1328 Q401.6445,717.3672 402.5352,718.1953 Q403.4258,719.0078 405.0195,719.0078 Q405.957,719.0078 406.6133,718.7578 Q407.0039,718.6016 407.4258,718.1641 Q407.6914,717.8984 407.832,717.8203 Q407.9883,717.7422 408.1914,717.7422 Q408.5195,717.7422 408.7695,718.0078 Q409.0352,718.2578 409.0352,718.6016 Q409.0352,718.9453 408.6914,719.3516 Q408.1914,719.9297 407.3945,720.2578 Q406.3164,720.7109 405.0195,720.7109 Q403.5039,720.7109 402.3008,720.0859 Q401.3164,719.5859 400.6289,718.5234 Q399.9414,717.4453 399.9414,716.1641 L399.9414,715.0078 Q399.9414,713.6797 400.5508,712.5391 Q401.1758,711.3828 402.2695,710.7734 Q403.3633,710.1484 404.5977,710.1484 Q405.332,710.1484 405.9727,710.3203 Q406.6289,710.4766 407.1758,710.8359 Z " fill="#000000"/><text fill="#000000" font-family="sans-serif" font-size="12" font-style="italic" lengthAdjust="spacing" textLength="52.7051" x="456.1367" y="711.0664">&#171;module&#187;</text><text fill="#1A1A1A" font-family="sans-serif" font-size="14" lengthAdjust="spacing" textLength="115.1582" x="424.9102" y="728.2363">AttemptRepository</text><line style="stroke:#1168BD;stroke-width:0.5;" x1="359.5" x2="572.9785" y1="736.3125" y2="736.3125"/><line style="stroke:#1168BD;stroke-width:0.5;" x1="359.5" x2="572.9785" y1="744.3125" y2="744.3125"/><text fill="#000000" font-family="sans-serif" font-size="14" lengthAdjust="spacing" textLength="203.4785" x="364.5" y="762.8457">+findAttemptsByNotificationId(id)</text></g><!--class OutboxPublisher--><g class="entity" data-entity="OutboxPublisher" data-source-line="117" data-uid="ent0025" id="entity_OutboxPublisher"><rect fill="#FFFFFF" height="111.5313" rx="2.5" ry="2.5" style="stroke:#1168BD;stroke-width:0.5;" width="222.5195" x="1158.5" y="81.6094"/><ellipse cx="1213.7583" cy="102.9609" fill="#ADD1B2" rx="11" ry="11" style="stroke:#181818;stroke-width:1;"/><path d="M1216.5239,98.8359 Q1216.6802,98.6172 1216.8677,98.5078 Q1217.0552,98.3984 1217.2739,98.3984 Q1217.6489,98.3984 1217.8833,98.6641 Q1218.1177,98.9141 1218.1177,99.5234 L1218.1177,100.9766 Q1218.1177,101.5859 1217.8833,101.8516 Q1217.6489,102.1172 1217.2739,102.1172 Q1216.9302,102.1172 1216.7271,101.9141 Q1216.5239,101.7266 1216.4146,101.2109 Q1216.3677,100.8516 1216.1802,100.6641 Q1215.8521,100.2891 1215.2427,100.0703 Q1214.6333,99.8516 1214.0083,99.8516 Q1213.2427,99.8516 1212.6021,100.1797 Q1211.9771,100.5078 1211.4771,101.2578 Q1210.9927,102.0078 1210.9927,103.0391 L1210.9927,104.1328 Q1210.9927,105.3672 1211.8833,106.1953 Q1212.7739,107.0078 1214.3677,107.0078 Q1215.3052,107.0078 1215.9614,106.7578 Q1216.3521,106.6016 1216.7739,106.1641 Q1217.0396,105.8984 1217.1802,105.8203 Q1217.3364,105.7422 1217.5396,105.7422 Q1217.8677,105.7422 1218.1177,106.0078 Q1218.3833,106.2578 1218.3833,106.6016 Q1218.3833,106.9453 1218.0396,107.3516 Q1217.5396,107.9297 1216.7427,108.2578 Q1215.6646,108.7109 1214.3677,108.7109 Q1212.8521,108.7109 1211.6489,108.0859 Q1210.6646,107.5859 1209.9771,106.5234 Q1209.2896,105.4453 1209.2896,104.1641 L1209.2896,103.0078 Q1209.2896,101.6797 1209.8989,100.5391 Q1210.5239,99.3828 1211.6177,98.7734 Q1212.7114,98.1484 1213.9458,98.1484 Q1214.6802,98.1484 1215.3208,98.3203 Q1215.9771,98.4766 1216.5239,98.8359 Z " fill="#000000"/><text fill="#000000" font-family="sans-serif" font-size="12" font-style="italic" lengthAdjust="spacing" textLength="52.7051" x="1259.6572" y="99.0664">&#171;module&#187;</text><text fill="#1A1A1A" font-family="sans-serif" font-size="14" lengthAdjust="spacing" textLength="103.5029" x="1234.2583" y="116.2363">OutboxPublisher</text><line style="stroke:#1168BD;stroke-width:0.5;" x1="1159.5" x2="1380.0195" y1="124.3125" y2="124.3125"/><line style="stroke:#1168BD;stroke-width:0.5;" x1="1159.5" x2="1380.0195" y1="132.3125" y2="132.3125"/><text fill="#000000" font-family="sans-serif" font-size="14" lengthAdjust="spacing" textLength="210.5195" x="1164.5" y="150.8457">+publishNextOutboxEvent(queue)</text><text fill="#000000" font-family="sans-serif" font-size="14" lengthAdjust="spacing" textLength="181.7334" x="1164.5" y="168.4551">+publishOutboxBatch(queue)</text><text fill="#000000" font-family="sans-serif" font-size="14" lengthAdjust="spacing" textLength="187.1611" x="1164.5" y="186.0645">+startOutboxPublisher(queue)</text></g><!--class OutboxRepository--><g class="entity" data-entity="OutboxRepository" data-source-line="123" data-uid="ent0026" id="entity_OutboxRepository"><rect fill="#FFFFFF" height="111.5313" rx="2.5" ry="2.5" style="stroke:#1168BD;stroke-width:0.5;" width="360.9746" x="920.5" y="262.1094"/><ellipse cx="1040.71" cy="283.4609" fill="#ADD1B2" rx="11" ry="11" style="stroke:#181818;stroke-width:1;"/><path d="M1043.4756,279.3359 Q1043.6318,279.1172 1043.8193,279.0078 Q1044.0068,278.8984 1044.2256,278.8984 Q1044.6006,278.8984 1044.835,279.1641 Q1045.0693,279.4141 1045.0693,280.0234 L1045.0693,281.4766 Q1045.0693,282.0859 1044.835,282.3516 Q1044.6006,282.6172 1044.2256,282.6172 Q1043.8818,282.6172 1043.6787,282.4141 Q1043.4756,282.2266 1043.3662,281.7109 Q1043.3193,281.3516 1043.1318,281.1641 Q1042.8037,280.7891 1042.1943,280.5703 Q1041.585,280.3516 1040.96,280.3516 Q1040.1943,280.3516 1039.5537,280.6797 Q1038.9287,281.0078 1038.4287,281.7578 Q1037.9443,282.5078 1037.9443,283.5391 L1037.9443,284.6328 Q1037.9443,285.8672 1038.835,286.6953 Q1039.7256,287.5078 1041.3193,287.5078 Q1042.2568,287.5078 1042.9131,287.2578 Q1043.3037,287.1016 1043.7256,286.6641 Q1043.9912,286.3984 1044.1318,286.3203 Q1044.2881,286.2422 1044.4912,286.2422 Q1044.8193,286.2422 1045.0693,286.5078 Q1045.335,286.7578 1045.335,287.1016 Q1045.335,287.4453 1044.9912,287.8516 Q1044.4912,288.4297 1043.6943,288.7578 Q1042.6162,289.2109 1041.3193,289.2109 Q1039.8037,289.2109 1038.6006,288.5859 Q1037.6162,288.0859 1036.9287,287.0234 Q1036.2412,285.9453 1036.2412,284.6641 L1036.2412,283.5078 Q1036.2412,282.1797 1036.8506,281.0391 Q1037.4756,279.8828 1038.5693,279.2734 Q1039.6631,278.6484 1040.8975,278.6484 Q1041.6318,278.6484 1042.2725,278.8203 Q1042.9287,278.9766 1043.4756,279.3359 Z " fill="#000000"/><text fill="#000000" font-family="sans-serif" font-size="12" font-style="italic" lengthAdjust="spacing" textLength="52.7051" x="1090.8848" y="279.5664">&#171;module&#187;</text><text fill="#1A1A1A" font-family="sans-serif" font-size="14" lengthAdjust="spacing" textLength="112.0547" x="1061.21" y="296.7363">OutboxRepository</text><line style="stroke:#1168BD;stroke-width:0.5;" x1="921.5" x2="1280.4746" y1="304.8125" y2="304.8125"/><line style="stroke:#1168BD;stroke-width:0.5;" x1="921.5" x2="1280.4746" y1="312.8125" y2="312.8125"/><text fill="#000000" font-family="sans-serif" font-size="14" lengthAdjust="spacing" textLength="184.8027" x="926.5" y="331.3457">+lockNextOutboxEvent(client)</text><text fill="#000000" font-family="sans-serif" font-size="14" lengthAdjust="spacing" textLength="206.5957" x="926.5" y="348.9551">+markOutboxPublished(client, id)</text><text fill="#000000" font-family="sans-serif" font-size="14" lengthAdjust="spacing" textLength="348.9746" x="926.5" y="366.5645">+markOutboxPublicationFailed(client, id, error, delayMs)</text></g><!--class NotificationQueue--><g class="entity" data-entity="NotificationQueue" data-source-line="129" data-uid="ent0027" id="entity_NotificationQueue"><rect fill="#FFFFFF" height="129.1406" rx="2.5" ry="2.5" style="stroke:#1168BD;stroke-width:0.5;" width="247.416" x="1316.5" y="253.6094"/><ellipse cx="1380.3135" cy="274.9609" fill="#ADD1B2" rx="11" ry="11" style="stroke:#181818;stroke-width:1;"/><path d="M1383.0791,270.8359 Q1383.2354,270.6172 1383.4229,270.5078 Q1383.6104,270.3984 1383.8291,270.3984 Q1384.2041,270.3984 1384.4385,270.6641 Q1384.6729,270.9141 1384.6729,271.5234 L1384.6729,272.9766 Q1384.6729,273.5859 1384.4385,273.8516 Q1384.2041,274.1172 1383.8291,274.1172 Q1383.4854,274.1172 1383.2822,273.9141 Q1383.0791,273.7266 1382.9697,273.2109 Q1382.9229,272.8516 1382.7354,272.6641 Q1382.4072,272.2891 1381.7979,272.0703 Q1381.1885,271.8516 1380.5635,271.8516 Q1379.7979,271.8516 1379.1572,272.1797 Q1378.5322,272.5078 1378.0322,273.2578 Q1377.5479,274.0078 1377.5479,275.0391 L1377.5479,276.1328 Q1377.5479,277.3672 1378.4385,278.1953 Q1379.3291,279.0078 1380.9229,279.0078 Q1381.8604,279.0078 1382.5166,278.7578 Q1382.9072,278.6016 1383.3291,278.1641 Q1383.5947,277.8984 1383.7354,277.8203 Q1383.8916,277.7422 1384.0947,277.7422 Q1384.4229,277.7422 1384.6729,278.0078 Q1384.9385,278.2578 1384.9385,278.6016 Q1384.9385,278.9453 1384.5947,279.3516 Q1384.0947,279.9297 1383.2979,280.2578 Q1382.2197,280.7109 1380.9229,280.7109 Q1379.4072,280.7109 1378.2041,280.0859 Q1377.2197,279.5859 1376.5322,278.5234 Q1375.8447,277.4453 1375.8447,276.1641 L1375.8447,275.0078 Q1375.8447,273.6797 1376.4541,272.5391 Q1377.0791,271.3828 1378.1729,270.7734 Q1379.2666,270.1484 1380.501,270.1484 Q1381.2354,270.1484 1381.876,270.3203 Q1382.5322,270.4766 1383.0791,270.8359 Z " fill="#000000"/><text fill="#000000" font-family="sans-serif" font-size="12" font-style="italic" lengthAdjust="spacing" textLength="92.0508" x="1410.4326" y="271.0664">&#171;BullMQ Queue&#187;</text><text fill="#1A1A1A" font-family="sans-serif" font-size="14" lengthAdjust="spacing" textLength="111.2891" x="1400.8135" y="288.2363">NotificationQueue</text><line style="stroke:#1168BD;stroke-width:0.5;" x1="1317.5" x2="1562.916" y1="296.3125" y2="296.3125"/><text fill="#000000" font-family="sans-serif" font-size="14" lengthAdjust="spacing" textLength="161.335" x="1322.5" y="314.8457">jobId = "outbox-{event.id}"</text><text fill="#000000" font-family="sans-serif" font-size="14" lengthAdjust="spacing" textLength="175.1094" x="1322.5" y="332.4551">backoff = exponential + jitter</text><line style="stroke:#1168BD;stroke-width:0.5;" x1="1317.5" x2="1562.916" y1="339.5313" y2="339.5313"/><text fill="#000000" font-family="sans-serif" font-size="14" lengthAdjust="spacing" textLength="235.416" x="1322.5" y="358.0645">+createNotificationQueue(connection)</text><text fill="#000000" font-family="sans-serif" font-size="14" lengthAdjust="spacing" textLength="233.8984" x="1322.5" y="375.6738">+enqueueOutboxEvent(queue, event)</text></g><!--class NotificationWorker--><g class="entity" data-entity="NotificationWorker" data-source-line="136" data-uid="ent0028" id="entity_NotificationWorker"><rect fill="#FFFFFF" height="129.1406" rx="2.5" ry="2.5" style="stroke:#1168BD;stroke-width:0.5;" width="269.9609" x="1305" y="451.6094"/><ellipse cx="1370.7139" cy="472.9609" fill="#ADD1B2" rx="11" ry="11" style="stroke:#181818;stroke-width:1;"/><path d="M1373.4795,468.8359 Q1373.6357,468.6172 1373.8232,468.5078 Q1374.0107,468.3984 1374.2295,468.3984 Q1374.6045,468.3984 1374.8389,468.6641 Q1375.0732,468.9141 1375.0732,469.5234 L1375.0732,470.9766 Q1375.0732,471.5859 1374.8389,471.8516 Q1374.6045,472.1172 1374.2295,472.1172 Q1373.8857,472.1172 1373.6826,471.9141 Q1373.4795,471.7266 1373.3701,471.2109 Q1373.3232,470.8516 1373.1357,470.6641 Q1372.8076,470.2891 1372.1982,470.0703 Q1371.5889,469.8516 1370.9639,469.8516 Q1370.1982,469.8516 1369.5576,470.1797 Q1368.9326,470.5078 1368.4326,471.2578 Q1367.9482,472.0078 1367.9482,473.0391 L1367.9482,474.1328 Q1367.9482,475.3672 1368.8389,476.1953 Q1369.7295,477.0078 1371.3232,477.0078 Q1372.2607,477.0078 1372.917,476.7578 Q1373.3076,476.6016 1373.7295,476.1641 Q1373.9951,475.8984 1374.1357,475.8203 Q1374.292,475.7422 1374.4951,475.7422 Q1374.8232,475.7422 1375.0732,476.0078 Q1375.3389,476.2578 1375.3389,476.6016 Q1375.3389,476.9453 1374.9951,477.3516 Q1374.4951,477.9297 1373.6982,478.2578 Q1372.6201,478.7109 1371.3232,478.7109 Q1369.8076,478.7109 1368.6045,478.0859 Q1367.6201,477.5859 1366.9326,476.5234 Q1366.2451,475.4453 1366.2451,474.1641 L1366.2451,473.0078 Q1366.2451,471.6797 1366.8545,470.5391 Q1367.4795,469.3828 1368.5732,468.7734 Q1369.667,468.1484 1370.9014,468.1484 Q1371.6357,468.1484 1372.2764,468.3203 Q1372.9326,468.4766 1373.4795,468.8359 Z " fill="#000000"/><text fill="#000000" font-family="sans-serif" font-size="12" font-style="italic" lengthAdjust="spacing" textLength="134.0332" x="1389.2139" y="469.0664">&#171;BullMQ Worker factory&#187;</text><text fill="#1A1A1A" font-family="sans-serif" font-size="14" lengthAdjust="spacing" textLength="114.3652" x="1399.0479" y="486.2363">NotificationWorker</text><line style="stroke:#1168BD;stroke-width:0.5;" x1="1306" x2="1573.9609" y1="494.3125" y2="494.3125"/><text fill="#000000" font-family="sans-serif" font-size="14" lengthAdjust="spacing" textLength="135.0166" x="1311" y="512.8457">+concurrency: integer</text><text fill="#000000" font-family="sans-serif" font-size="14" lengthAdjust="spacing" textLength="149.7822" x="1311" y="530.4551">+limiter: integer / minute</text><line style="stroke:#1168BD;stroke-width:0.5;" x1="1306" x2="1573.9609" y1="537.5313" y2="537.5313"/><text fill="#000000" font-family="sans-serif" font-size="14" lengthAdjust="spacing" textLength="257.9609" x="1311" y="556.0645">+createNotificationWorker(dependencies)</text><text fill="#000000" font-family="sans-serif" font-size="14" lengthAdjust="spacing" textLength="107.5156" x="1311" y="573.6738">+on(failed | error)</text></g><!--class NotificationProcessor--><g class="entity" data-entity="NotificationProcessor" data-source-line="143" data-uid="ent0029" id="entity_NotificationProcessor"><rect fill="#FFFFFF" height="93.9219" rx="2.5" ry="2.5" style="stroke:#1168BD;stroke-width:0.5;" width="287.8711" x="1296" y="684.6094"/><ellipse cx="1369.5479" cy="705.9609" fill="#ADD1B2" rx="11" ry="11" style="stroke:#181818;stroke-width:1;"/><path d="M1372.3135,701.8359 Q1372.4697,701.6172 1372.6572,701.5078 Q1372.8447,701.3984 1373.0635,701.3984 Q1373.4385,701.3984 1373.6729,701.6641 Q1373.9072,701.9141 1373.9072,702.5234 L1373.9072,703.9766 Q1373.9072,704.5859 1373.6729,704.8516 Q1373.4385,705.1172 1373.0635,705.1172 Q1372.7197,705.1172 1372.5166,704.9141 Q1372.3135,704.7266 1372.2041,704.2109 Q1372.1572,703.8516 1371.9697,703.6641 Q1371.6416,703.2891 1371.0322,703.0703 Q1370.4229,702.8516 1369.7979,702.8516 Q1369.0322,702.8516 1368.3916,703.1797 Q1367.7666,703.5078 1367.2666,704.2578 Q1366.7822,705.0078 1366.7822,706.0391 L1366.7822,707.1328 Q1366.7822,708.3672 1367.6729,709.1953 Q1368.5635,710.0078 1370.1572,710.0078 Q1371.0947,710.0078 1371.751,709.7578 Q1372.1416,709.6016 1372.5635,709.1641 Q1372.8291,708.8984 1372.9697,708.8203 Q1373.126,708.7422 1373.3291,708.7422 Q1373.6572,708.7422 1373.9072,709.0078 Q1374.1729,709.2578 1374.1729,709.6016 Q1374.1729,709.9453 1373.8291,710.3516 Q1373.3291,710.9297 1372.5322,711.2578 Q1371.4541,711.7109 1370.1572,711.7109 Q1368.6416,711.7109 1367.4385,711.0859 Q1366.4541,710.5859 1365.7666,709.5234 Q1365.0791,708.4453 1365.0791,707.1641 L1365.0791,706.0078 Q1365.0791,704.6797 1365.6885,703.5391 Q1366.3135,702.3828 1367.4072,701.7734 Q1368.501,701.1484 1369.7354,701.1484 Q1370.4697,701.1484 1371.1104,701.3203 Q1371.7666,701.4766 1372.3135,701.8359 Z " fill="#000000"/><text fill="#000000" font-family="sans-serif" font-size="12" font-style="italic" lengthAdjust="spacing" textLength="124.7285" x="1393.8213" y="702.0664">&#171;job processor factory&#187;</text><text fill="#1A1A1A" font-family="sans-serif" font-size="14" lengthAdjust="spacing" textLength="132.2754" x="1390.0479" y="719.2363">NotificationProcessor</text><line style="stroke:#1168BD;stroke-width:0.5;" x1="1297" x2="1582.8711" y1="727.3125" y2="727.3125"/><line style="stroke:#1168BD;stroke-width:0.5;" x1="1297" x2="1582.8711" y1="735.3125" y2="735.3125"/><text fill="#000000" font-family="sans-serif" font-size="14" lengthAdjust="spacing" textLength="275.8711" x="1302" y="753.8457">+createNotificationProcessor(dependencies)</text><text fill="#000000" font-family="sans-serif" font-size="14" lengthAdjust="spacing" textLength="85.2031" x="1302" y="771.4551">+process(job)</text></g><!--class DeliveryRepository--><g class="entity" data-entity="DeliveryRepository" data-source-line="148" data-uid="ent0030" id="entity_DeliveryRepository"><rect fill="#FFFFFF" height="146.75" rx="2.5" ry="2.5" style="stroke:#1168BD;stroke-width:0.5;" width="244.251" x="1460" y="901.6094"/><ellipse cx="1519.1343" cy="922.9609" fill="#ADD1B2" rx="11" ry="11" style="stroke:#181818;stroke-width:1;"/><path d="M1521.8999,918.8359 Q1522.0562,918.6172 1522.2437,918.5078 Q1522.4312,918.3984 1522.6499,918.3984 Q1523.0249,918.3984 1523.2593,918.6641 Q1523.4937,918.9141 1523.4937,919.5234 L1523.4937,920.9766 Q1523.4937,921.5859 1523.2593,921.8516 Q1523.0249,922.1172 1522.6499,922.1172 Q1522.3062,922.1172 1522.103,921.9141 Q1521.8999,921.7266 1521.7905,921.2109 Q1521.7437,920.8516 1521.5562,920.6641 Q1521.228,920.2891 1520.6187,920.0703 Q1520.0093,919.8516 1519.3843,919.8516 Q1518.6187,919.8516 1517.978,920.1797 Q1517.353,920.5078 1516.853,921.2578 Q1516.3687,922.0078 1516.3687,923.0391 L1516.3687,924.1328 Q1516.3687,925.3672 1517.2593,926.1953 Q1518.1499,927.0078 1519.7437,927.0078 Q1520.6812,927.0078 1521.3374,926.7578 Q1521.728,926.6016 1522.1499,926.1641 Q1522.4155,925.8984 1522.5562,925.8203 Q1522.7124,925.7422 1522.9155,925.7422 Q1523.2437,925.7422 1523.4937,926.0078 Q1523.7593,926.2578 1523.7593,926.6016 Q1523.7593,926.9453 1523.4155,927.3516 Q1522.9155,927.9297 1522.1187,928.2578 Q1521.0405,928.7109 1519.7437,928.7109 Q1518.228,928.7109 1517.0249,928.0859 Q1516.0405,927.5859 1515.353,926.5234 Q1514.6655,925.4453 1514.6655,924.1641 L1514.6655,923.0078 Q1514.6655,921.6797 1515.2749,920.5391 Q1515.8999,919.3828 1516.9937,918.7734 Q1518.0874,918.1484 1519.3218,918.1484 Q1520.0562,918.1484 1520.6968,918.3203 Q1521.353,918.4766 1521.8999,918.8359 Z " fill="#000000"/><text fill="#000000" font-family="sans-serif" font-size="12" font-style="italic" lengthAdjust="spacing" textLength="52.7051" x="1572.0229" y="919.0664">&#171;module&#187;</text><text fill="#1A1A1A" font-family="sans-serif" font-size="14" lengthAdjust="spacing" textLength="117.4824" x="1539.6343" y="936.2363">DeliveryRepository</text><line style="stroke:#1168BD;stroke-width:0.5;" x1="1461" x2="1703.251" y1="944.3125" y2="944.3125"/><line style="stroke:#1168BD;stroke-width:0.5;" x1="1461" x2="1703.251" y1="952.3125" y2="952.3125"/><text fill="#000000" font-family="sans-serif" font-size="14" lengthAdjust="spacing" textLength="213.6025" x="1466" y="970.8457">+acquireNotificationLock(client, id)</text><text fill="#000000" font-family="sans-serif" font-size="14" lengthAdjust="spacing" textLength="213.6025" x="1466" y="988.4551">+releaseNotificationLock(client, id)</text><text fill="#000000" font-family="sans-serif" font-size="14" lengthAdjust="spacing" textLength="232.251" x="1466" y="1006.0645">+findNotificationForDelivery(client, id)</text><text fill="#000000" font-family="sans-serif" font-size="14" lengthAdjust="spacing" textLength="230.6855" x="1466" y="1023.6738">+recordDeliveryAttempt(client, result)</text><text fill="#000000" font-family="sans-serif" font-size="14" lengthAdjust="spacing" textLength="207.3545" x="1466" y="1041.2832">+markNotificationFailed(client, id)</text></g><!--class TemplateRenderer--><g class="entity" data-entity="TemplateRenderer" data-source-line="156" data-uid="ent0031" id="entity_TemplateRenderer"><rect fill="#FFFFFF" height="76.3125" rx="2.5" ry="2.5" style="stroke:#1168BD;stroke-width:0.5;" width="238.0576" x="1739" y="937.1094"/><ellipse cx="1795.417" cy="958.4609" fill="#ADD1B2" rx="11" ry="11" style="stroke:#181818;stroke-width:1;"/><path d="M1798.1826,954.3359 Q1798.3389,954.1172 1798.5264,954.0078 Q1798.7139,953.8984 1798.9326,953.8984 Q1799.3076,953.8984 1799.542,954.1641 Q1799.7764,954.4141 1799.7764,955.0234 L1799.7764,956.4766 Q1799.7764,957.0859 1799.542,957.3516 Q1799.3076,957.6172 1798.9326,957.6172 Q1798.5889,957.6172 1798.3857,957.4141 Q1798.1826,957.2266 1798.0732,956.7109 Q1798.0264,956.3516 1797.8389,956.1641 Q1797.5107,955.7891 1796.9014,955.5703 Q1796.292,955.3516 1795.667,955.3516 Q1794.9014,955.3516 1794.2607,955.6797 Q1793.6357,956.0078 1793.1357,956.7578 Q1792.6514,957.5078 1792.6514,958.5391 L1792.6514,959.6328 Q1792.6514,960.8672 1793.542,961.6953 Q1794.4326,962.5078 1796.0264,962.5078 Q1796.9639,962.5078 1797.6201,962.2578 Q1798.0107,962.1016 1798.4326,961.6641 Q1798.6982,961.3984 1798.8389,961.3203 Q1798.9951,961.2422 1799.1982,961.2422 Q1799.5264,961.2422 1799.7764,961.5078 Q1800.042,961.7578 1800.042,962.1016 Q1800.042,962.4453 1799.6982,962.8516 Q1799.1982,963.4297 1798.4014,963.7578 Q1797.3232,964.2109 1796.0264,964.2109 Q1794.5107,964.2109 1793.3076,963.5859 Q1792.3232,963.0859 1791.6357,962.0234 Q1790.9482,960.9453 1790.9482,959.6641 L1790.9482,958.5078 Q1790.9482,957.1797 1791.5576,956.0391 Q1792.1826,954.8828 1793.2764,954.2734 Q1794.3701,953.6484 1795.6045,953.6484 Q1796.3389,953.6484 1796.9795,953.8203 Q1797.6357,953.9766 1798.1826,954.3359 Z " fill="#000000"/><text fill="#000000" font-family="sans-serif" font-size="12" font-style="italic" lengthAdjust="spacing" textLength="52.7051" x="1847.9263" y="954.5664">&#171;module&#187;</text><text fill="#1A1A1A" font-family="sans-serif" font-size="14" lengthAdjust="spacing" textLength="116.7236" x="1815.917" y="971.7363">TemplateRenderer</text><line style="stroke:#1168BD;stroke-width:0.5;" x1="1740" x2="1976.0576" y1="979.8125" y2="979.8125"/><line style="stroke:#1168BD;stroke-width:0.5;" x1="1740" x2="1976.0576" y1="987.8125" y2="987.8125"/><text fill="#000000" font-family="sans-serif" font-size="14" lengthAdjust="spacing" textLength="226.0576" x="1745" y="1006.3457">+renderTemplate(content, variables)</text></g><!--class EmailSender--><g class="entity" data-entity="EmailSender" data-source-line="160" data-uid="ent0032" id="entity_EmailSender"><rect fill="#FFFFFF" height="93.9219" rx="2.5" ry="2.5" style="stroke:#1168BD;stroke-width:0.5;" width="290.1816" x="920" y="928.1094"/><ellipse cx="1020.7651" cy="949.4609" fill="#ADD1B2" rx="11" ry="11" style="stroke:#181818;stroke-width:1;"/><path d="M1023.5308,945.3359 Q1023.687,945.1172 1023.8745,945.0078 Q1024.062,944.8984 1024.2808,944.8984 Q1024.6558,944.8984 1024.8901,945.1641 Q1025.1245,945.4141 1025.1245,946.0234 L1025.1245,947.4766 Q1025.1245,948.0859 1024.8901,948.3516 Q1024.6558,948.6172 1024.2808,948.6172 Q1023.937,948.6172 1023.7339,948.4141 Q1023.5308,948.2266 1023.4214,947.7109 Q1023.3745,947.3516 1023.187,947.1641 Q1022.8589,946.7891 1022.2495,946.5703 Q1021.6401,946.3516 1021.0151,946.3516 Q1020.2495,946.3516 1019.6089,946.6797 Q1018.9839,947.0078 1018.4839,947.7578 Q1017.9995,948.5078 1017.9995,949.5391 L1017.9995,950.6328 Q1017.9995,951.8672 1018.8901,952.6953 Q1019.7808,953.5078 1021.3745,953.5078 Q1022.312,953.5078 1022.9683,953.2578 Q1023.3589,953.1016 1023.7808,952.6641 Q1024.0464,952.3984 1024.187,952.3203 Q1024.3433,952.2422 1024.5464,952.2422 Q1024.8745,952.2422 1025.1245,952.5078 Q1025.3901,952.7578 1025.3901,953.1016 Q1025.3901,953.4453 1025.0464,953.8516 Q1024.5464,954.4297 1023.7495,954.7578 Q1022.6714,955.2109 1021.3745,955.2109 Q1019.8589,955.2109 1018.6558,954.5859 Q1017.6714,954.0859 1016.9839,953.0234 Q1016.2964,951.9453 1016.2964,950.6641 L1016.2964,949.5078 Q1016.2964,948.1797 1016.9058,947.0391 Q1017.5308,945.8828 1018.6245,945.2734 Q1019.7183,944.6484 1020.9526,944.6484 Q1021.687,944.6484 1022.3276,944.8203 Q1022.9839,944.9766 1023.5308,945.3359 Z " fill="#000000"/><text fill="#000000" font-family="sans-serif" font-size="12" font-style="italic" lengthAdjust="spacing" textLength="74.707" x="1043.9873" y="945.5664">&#171;Nodemailer&#187;</text><text fill="#1A1A1A" font-family="sans-serif" font-size="14" lengthAdjust="spacing" textLength="80.1514" x="1041.2651" y="962.7363">EmailSender</text><line style="stroke:#1168BD;stroke-width:0.5;" x1="921" x2="1209.1816" y1="970.8125" y2="970.8125"/><line style="stroke:#1168BD;stroke-width:0.5;" x1="921" x2="1209.1816" y1="978.8125" y2="978.8125"/><text fill="#000000" font-family="sans-serif" font-size="14" lengthAdjust="spacing" textLength="173.9199" x="926" y="997.3457">+createEmailSender(config)</text><text fill="#000000" font-family="sans-serif" font-size="14" lengthAdjust="spacing" textLength="278.1816" x="926" y="1014.9551">+deterministicMessageId(notificationId, user)</text></g><!--class SmsSender--><g class="entity" data-entity="SmsSender" data-source-line="165" data-uid="ent0033" id="entity_SmsSender"><rect fill="#FFFFFF" height="76.3125" rx="2.5" ry="2.5" style="stroke:#1168BD;stroke-width:0.5;" width="178.9131" x="1245.5" y="937.1094"/><ellipse cx="1293.0298" cy="958.4609" fill="#ADD1B2" rx="11" ry="11" style="stroke:#181818;stroke-width:1;"/><path d="M1295.7954,954.3359 Q1295.9517,954.1172 1296.1392,954.0078 Q1296.3267,953.8984 1296.5454,953.8984 Q1296.9204,953.8984 1297.1548,954.1641 Q1297.3892,954.4141 1297.3892,955.0234 L1297.3892,956.4766 Q1297.3892,957.0859 1297.1548,957.3516 Q1296.9204,957.6172 1296.5454,957.6172 Q1296.2017,957.6172 1295.9985,957.4141 Q1295.7954,957.2266 1295.686,956.7109 Q1295.6392,956.3516 1295.4517,956.1641 Q1295.1235,955.7891 1294.5142,955.5703 Q1293.9048,955.3516 1293.2798,955.3516 Q1292.5142,955.3516 1291.8735,955.6797 Q1291.2485,956.0078 1290.7485,956.7578 Q1290.2642,957.5078 1290.2642,958.5391 L1290.2642,959.6328 Q1290.2642,960.8672 1291.1548,961.6953 Q1292.0454,962.5078 1293.6392,962.5078 Q1294.5767,962.5078 1295.2329,962.2578 Q1295.6235,962.1016 1296.0454,961.6641 Q1296.311,961.3984 1296.4517,961.3203 Q1296.6079,961.2422 1296.811,961.2422 Q1297.1392,961.2422 1297.3892,961.5078 Q1297.6548,961.7578 1297.6548,962.1016 Q1297.6548,962.4453 1297.311,962.8516 Q1296.811,963.4297 1296.0142,963.7578 Q1294.936,964.2109 1293.6392,964.2109 Q1292.1235,964.2109 1290.9204,963.5859 Q1289.936,963.0859 1289.2485,962.0234 Q1288.561,960.9453 1288.561,959.6641 L1288.561,958.5078 Q1288.561,957.1797 1289.1704,956.0391 Q1289.7954,954.8828 1290.8892,954.2734 Q1291.9829,953.6484 1293.2173,953.6484 Q1293.9517,953.6484 1294.5923,953.8203 Q1295.2485,953.9766 1295.7954,954.3359 Z " fill="#000000"/><text fill="#000000" font-family="sans-serif" font-size="12" font-style="italic" lengthAdjust="spacing" textLength="79.3535" x="1311.5298" y="954.5664">&#171;Twilio REST&#187;</text><text fill="#1A1A1A" font-family="sans-serif" font-size="14" lengthAdjust="spacing" textLength="73.1445" x="1314.6343" y="971.7363">SmsSender</text><line style="stroke:#1168BD;stroke-width:0.5;" x1="1246.5" x2="1423.4131" y1="979.8125" y2="979.8125"/><line style="stroke:#1168BD;stroke-width:0.5;" x1="1246.5" x2="1423.4131" y1="987.8125" y2="987.8125"/><text fill="#000000" font-family="sans-serif" font-size="14" lengthAdjust="spacing" textLength="166.9131" x="1251.5" y="1006.3457">+createSmsSender(config)</text></g><!--reverse link Plantilla to Notificacion--><g class="link" data-entity-1="Plantilla" data-entity-2="Notificacion" data-source-line="67" data-uid="lnk7" id="link_Plantilla_Notificacion"><path codeLine="67" d="M631,1066.8494 C631,1085.8694 631,1100.3094 631,1120.2094" fill="none" id="Plantilla-backto-Notificacion" style="stroke:#1168BD;stroke-width:1;"/><polygon fill="#1168BD" points="631,1060.8494,627,1069.8494,631,1065.8494,635,1069.8494,631,1060.8494" style="stroke:#1168BD;stroke-width:1;"/><text fill="#000000" font-family="sans-serif" font-size="13" lengthAdjust="spacing" textLength="7.23" x="623.6983" y="1082.404">1</text><text fill="#000000" font-family="sans-serif" font-size="13" lengthAdjust="spacing" textLength="19.5127" x="608.7552" y="1109.6238">0..*</text></g><!--reverse link Notificacion to Intento--><g class="link" data-entity-1="Notificacion" data-entity-2="Intento" data-source-line="68" data-uid="lnk8" id="link_Notificacion_Intento"><path codeLine="68" d="M749.67,1356.8594 C749.67,1382.7494 749.67,1397.7194 749.67,1421.7394" fill="none" id="Notificacion-backto-Intento" style="stroke:#1168BD;stroke-width:1;"/><polygon fill="#1168BD" points="749.67,1344.8594,745.67,1350.8594,749.67,1356.8594,753.67,1350.8594,749.67,1344.8594" style="stroke:#1168BD;stroke-width:1;"/><text fill="#000000" font-family="sans-serif" font-size="13" lengthAdjust="spacing" textLength="7.23" x="747.5537" y="1366.0663">1</text><text fill="#000000" font-family="sans-serif" font-size="13" lengthAdjust="spacing" textLength="19.5127" x="731.6852" y="1411.1308">0..*</text></g><!--reverse link Notificacion to OutboxEvent--><g class="link" data-entity-1="Notificacion" data-entity-2="OutboxEvent" data-source-line="69" data-uid="lnk9" id="link_Notificacion_OutboxEvent"><path codeLine="69" d="M556,1356.8594 C556,1376.6294 556,1385.0394 556,1404.2694" fill="none" id="Notificacion-backto-OutboxEvent" style="stroke:#1168BD;stroke-width:1;"/><polygon fill="#1168BD" points="556,1344.8594,552,1350.8594,556,1356.8594,560,1350.8594,556,1344.8594" style="stroke:#1168BD;stroke-width:1;"/><text fill="#000000" font-family="sans-serif" font-size="13" lengthAdjust="spacing" textLength="7.23" x="541.4767" y="1366.0663">1</text><text fill="#000000" font-family="sans-serif" font-size="13" lengthAdjust="spacing" textLength="19.5127" x="541.0251" y="1393.909">0..*</text></g><!--link NotificationService to NotificationRepository--><g class="link" data-entity-1="NotificationService" data-entity-2="NotificationRepository" data-source-line="107" data-uid="lnk16" id="link_NotificationService_NotificationRepository"><path codeLine="107" d="M255,589.6694 C255,608.9394 255,623.8294 255,643.5094" fill="none" id="NotificationService-to-NotificationRepository" style="stroke:#1168BD;stroke-width:1;"/><polygon fill="#1168BD" points="255,649.5094,259,640.5094,255,644.5094,251,640.5094,255,649.5094" style="stroke:#1168BD;stroke-width:1;"/></g><!--link NotificationService to TemplateRepository--><g class="link" data-entity-1="NotificationService" data-entity-2="TemplateRepository" data-source-line="108" data-uid="lnk17" id="link_NotificationService_TemplateRepository"><path codeLine="108" d="M472.17,589.6994 C472.17,633.4994 472.17,680.6094 472.17,680.6094 C472.17,680.6094 537.6,680.6094 602.33,680.6094" fill="none" id="NotificationService-to-TemplateRepository" style="stroke:#1168BD;stroke-width:1;"/><polygon fill="#1168BD" points="608.33,680.6094,599.33,676.6094,603.33,680.6094,599.33,684.6094,608.33,680.6094" style="stroke:#1168BD;stroke-width:1;"/></g><!--link NotificationService to AttemptRepository--><g class="link" data-entity-1="NotificationService" data-entity-2="AttemptRepository" data-source-line="109" data-uid="lnk18" id="link_NotificationService_AttemptRepository"><path codeLine="109" d="M415.33,589.6694 C415.33,624.5394 415.33,658.7394 415.33,687.4394" fill="none" id="NotificationService-to-AttemptRepository" style="stroke:#1168BD;stroke-width:1;"/><polygon fill="#1168BD" points="415.33,693.4394,419.33,684.4394,415.33,688.4394,411.33,684.4394,415.33,693.4394" style="stroke:#1168BD;stroke-width:1;"/></g><!--link TemplateService to TemplateRepository--><g class="link" data-entity-1="TemplateService" data-entity-2="TemplateRepository" data-source-line="110" data-uid="lnk19" id="link_TemplateService_TemplateRepository"><path codeLine="110" d="M711,572.1694 C711,601.2294 711,630.8594 711,661.0594" fill="none" id="TemplateService-to-TemplateRepository" style="stroke:#1168BD;stroke-width:1;"/><polygon fill="#1168BD" points="711,667.0594,715,658.0594,711,662.0594,707,658.0594,711,667.0594" style="stroke:#1168BD;stroke-width:1;"/></g><!--link NotificationRepository to Notificacion--><g class="link" data-entity-1="NotificationRepository" data-entity-2="Notificacion" data-source-line="111" data-uid="lnk20" id="link_NotificationRepository_Notificacion"><path codeLine="111" d="M323.05,802.6094 C423.25,802.6094 536.75,802.6094 536.75,802.6094 C536.75,802.6094 536.75,987.0694 536.75,1114.4694" fill="none" id="NotificationRepository-to-Notificacion" style="stroke:#1168BD;stroke-width:1;"/><polygon fill="#1168BD" points="536.75,1120.4694,540.75,1111.4694,536.75,1115.4694,532.75,1111.4694,536.75,1120.4694" style="stroke:#1168BD;stroke-width:1;"/></g><!--link NotificationRepository to OutboxEvent--><g class="link" data-entity-1="NotificationRepository" data-entity-2="OutboxEvent" data-source-line="112" data-uid="lnk21" id="link_NotificationRepository_OutboxEvent"><path codeLine="112" d="M323.19,808.6094 C385.41,808.6094 443.33,808.6094 443.33,808.6094 C443.33,808.6094 443.33,1209.4394 443.33,1398.5494" fill="none" id="NotificationRepository-to-OutboxEvent" style="stroke:#1168BD;stroke-width:1;"/><polygon fill="#1168BD" points="443.33,1404.5494,447.33,1395.5494,443.33,1399.5494,439.33,1395.5494,443.33,1404.5494" style="stroke:#1168BD;stroke-width:1;"/><text fill="#000000" font-family="sans-serif" font-size="13" lengthAdjust="spacing" textLength="108.3672" x="334.33" y="1043.0045">misma transacci&#243;n</text></g><!--link TemplateRepository to Plantilla--><g class="link" data-entity-1="TemplateRepository" data-entity-2="Plantilla" data-source-line="113" data-uid="lnk22" id="link_TemplateRepository_Plantilla"><path codeLine="113" d="M661.5,796.2194 C661.5,824.8294 661.5,852.8694 661.5,883.5394" fill="none" id="TemplateRepository-to-Plantilla" style="stroke:#1168BD;stroke-width:1;"/><polygon fill="#1168BD" points="661.5,889.5394,665.5,880.5394,661.5,884.5394,657.5,880.5394,661.5,889.5394" style="stroke:#1168BD;stroke-width:1;"/></g><!--link AttemptRepository to Intento--><g class="link" data-entity-1="AttemptRepository" data-entity-2="Intento" data-source-line="114" data-uid="lnk23" id="link_AttemptRepository_Intento"><path codeLine="114" d="M484.67,769.9094 C484.67,908.3294 484.67,1374.6094 484.67,1374.6094 C484.67,1374.6094 685.33,1374.6094 685.33,1374.6094 C685.33,1374.6094 685.33,1390.5594 685.33,1416.0294" fill="none" id="AttemptRepository-to-Intento" style="stroke:#1168BD;stroke-width:1;"/><polygon fill="#1168BD" points="685.33,1422.0294,689.33,1413.0294,685.33,1417.0294,681.33,1413.0294,685.33,1422.0294" style="stroke:#1168BD;stroke-width:1;"/></g><!--link OutboxPublisher to OutboxRepository--><g class="link" data-entity-1="OutboxPublisher" data-entity-2="OutboxRepository" data-source-line="170" data-uid="lnk34" id="link_OutboxPublisher_OutboxRepository"><path codeLine="170" d="M1220,193.7294 C1220,215.4594 1220,234.2894 1220,256.0194" fill="none" id="OutboxPublisher-to-OutboxRepository" style="stroke:#1168BD;stroke-width:1;"/><polygon fill="#1168BD" points="1220,262.0194,1224,253.0194,1220,257.0194,1216,253.0194,1220,262.0194" style="stroke:#1168BD;stroke-width:1;"/></g><!--link OutboxPublisher to NotificationQueue--><g class="link" data-entity-1="OutboxPublisher" data-entity-2="NotificationQueue" data-source-line="171" data-uid="lnk35" id="link_OutboxPublisher_NotificationQueue"><path codeLine="171" d="M1349,193.7294 C1349,212.6694 1349,227.9594 1349,247.4994" fill="none" id="OutboxPublisher-to-NotificationQueue" style="stroke:#1168BD;stroke-width:1;"/><polygon fill="#1168BD" points="1349,253.4994,1353,244.4994,1349,248.4994,1345,244.4994,1349,253.4994" style="stroke:#1168BD;stroke-width:1;"/></g><!--link OutboxRepository to OutboxEvent--><g class="link" data-entity-1="OutboxRepository" data-entity-2="OutboxEvent" data-source-line="172" data-uid="lnk36" id="link_OutboxRepository_OutboxEvent"><path codeLine="172" d="M1227.75,374.3194 C1227.75,598.1094 1227.75,1413.6094 1227.75,1413.6094 C1227.75,1413.6094 789.26,1413.6094 592.19,1413.6094" fill="none" id="OutboxRepository-to-OutboxEvent" style="stroke:#1168BD;stroke-width:1;"/><polygon fill="#1168BD" points="586.19,1413.6094,595.19,1417.6094,591.19,1413.6094,595.19,1409.6094,586.19,1413.6094" style="stroke:#1168BD;stroke-width:1;"/></g><!--link NotificationQueue to NotificationWorker--><g class="link" data-entity-1="NotificationQueue" data-entity-2="NotificationWorker" data-source-line="173" data-uid="lnk37" id="link_NotificationQueue_NotificationWorker"><path codeLine="173" d="M1440,382.6694 C1440,404.6694 1440,423.2694 1440,445.2994" fill="none" id="NotificationQueue-to-NotificationWorker" style="stroke:#1168BD;stroke-width:1;"/><polygon fill="#1168BD" points="1440,451.2994,1444,442.2994,1440,446.2994,1436,442.2994,1440,451.2994" style="stroke:#1168BD;stroke-width:1;"/><text fill="#000000" font-family="sans-serif" font-size="13" lengthAdjust="spacing" textLength="63.5781" x="1376" y="413.4745">job BullMQ</text></g><!--link NotificationWorker to NotificationProcessor--><g class="link" data-entity-1="NotificationWorker" data-entity-2="NotificationProcessor" data-source-line="174" data-uid="lnk38" id="link_NotificationWorker_NotificationProcessor"><path codeLine="174" d="M1440,580.7694 C1440,614.1194 1440,648.0594 1440,678.4694" fill="none" id="NotificationWorker-to-NotificationProcessor" style="stroke:#1168BD;stroke-width:1;"/><polygon fill="#1168BD" points="1440,684.4694,1444,675.4694,1440,679.4694,1436,675.4694,1440,684.4694" style="stroke:#1168BD;stroke-width:1;"/><text fill="#000000" font-family="sans-serif" font-size="13" lengthAdjust="spacing" textLength="83.0845" x="1356" y="629.1145">processor(job)</text></g><!--link NotificationProcessor to DeliveryRepository--><g class="link" data-entity-1="NotificationProcessor" data-entity-2="DeliveryRepository" data-source-line="175" data-uid="lnk39" id="link_NotificationProcessor_DeliveryRepository"><path codeLine="175" d="M1522,778.8494 C1522,813.5594 1522,855.4094 1522,895.1694" fill="none" id="NotificationProcessor-to-DeliveryRepository" style="stroke:#1168BD;stroke-width:1;"/><polygon fill="#1168BD" points="1522,901.1694,1526,892.1694,1522,896.1694,1518,892.1694,1522,901.1694" style="stroke:#1168BD;stroke-width:1;"/></g><!--link NotificationProcessor to TemplateRenderer--><g class="link" data-entity-1="NotificationProcessor" data-entity-2="TemplateRenderer" data-source-line="176" data-uid="lnk40" id="link_NotificationProcessor_TemplateRenderer"><path codeLine="176" d="M1584.14,731.6094 C1705.01,731.6094 1858,731.6094 1858,731.6094 C1858,731.6094 1858,862.5794 1858,931.0594" fill="none" id="NotificationProcessor-to-TemplateRenderer" style="stroke:#1168BD;stroke-width:1;"/><polygon fill="#1168BD" points="1858,937.0594,1862,928.0594,1858,932.0594,1854,928.0594,1858,937.0594" style="stroke:#1168BD;stroke-width:1;"/></g><!--link NotificationProcessor to EmailSender--><g class="link" data-entity-1="NotificationProcessor" data-entity-2="EmailSender" data-source-line="177" data-uid="lnk41" id="link_NotificationProcessor_EmailSender"><path codeLine="177" d="M1338.83,778.7394 C1338.83,838.1494 1338.83,932.6094 1338.83,932.6094 C1338.83,932.6094 1281.88,932.6094 1216.34,932.6094" fill="none" id="NotificationProcessor-to-EmailSender" style="stroke:#1168BD;stroke-width:1;"/><polygon fill="#1168BD" points="1210.34,932.6094,1219.34,936.6094,1215.34,932.6094,1219.34,928.6094,1210.34,932.6094" style="stroke:#1168BD;stroke-width:1;"/></g><!--link NotificationProcessor to SmsSender--><g class="link" data-entity-1="NotificationProcessor" data-entity-2="SmsSender" data-source-line="178" data-uid="lnk42" id="link_NotificationProcessor_SmsSender"><path codeLine="178" d="M1381.67,778.8494 C1381.67,824.8994 1381.67,888.0694 1381.67,930.8094" fill="none" id="NotificationProcessor-to-SmsSender" style="stroke:#1168BD;stroke-width:1;"/><polygon fill="#1168BD" points="1381.67,936.8094,1385.67,927.8094,1381.67,931.8094,1377.67,927.8094,1381.67,936.8094" style="stroke:#1168BD;stroke-width:1;"/></g><!--link DeliveryRepository to Notificacion--><g class="link" data-entity-1="DeliveryRepository" data-entity-2="Notificacion" data-source-line="179" data-uid="lnk43" id="link_DeliveryRepository_Notificacion"><path codeLine="179" d="M1459.98,1031.6094 C1231.95,1031.6094 764,1031.6094 764,1031.6094 C764,1031.6094 764,1068.3194 764,1114.3594" fill="none" id="DeliveryRepository-to-Notificacion" style="stroke:#1168BD;stroke-width:1;"/><polygon fill="#1168BD" points="764,1120.3594,768,1111.3594,764,1115.3594,760,1111.3594,764,1120.3594" style="stroke:#1168BD;stroke-width:1;"/></g><!--link DeliveryRepository to Intento--><g class="link" data-entity-1="DeliveryRepository" data-entity-2="Intento" data-source-line="180" data-uid="lnk44" id="link_DeliveryRepository_Intento"><path codeLine="180" d="M1459.78,1040.6094 C1245.95,1040.6094 826.5,1040.6094 826.5,1040.6094 C826.5,1040.6094 826.5,1285.5094 826.5,1416.1094" fill="none" id="DeliveryRepository-to-Intento" style="stroke:#1168BD;stroke-width:1;"/><polygon fill="#1168BD" points="826.5,1422.1094,830.5,1413.1094,826.5,1417.1094,822.5,1413.1094,826.5,1422.1094" style="stroke:#1168BD;stroke-width:1;"/></g><!--SRC=[hLVTRjis5BxNKn3UZTCcMO9rNMPaAUpQ1jpP-QcpRi2m2rgY7JOKgP9K4hVh8-sgZv0Nsw4aIwH4sGOs-SRY-NXuVhyZQf4WBT12Q2rY5559Gaq53zGzvGcME4OB7Dwlf4Xvz5Om8T5tu-on4EeEH-AHyXLQOgQ89GaPLggljQIBL9D9AFYSVYRen88moebU9mG9gU-49KZWNBmYSxrc11cpC5-nXdBq9K3m35gCp6H2HaGMwwUdhyy6msozBwLuR2wF1TURrRxv1L-RLhKU-sfyDXusZ_rvCFXf-Agk_-JaXxFNFuB-G5CDNdwWIcCK4HG-VuleIg0rYaL4c417w59ekgGX3Y4xH0N1nf3EB4SaH2hOJYE124VNGkcL9FERQGTXbMifRCx3TiqmrvGnNAoQvoMDUcX1LvJhQesBU2593ob88bzLwo7ccFNGQDQVJD7VQ3wRMp9maN0mfRdj0KkA5uoeZUZFlwnzac1Dehxk8KrZ0i684_svagT9r2Q765REsR7QvTysFo8uWdAimMQFAyacX1EFMilFT_Ehoq4bCMQRo8mktrvD-yC-73gw_339_utxq-basBTCDf7K0jIOVoiYRMz8d0WGX-jVoTgJeVyfcfFSXDs5KWNT5n6UnaGAZn-Ig9GLCVbZSdirloe3SMNdGcF6oa9yKqbAutVuSPNgXNWQFO0p-_gYMtn9qWMZwguHl3SD290VP4dxyeSVC6McHbep16Rh4R2Kz7Zzdx8BSQa8e7FQGUT7HwXpSdpyekCqJ-1qaW6-g815NMp5M36tAAj_FG5gmmdBTZr_unb9uIHRq5NJkjri17CY7sX8qFavK5hAoCM5dSey9XvyLv9FASJW4BbDSr3jNH7jsqWZ2mC9TK1gWrfIfe5_3-oYrdAzKs66CaD4B9TTN9JAGRDqRq70mBLztAzXkxfuFwZNHXr8eqFa0SFa83xmGJll6d_VaqGegeLSjrXBkIBI2MSNhCBMoKlA8ri-M4-Sx7NldGpwu6wuVOYnaBzbuUY6Z4APcXBPiaLTGmLxygr2O0FmqGq1PDTIUmYZdU7rR5k6TuRD6BG1DptCWxgHrmFgvhtO3LQvA3VXpXcEoGMrxMNnXWO7Jayuca6thzEFZYvQwgeLtenbAxJXGr1ljJqKMX6mhNK8r8Epvr4FnLJ566c9kS9XHeg1foRClfAvWsO6Z7p3onNVNaiH4eLZcirnh9x_uQ4KNEIqgzOyl3ElgN9uDxVlkXXriYMxnPox94_QSgWBT9lQB5B0SiW0w_2k0O4H9NNjK1la6UOxQu-9yBvkMjwGri4nblVkkP6V36h0FAjZcEBEXaD4pCpUrkrsLTmO3y7yGShOx0Pbhxl6MWRgmcSspwzhbes4Po5hv0AiUd3S_YWMamZzWZeYWnvzoUJ7DFhQAJ6BV3G1YZmbSE-0kiCClKGVALIUtExNxqBUPrLJE5QyBt5eyhNBmnpTZKX2U0HyJudDjk1vc4ffve3dmuhHc89vfGHz3zt5uG9QGM3OBBEymQTcbgqTISexI0dZ3mGE9UNxdlwK2jfSAZHsGRl7bY5Xz878zSw2n-6d52xnzj5Jw05_FKjWUgps1DSd8GpEZLLjsaEu0cym1LULqFohlzPSZlvwNssTcX1HsSfHCXENKp6_deBEyfBcKJsAuVnvjX6qNi85sYmGwKkqXJNAbtJbZ5EeHQW_SpaFPv1Ye6GOVEuLun2bCBWzPinZLHfn-qWP5UZzQ7xhiwA4EZPaWxLEvTNuiKQQ3zGWdQ11lBLH5ZIvhQweO8AUeI2KiqFWaTUtLJtOg_elxnS_p2XeDiuMSBsSja2jb6z1bIa9F0tS-5PemPJp_5y0]--></g></svg>