<svg xmlns="http://www.w3.org/2000/svg" xmlns:xlink="http://www.w3.org/1999/xlink" contentStyleType="text/css" data-diagram-type="SEQUENCE" height="2548px" preserveAspectRatio="none" style="width:986px;height:2548px;background:#FFFFFF;" version="1.1" viewBox="0 0 986 2548" width="986px" zoomAndPan="magnify"><title>LLD - Gesti&#243;n de plantillas</title><defs/><g><text fill="#000000" font-family="sans-serif" font-size="14" font-weight="bold" lengthAdjust="spacing" textLength="176.5723" x="401.1384" y="29.5332">LLD - Gesti&#243;n de plantillas</text><rect fill="none" height="48.7031" style="stroke:#000000;stroke-width:1.5;" width="292.856" x="20" y="324.0313"/><rect fill="none" height="48.7031" style="stroke:#000000;stroke-width:1.5;" width="262.7256" x="20" y="386.7344"/><rect fill="none" height="376.5938" style="stroke:#000000;stroke-width:1.5;" width="959.8491" x="10" y="690.3047"/><rect fill="none" height="111.2422" style="stroke:#000000;stroke-width:1.5;" width="486.7544" x="20" y="948.6563"/><rect fill="none" height="266.8359" style="stroke:#000000;stroke-width:1.5;" width="959.8491" x="10" y="1563.2813"/><rect fill="none" height="94.8906" style="stroke:#000000;stroke-width:1.5;" width="486.7544" x="20" y="1728.2266"/><rect fill="none" height="266.8359" style="stroke:#000000;stroke-width:1.5;" width="959.8491" x="10" y="2185.0391"/><rect fill="none" height="94.8906" style="stroke:#000000;stroke-width:1.5;" width="486.7544" x="20" y="2349.9844"/><g><title>Servicio interno</title><rect fill="#000000" fill-opacity="0.00000" height="2361.6563" width="8" x="81.2446" y="107.2188"/><line style="stroke:#1168BD;stroke-width:0.5;stroke-dasharray:5,5;" x1="85" x2="85" y1="107.2188" y2="2468.875"/></g><g><title>API-key</title><rect fill="#000000" fill-opacity="0.00000" height="2361.6563" width="8" x="225.9326" y="107.2188"/><line style="stroke:#1168BD;stroke-width:0.5;stroke-dasharray:5,5;" x1="229.1396" x2="229.1396" y1="107.2188" y2="2468.875"/></g><g><title>Middleware</title><rect fill="#000000" fill-opacity="0.00000" height="2361.6563" width="8" x="358.4307" y="107.2188"/><line style="stroke:#1168BD;stroke-width:0.5;stroke-dasharray:5,5;" x1="361.6377" x2="361.6377" y1="107.2188" y2="2468.875"/></g><g><title>Template</title><rect fill="#000000" fill-opacity="0.00000" height="2361.6563" width="8" x="455.4097" y="107.2188"/><line style="stroke:#1168BD;stroke-width:0.5;stroke-dasharray:5,5;" x1="459.0649" x2="459.0649" y1="107.2188" y2="2468.875"/></g><g><title>Template</title><rect fill="#000000" fill-opacity="0.00000" height="2361.6563" width="8" x="649.9268" y="107.2188"/><line style="stroke:#1168BD;stroke-width:0.5;stroke-dasharray:5,5;" x1="653.7476" x2="653.7476" y1="107.2188" y2="2468.875"/></g><g><title>Template</title><rect fill="#000000" fill-opacity="0.00000" height="2361.6563" width="8" x="811.9502" y="107.2188"/><line style="stroke:#1168BD;stroke-width:0.5;stroke-dasharray:5,5;" x1="815.4917" x2="815.4917" y1="107.2188" y2="2468.875"/></g><g><title>PostgreSQL</title><rect fill="#000000" fill-opacity="0.00000" height="2361.6563" width="8" x="914.7183" y="107.2188"/><line style="stroke:#1168BD;stroke-width:0.5;stroke-dasharray:5,5;" x1="918.5874" x2="918.5874" y1="107.2188" y2="2468.875"/></g><g class="participant participant-head" data-participant="emisor"><rect fill="#003865" height="49.2188" rx="2.5" ry="2.5" style="stroke:#003865;stroke-width:0.5;" width="110.4893" x="30" y="57"/><text fill="#FFFFFF" font-family="sans-serif" font-size="14" lengthAdjust="spacing" textLength="96.4893" x="37" y="78.5332">Servicio interno</text><text fill="#FFFFFF" font-family="sans-serif" font-size="14" lengthAdjust="spacing" textLength="42.0068" x="64.2412" y="96.1426">emisor</text></g><g class="participant participant-tail" data-participant="emisor"><rect fill="#003865" height="49.2188" rx="2.5" ry="2.5" style="stroke:#003865;stroke-width:0.5;" width="110.4893" x="30" y="2467.875"/><text fill="#FFFFFF" font-family="sans-serif" font-size="14" lengthAdjust="spacing" textLength="96.4893" x="37" y="2489.4082">Servicio interno</text><text fill="#FFFFFF" font-family="sans-serif" font-size="14" lengthAdjust="spacing" textLength="42.0068" x="64.2412" y="2507.0176">emisor</text></g><g class="participant participant-head" data-participant="access"><rect fill="#003865" height="49.2188" rx="2.5" ry="2.5" style="stroke:#003865;stroke-width:0.5;" width="85.5859" x="187.1396" y="57"/><text fill="#FFFFFF" font-family="sans-serif" font-size="14" lengthAdjust="spacing" textLength="49.0137" x="205.4258" y="78.5332">API-key</text><text fill="#FFFFFF" font-family="sans-serif" font-size="14" lengthAdjust="spacing" textLength="71.5859" x="194.1396" y="96.1426">Middleware</text></g><g class="participant participant-tail" data-participant="access"><rect fill="#003865" height="49.2188" rx="2.5" ry="2.5" style="stroke:#003865;stroke-width:0.5;" width="85.5859" x="187.1396" y="2467.875"/><text fill="#FFFFFF" font-family="sans-serif" font-size="14" lengthAdjust="spacing" textLength="49.0137" x="205.4258" y="2489.4082">API-key</text><text fill="#FFFFFF" font-family="sans-serif" font-size="14" lengthAdjust="spacing" textLength="71.5859" x="194.1396" y="2507.0176">Middleware</text></g><g class="participant participant-head" data-participant="validation"><rect fill="#003865" height="49.2188" rx="2.5" ry="2.5" style="stroke:#003865;stroke-width:0.5;" width="85.5859" x="319.6377" y="57"/><text fill="#FFFFFF" font-family="sans-serif" font-size="14" lengthAdjust="spacing" textLength="71.5859" x="326.6377" y="78.5332">Middleware</text><text fill="#FFFFFF" font-family="sans-serif" font-size="14" lengthAdjust="spacing" textLength="24.124" x="350.3687" y="96.1426">Zod</text></g><g class="participant participant-tail" data-participant="validation"><rect fill="#003865" height="49.2188" rx="2.5" ry="2.5" style="stroke:#003865;stroke-width:0.5;" width="85.5859" x="319.6377" y="2467.875"/><text fill="#FFFFFF" font-family="sans-serif" font-size="14" lengthAdjust="spacing" textLength="71.5859" x="326.6377" y="2489.4082">Middleware</text><text fill="#FFFFFF" font-family="sans-serif" font-size="14" lengthAdjust="spacing" textLength="24.124" x="350.3687" y="2507.0176">Zod</text></g><g class="participant participant-head" data-participant="controller"><rect fill="#003865" height="49.2188" rx="2.5" ry="2.5" style="stroke:#003865;stroke-width:0.5;" width="74.6895" x="422.0649" y="57"/><text fill="#FFFFFF" font-family="sans-serif" font-size="14" lengthAdjust="spacing" textLength="58.3584" x="430.2305" y="78.5332">Template</text><text fill="#FFFFFF" font-family="sans-serif" font-size="14" lengthAdjust="spacing" textLength="60.6895" x="429.0649" y="96.1426">Controller</text></g><g class="participant participant-tail" data-participant="controller"><rect fill="#003865" height="49.2188" rx="2.5" ry="2.5" style="stroke:#003865;stroke-width:0.5;" width="74.6895" x="422.0649" y="2467.875"/><text fill="#FFFFFF" font-family="sans-serif" font-size="14" lengthAdjust="spacing" textLength="58.3584" x="430.2305" y="2489.4082">Template</text><text fill="#FFFFFF" font-family="sans-serif" font-size="14" lengthAdjust="spacing" textLength="60.6895" x="429.0649" y="2507.0176">Controller</text></g><g class="participant participant-head" data-participant="service"><rect fill="#003865" height="49.2188" rx="2.5" ry="2.5" style="stroke:#003865;stroke-width:0.5;" width="72.3584" x="617.7476" y="57"/><text fill="#FFFFFF" font-family="sans-serif" font-size="14" lengthAdjust="spacing" textLength="58.3584" x="624.7476" y="78.5332">Template</text><text fill="#FFFFFF" font-family="sans-serif" font-size="14" lengthAdjust="spacing" textLength="46.6826" x="630.5854" y="96.1426">Service</text></g><g class="participant participant-tail" data-participant="service"><rect fill="#003865" height="49.2188" rx="2.5" ry="2.5" style="stroke:#003865;stroke-width:0.5;" width="72.3584" x="617.7476" y="2467.875"/><text fill="#FFFFFF" font-family="sans-serif" font-size="14" lengthAdjust="spacing" textLength="58.3584" x="624.7476" y="2489.4082">Template</text><text fill="#FFFFFF" font-family="sans-serif" font-size="14" lengthAdjust="spacing" textLength="46.6826" x="630.5854" y="2507.0176">Service</text></g><g class="participant participant-head" data-participant="repository"><rect fill="#003865" height="49.2188" rx="2.5" ry="2.5" style="stroke:#003865;stroke-width:0.5;" width="80.917" x="775.4917" y="57"/><text fill="#FFFFFF" font-family="sans-serif" font-size="14" lengthAdjust="spacing" textLength="58.3584" x="786.771" y="78.5332">Template</text><text fill="#FFFFFF" font-family="sans-serif" font-size="14" lengthAdjust="spacing" textLength="66.917" x="782.4917" y="96.1426">Repository</text></g><g class="participant participant-tail" data-participant="repository"><rect fill="#003865" height="49.2188" rx="2.5" ry="2.5" style="stroke:#003865;stroke-width:0.5;" width="80.917" x="775.4917" y="2467.875"/><text fill="#FFFFFF" font-family="sans-serif" font-size="14" lengthAdjust="spacing" textLength="58.3584" x="786.771" y="2489.4082">Template</text><text fill="#FFFFFF" font-family="sans-serif" font-size="14" lengthAdjust="spacing" textLength="66.917" x="782.4917" y="2507.0176">Repository</text></g><g class="participant participant-head" data-participant="db"><text fill="#000000" font-family="sans-serif" font-size="14" lengthAdjust="spacing" textLength="76.2617" x="877.5874" y="104.1426">PostgreSQL</text><path d="M900.7183,53.6094 C900.7183,43.6094 918.7183,43.6094 918.7183,43.6094 C918.7183,43.6094 936.7183,43.6094 936.7183,53.6094 L936.7183,79.6094 C936.7183,89.6094 918.7183,89.6094 918.7183,89.6094 C918.7183,89.6094 900.7183,89.6094 900.7183,79.6094 L900.7183,53.6094" fill="#E2E2F0" style="stroke:#181818;stroke-width:0.5;"/><path d="M900.7183,53.6094 C900.7183,63.6094 918.7183,63.6094 918.7183,63.6094 C918.7183,63.6094 936.7183,63.6094 936.7183,53.6094" fill="none" style="stroke:#181818;stroke-width:0.5;"/></g><g class="participant participant-tail" data-participant="db"><text fill="#000000" font-family="sans-serif" font-size="14" lengthAdjust="spacing" textLength="76.2617" x="877.5874" y="2482.4082">PostgreSQL</text><path d="M900.7183,2495.4844 C900.7183,2485.4844 918.7183,2485.4844 918.7183,2485.4844 C918.7183,2485.4844 936.7183,2485.4844 936.7183,2495.4844 L936.7183,2521.4844 C936.7183,2531.4844 918.7183,2531.4844 918.7183,2531.4844 C918.7183,2531.4844 900.7183,2531.4844 900.7183,2521.4844 L900.7183,2495.4844" fill="#E2E2F0" style="stroke:#181818;stroke-width:0.5;"/><path d="M900.7183,2495.4844 C900.7183,2505.4844 918.7183,2505.4844 918.7183,2505.4844 C918.7183,2505.4844 936.7183,2505.4844 936.7183,2495.4844" fill="none" style="stroke:#181818;stroke-width:0.5;"/></g><rect fill="#EEEEEE" height="3" style="stroke:#EEEEEE;stroke-width:1;" width="979.8491" x="0" y="138.3945"/><line style="stroke:#000000;stroke-width:1;" x1="0" x2="979.8491" y1="138.3945" y2="138.3945"/><line style="stroke:#000000;stroke-width:1;" x1="0" x2="979.8491" y1="141.3945" y2="141.3945"/><rect fill="#EEEEEE" height="24.3516" style="stroke:#000000;stroke-width:2;" width="51.5781" x="464.1355" y="127.2188"/><text fill="#000000" font-family="sans-serif" font-size="13" font-weight="bold" lengthAdjust="spacing" textLength="33.9663" x="470.1355" y="144.7139">Crear</text><g class="message" data-participant-1="emisor" data-participant-2="access"><polygon fill="#1168BD" points="217.9326,212.625,227.9326,216.625,217.9326,220.625,221.9326,216.625" style="stroke:#1168BD;stroke-width:1;"/><line style="stroke:#1168BD;stroke-width:1;" x1="85.2446" x2="223.9326" y1="216.625" y2="216.625"/><text fill="#000000" font-family="sans-serif" font-size="13" lengthAdjust="spacing" textLength="35.3945" x="139.8914" y="179.0654">POST</text><text fill="#000000" font-family="sans-serif" font-size="13" lengthAdjust="spacing" textLength="98.2744" x="108.4514" y="195.417">/api/v1/templates</text><text fill="#000000" font-family="sans-serif" font-size="13" lengthAdjust="spacing" textLength="60.6836" x="127.2468" y="211.7686">X-API-Key</text></g><g class="message" data-participant-1="access" data-participant-2="access"><line style="stroke:#1168BD;stroke-width:1;" x1="229.9326" x2="271.9326" y1="296.0313" y2="296.0313"/><line style="stroke:#1168BD;stroke-width:1;" x1="271.9326" x2="271.9326" y1="296.0313" y2="309.0313"/><line style="stroke:#1168BD;stroke-width:1;" x1="230.9326" x2="271.9326" y1="309.0313" y2="309.0313"/><polygon fill="#1168BD" points="240.9326,305.0313,230.9326,309.0313,240.9326,313.0313,236.9326,309.0313" style="stroke:#1168BD;stroke-width:1;"/><text fill="#000000" font-family="sans-serif" font-size="13" lengthAdjust="spacing" textLength="38.2954" x="277.0339" y="242.1201">validar</text><text fill="#000000" font-family="sans-serif" font-size="13" lengthAdjust="spacing" textLength="118.498" x="236.9326" y="258.4717">SERVICE_API_KEY</text><text fill="#000000" font-family="sans-serif" font-size="13" lengthAdjust="spacing" textLength="6.5" x="292.9316" y="274.8232">y</text><text fill="#000000" font-family="sans-serif" font-size="13" lengthAdjust="spacing" textLength="60.6836" x="265.8398" y="291.1748">X-API-Key</text></g><path d="M20,324.0313 L99.6899,324.0313 L99.6899,332.3828 L89.6899,342.3828 L20,342.3828 L20,324.0313" fill="#EEEEEE" style="stroke:#000000;stroke-width:1.5;"/><rect fill="none" height="48.7031" style="stroke:#000000;stroke-width:1.5;" width="292.856" x="20" y="324.0313"/><text fill="#000000" font-family="sans-serif" font-size="13" font-weight="bold" lengthAdjust="spacing" textLength="34.6899" x="35" y="338.5264">break</text><text fill="#000000" font-family="sans-serif" font-size="11" font-weight="bold" lengthAdjust="spacing" textLength="193.166" x="114.6899" y="337.4502">[SERVICE_API_KEY ausente o corta]</text><g class="message" data-participant-1="access" data-participant-2="emisor"><polygon fill="#1168BD" points="96.2446,360.7344,86.2446,364.7344,96.2446,368.7344,92.2446,364.7344" style="stroke:#1168BD;stroke-width:1;"/><line style="stroke:#1168BD;stroke-width:1;stroke-dasharray:2,2;" x1="90.2446" x2="228.9326" y1="364.7344" y2="364.7344"/><text fill="#000000" font-family="sans-serif" font-size="13" lengthAdjust="spacing" textLength="21.6899" x="146.7437" y="359.8779">503</text></g><path d="M20,386.7344 L99.6899,386.7344 L99.6899,395.0859 L89.6899,405.0859 L20,405.0859 L20,386.7344" fill="#EEEEEE" style="stroke:#000000;stroke-width:1.5;"/><rect fill="none" height="48.7031" style="stroke:#000000;stroke-width:1.5;" width="262.7256" x="20" y="386.7344"/><text fill="#000000" font-family="sans-serif" font-size="13" font-weight="bold" lengthAdjust="spacing" textLength="34.6899" x="35" y="401.2295">break</text><text fill="#000000" font-family="sans-serif" font-size="11" font-weight="bold" lengthAdjust="spacing" textLength="158.9253" x="114.6899" y="400.1533">[X-API-Key ausente o inv&#225;lida]</text><g class="message" data-participant-1="access" data-participant-2="emisor"><polygon fill="#1168BD" points="96.2446,423.4375,86.2446,427.4375,96.2446,431.4375,92.2446,427.4375" style="stroke:#1168BD;stroke-width:1;"/><line style="stroke:#1168BD;stroke-width:1;stroke-dasharray:2,2;" x1="90.2446" x2="228.9326" y1="427.4375" y2="427.4375"/><text fill="#000000" font-family="sans-serif" font-size="13" lengthAdjust="spacing" textLength="21.6899" x="146.7437" y="422.5811">401</text></g><g class="message" data-participant-1="access" data-participant-2="validation"><polygon fill="#1168BD" points="350.4307,477.1406,360.4307,481.1406,350.4307,485.1406,354.4307,481.1406" style="stroke:#1168BD;stroke-width:1;"/><line style="stroke:#1168BD;stroke-width:1;" x1="229.9326" x2="356.4307" y1="481.1406" y2="481.1406"/><text fill="#000000" font-family="sans-serif" font-size="13" lengthAdjust="spacing" textLength="43.3608" x="274.5012" y="459.9326">request</text><text fill="#000000" font-family="sans-serif" font-size="13" lengthAdjust="spacing" textLength="60.709" x="265.8271" y="476.2842">autorizado</text></g><path d="M141,494.1406 L141,553.1406 L451,553.1406 L451,504.1406 L441,494.1406 L141,494.1406" fill="#FEFFDD" style="stroke:#181818;stroke-width:0.5;"/><path d="M441,494.1406 L441,504.1406 L451,504.1406 L441,494.1406" fill="#FEFFDD" style="stroke:#181818;stroke-width:0.5;"/><text fill="#000000" font-family="sans-serif" font-size="13" lengthAdjust="spacing" textLength="259.416" x="147" y="512.6357">/api/v1/health, /metrics, /openapi.json y /docs</text><text fill="#000000" font-family="sans-serif" font-size="13" lengthAdjust="spacing" textLength="289.0151" x="147" y="528.9873">no requieren X-API-Key. El mismo control aplica a</text><text fill="#000000" font-family="sans-serif" font-size="13" lengthAdjust="spacing" textLength="197.9707" x="147" y="545.3389">PUT y DELETE de este diagrama.</text><g class="message" data-participant-1="validation" data-participant-2="validation"><line style="stroke:#1168BD;stroke-width:1;" x1="362.4307" x2="404.4307" y1="662.3047" y2="662.3047"/><line style="stroke:#1168BD;stroke-width:1;" x1="404.4307" x2="404.4307" y1="662.3047" y2="675.3047"/><line style="stroke:#1168BD;stroke-width:1;" x1="363.4307" x2="404.4307" y1="675.3047" y2="675.3047"/><polygon fill="#1168BD" points="373.4307,671.3047,363.4307,675.3047,373.4307,679.3047,369.4307,675.3047" style="stroke:#1168BD;stroke-width:1;"/><text fill="#000000" font-family="sans-serif" font-size="13" lengthAdjust="spacing" textLength="38.2954" x="377.0225" y="575.6904">validar</text><text fill="#000000" font-family="sans-serif" font-size="13" lengthAdjust="spacing" textLength="28.1899" x="382.0752" y="592.042">body</text><text fill="#000000" font-family="sans-serif" font-size="13" lengthAdjust="spacing" textLength="41.9009" x="370.1638" y="608.3936">estricto</text><text fill="#000000" font-family="sans-serif" font-size="13" lengthAdjust="spacing" textLength="3.6118" x="412.0647" y="608.3936">&#160;</text><text fill="#000000" font-family="sans-serif" font-size="13" lengthAdjust="spacing" textLength="6.5" x="415.6765" y="608.3936">y</text><text fill="#000000" font-family="sans-serif" font-size="13" lengthAdjust="spacing" textLength="52.0254" x="370.1575" y="624.7451">variables</text><text fill="#000000" font-family="sans-serif" font-size="13" lengthAdjust="spacing" textLength="14.46" x="388.9402" y="641.0967">no</text><text fill="#000000" font-family="sans-serif" font-size="13" lengthAdjust="spacing" textLength="53.479" x="369.4307" y="657.4482">repetidas</text></g><path d="M10,690.3047 L70.1709,690.3047 L70.1709,698.6563 L60.1709,708.6563 L10,708.6563 L10,690.3047" fill="#EEEEEE" style="stroke:#000000;stroke-width:1.5;"/><rect fill="none" height="376.5938" style="stroke:#000000;stroke-width:1.5;" width="959.8491" x="10" y="690.3047"/><text fill="#000000" font-family="sans-serif" font-size="13" font-weight="bold" lengthAdjust="spacing" textLength="15.1709" x="25" y="704.7998">alt</text><text fill="#000000" font-family="sans-serif" font-size="11" font-weight="bold" lengthAdjust="spacing" textLength="78.2192" x="85.1709" y="703.7236">[body inv&#225;lido]</text><g class="message" data-participant-1="validation" data-participant-2="emisor"><polygon fill="#1168BD" points="96.2446,727.0078,86.2446,731.0078,96.2446,735.0078,92.2446,731.0078" style="stroke:#1168BD;stroke-width:1;"/><line style="stroke:#1168BD;stroke-width:1;stroke-dasharray:2,2;" x1="90.2446" x2="361.4307" y1="731.0078" y2="731.0078"/><text fill="#000000" font-family="sans-serif" font-size="13" lengthAdjust="spacing" textLength="21.6899" x="212.9927" y="726.1514">400</text></g><line style="stroke:#000000;stroke-width:1;stroke-dasharray:2,2;" x1="10" x2="969.8491" y1="740.0078" y2="740.0078"/><text fill="#000000" font-family="sans-serif" font-size="11" font-weight="bold" lengthAdjust="spacing" textLength="68.4438" x="15" y="751.4268">[body v&#225;lido]</text><g class="message" data-participant-1="validation" data-participant-2="controller"><polygon fill="#1168BD" points="447.4097,773.1953,457.4097,777.1953,447.4097,781.1953,451.4097,777.1953" style="stroke:#1168BD;stroke-width:1;"/><line style="stroke:#1168BD;stroke-width:1;" x1="362.4307" x2="453.4097" y1="777.1953" y2="777.1953"/><text fill="#000000" font-family="sans-serif" font-size="13" lengthAdjust="spacing" textLength="72.979" x="374.4307" y="772.3389">create(body)</text></g><g class="message" data-participant-1="controller" data-participant-2="service"><polygon fill="#1168BD" points="641.9268,803.5469,651.9268,807.5469,641.9268,811.5469,645.9268,807.5469" style="stroke:#1168BD;stroke-width:1;"/><line style="stroke:#1168BD;stroke-width:1;" x1="459.4097" x2="647.9268" y1="807.5469" y2="807.5469"/><text fill="#000000" font-family="sans-serif" font-size="13" lengthAdjust="spacing" textLength="170.5171" x="471.4097" y="802.6904">createTemplateService(body)</text></g><g class="message" data-participant-1="service" data-participant-2="repository"><polygon fill="#1168BD" points="803.9502,833.8984,813.9502,837.8984,803.9502,841.8984,807.9502,837.8984" style="stroke:#1168BD;stroke-width:1;"/><line style="stroke:#1168BD;stroke-width:1;" x1="653.9268" x2="809.9502" y1="837.8984" y2="837.8984"/><text fill="#000000" font-family="sans-serif" font-size="13" lengthAdjust="spacing" textLength="122.8271" x="673.5249" y="833.042">insertTemplate(body)</text></g><g class="message" data-participant-1="repository" data-participant-2="db"><polygon fill="#1168BD" points="906.7183,929.6563,916.7183,933.6563,906.7183,937.6563,910.7183,933.6563" style="stroke:#1168BD;stroke-width:1;"/><line style="stroke:#1168BD;stroke-width:1;" x1="815.9502" x2="912.7183" y1="933.6563" y2="933.6563"/><text fill="#000000" font-family="sans-serif" font-size="13" lengthAdjust="spacing" textLength="47.6709" x="836.2751" y="863.3936">INSERT</text><text fill="#000000" font-family="sans-serif" font-size="13" lengthAdjust="spacing" textLength="3.6118" x="883.946" y="863.3936">&#160;</text><text fill="#000000" font-family="sans-serif" font-size="13" lengthAdjust="spacing" textLength="10.8354" x="887.5579" y="863.3936">...</text><text fill="#000000" font-family="sans-serif" font-size="13" lengthAdjust="spacing" textLength="19.5" x="857.5842" y="879.7451">ON</text><text fill="#000000" font-family="sans-serif" font-size="13" lengthAdjust="spacing" textLength="65" x="834.8342" y="896.0967">CONFLICT</text><text fill="#000000" font-family="sans-serif" font-size="13" lengthAdjust="spacing" textLength="19.5" x="857.5842" y="912.4482">DO</text><text fill="#000000" font-family="sans-serif" font-size="13" lengthAdjust="spacing" textLength="59.9409" x="837.3638" y="928.7998">NOTHING</text></g><path d="M20,948.6563 L80.1709,948.6563 L80.1709,957.0078 L70.1709,967.0078 L20,967.0078 L20,948.6563" fill="#EEEEEE" style="stroke:#000000;stroke-width:1.5;"/><rect fill="none" height="111.2422" style="stroke:#000000;stroke-width:1.5;" width="486.7544" x="20" y="948.6563"/><text fill="#000000" font-family="sans-serif" font-size="13" font-weight="bold" lengthAdjust="spacing" textLength="15.1709" x="35" y="963.1514">alt</text><text fill="#000000" font-family="sans-serif" font-size="11" font-weight="bold" lengthAdjust="spacing" textLength="149.4453" x="95.1709" y="962.0752">[nombre + canal duplicados]</text><g class="message" data-participant-1="controller" data-participant-2="emisor"><polygon fill="#1168BD" points="96.2446,985.3594,86.2446,989.3594,96.2446,993.3594,92.2446,989.3594" style="stroke:#1168BD;stroke-width:1;"/><line style="stroke:#1168BD;stroke-width:1;stroke-dasharray:2,2;" x1="90.2446" x2="458.4097" y1="989.3594" y2="989.3594"/><text fill="#000000" font-family="sans-serif" font-size="13" lengthAdjust="spacing" textLength="21.6899" x="261.4822" y="984.5029">409</text></g><line style="stroke:#000000;stroke-width:1;stroke-dasharray:2,2;" x1="20" x2="506.7544" y1="998.3594" y2="998.3594"/><text fill="#000000" font-family="sans-serif" font-size="11" font-weight="bold" lengthAdjust="spacing" textLength="42.7969" x="25" y="1009.7783">[creada]</text><g class="message" data-participant-1="controller" data-participant-2="emisor"><polygon fill="#1168BD" points="96.2446,1047.8984,86.2446,1051.8984,96.2446,1055.8984,92.2446,1051.8984" style="stroke:#1168BD;stroke-width:1;"/><line style="stroke:#1168BD;stroke-width:1;stroke-dasharray:2,2;" x1="90.2446" x2="458.4097" y1="1051.8984" y2="1051.8984"/><text fill="#000000" font-family="sans-serif" font-size="13" lengthAdjust="spacing" textLength="21.6899" x="255.8804" y="1030.6904">201</text><text fill="#000000" font-family="sans-serif" font-size="13" lengthAdjust="spacing" textLength="3.6118" x="277.5703" y="1030.6904">&#160;</text><text fill="#000000" font-family="sans-serif" font-size="13" lengthAdjust="spacing" textLength="7.5918" x="281.1821" y="1030.6904">+</text><text fill="#000000" font-family="sans-serif" font-size="13" lengthAdjust="spacing" textLength="44.0845" x="250.2849" y="1047.042">plantilla</text></g><rect fill="#EEEEEE" height="3" style="stroke:#EEEEEE;stroke-width:1;" width="979.8491" x="0" y="1095.0742"/><line style="stroke:#000000;stroke-width:1;" x1="0" x2="979.8491" y1="1095.0742" y2="1095.0742"/><line style="stroke:#000000;stroke-width:1;" x1="0" x2="979.8491" y1="1098.0742" y2="1098.0742"/><rect fill="#EEEEEE" height="24.3516" style="stroke:#000000;stroke-width:2;" width="79.7427" x="450.0532" y="1083.8984"/><text fill="#000000" font-family="sans-serif" font-size="13" font-weight="bold" lengthAdjust="spacing" textLength="62.1309" x="456.0532" y="1101.3936">Actualizar</text><g class="message" data-participant-1="emisor" data-participant-2="access"><polygon fill="#1168BD" points="217.9326,1169.3047,227.9326,1173.3047,217.9326,1177.3047,221.9326,1173.3047" style="stroke:#1168BD;stroke-width:1;"/><line style="stroke:#1168BD;stroke-width:1;" x1="85.2446" x2="223.9326" y1="1173.3047" y2="1173.3047"/><text fill="#000000" font-family="sans-serif" font-size="13" lengthAdjust="spacing" textLength="26" x="144.5886" y="1135.7451">PUT</text><text fill="#000000" font-family="sans-serif" font-size="13" lengthAdjust="spacing" textLength="120.688" x="97.2446" y="1152.0967">/api/v1/templates/{id}</text><text fill="#000000" font-family="sans-serif" font-size="13" lengthAdjust="spacing" textLength="60.6836" x="127.2468" y="1168.4482">X-API-Key</text></g><g class="message" data-participant-1="access" data-participant-2="validation"><polygon fill="#1168BD" points="350.4307,1216.0078,360.4307,1220.0078,350.4307,1224.0078,354.4307,1220.0078" style="stroke:#1168BD;stroke-width:1;"/><line style="stroke:#1168BD;stroke-width:1;" x1="229.9326" x2="356.4307" y1="1220.0078" y2="1220.0078"/><text fill="#000000" font-family="sans-serif" font-size="13" lengthAdjust="spacing" textLength="43.3608" x="274.5012" y="1198.7998">request</text><text fill="#000000" font-family="sans-serif" font-size="13" lengthAdjust="spacing" textLength="60.709" x="265.8271" y="1215.1514">autorizado</text></g><g class="message" data-participant-1="validation" data-participant-2="validation"><line style="stroke:#1168BD;stroke-width:1;" x1="362.4307" x2="404.4307" y1="1299.4141" y2="1299.4141"/><line style="stroke:#1168BD;stroke-width:1;" x1="404.4307" x2="404.4307" y1="1299.4141" y2="1312.4141"/><line style="stroke:#1168BD;stroke-width:1;" x1="363.4307" x2="404.4307" y1="1312.4141" y2="1312.4141"/><polygon fill="#1168BD" points="373.4307,1308.4141,363.4307,1312.4141,373.4307,1316.4141,369.4307,1312.4141" style="stroke:#1168BD;stroke-width:1;"/><text fill="#000000" font-family="sans-serif" font-size="13" lengthAdjust="spacing" textLength="38.2954" x="377.0066" y="1245.5029">validar</text><text fill="#000000" font-family="sans-serif" font-size="13" lengthAdjust="spacing" textLength="43.3354" x="369.4307" y="1261.8545">BIGINT</text><text fill="#000000" font-family="sans-serif" font-size="13" lengthAdjust="spacing" textLength="3.6118" x="412.7661" y="1261.8545">&#160;</text><text fill="#000000" font-family="sans-serif" font-size="13" lengthAdjust="spacing" textLength="6.5" x="416.3779" y="1261.8545">y</text><text fill="#000000" font-family="sans-serif" font-size="13" lengthAdjust="spacing" textLength="28.1899" x="382.0593" y="1278.2061">body</text><text fill="#000000" font-family="sans-serif" font-size="13" lengthAdjust="spacing" textLength="52.749" x="369.7798" y="1294.5576">completo</text></g><g class="message" data-participant-1="validation" data-participant-2="controller"><polygon fill="#1168BD" points="447.4097,1355.1172,457.4097,1359.1172,447.4097,1363.1172,451.4097,1359.1172" style="stroke:#1168BD;stroke-width:1;"/><line style="stroke:#1168BD;stroke-width:1;" x1="362.4307" x2="453.4097" y1="1359.1172" y2="1359.1172"/><text fill="#000000" font-family="sans-serif" font-size="13" lengthAdjust="spacing" textLength="57.8208" x="382.0098" y="1337.9092">update(id,</text><text fill="#000000" font-family="sans-serif" font-size="13" lengthAdjust="spacing" textLength="32.519" x="394.6606" y="1354.2607">body)</text></g><g class="message" data-participant-1="controller" data-participant-2="service"><polygon fill="#1168BD" points="641.9268,1401.8203,651.9268,1405.8203,641.9268,1409.8203,645.9268,1405.8203" style="stroke:#1168BD;stroke-width:1;"/><line style="stroke:#1168BD;stroke-width:1;" x1="459.4097" x2="647.9268" y1="1405.8203" y2="1405.8203"/><text fill="#000000" font-family="sans-serif" font-size="13" lengthAdjust="spacing" textLength="155.3589" x="478.9888" y="1384.6123">updateTemplateService(id,</text><text fill="#000000" font-family="sans-serif" font-size="13" lengthAdjust="spacing" textLength="32.519" x="540.4087" y="1400.9639">body)</text></g><g class="message" data-participant-1="service" data-participant-2="repository"><polygon fill="#1168BD" points="803.9502,1448.5234,813.9502,1452.5234,803.9502,1456.5234,807.9502,1452.5234" style="stroke:#1168BD;stroke-width:1;"/><line style="stroke:#1168BD;stroke-width:1;" x1="653.9268" x2="809.9502" y1="1452.5234" y2="1452.5234"/><text fill="#000000" font-family="sans-serif" font-size="13" lengthAdjust="spacing" textLength="138.0234" x="665.9268" y="1431.3154">updateTemplateById(id,</text><text fill="#000000" font-family="sans-serif" font-size="13" lengthAdjust="spacing" textLength="32.519" x="718.679" y="1447.667">body)</text></g><g class="message" data-participant-1="repository" data-participant-2="db"><polygon fill="#1168BD" points="906.7183,1544.2813,916.7183,1548.2813,906.7183,1552.2813,910.7183,1548.2813" style="stroke:#1168BD;stroke-width:1;"/><line style="stroke:#1168BD;stroke-width:1;" x1="815.9502" x2="912.7183" y1="1548.2813" y2="1548.2813"/><text fill="#000000" font-family="sans-serif" font-size="13" lengthAdjust="spacing" textLength="52.73" x="840.9692" y="1478.0186">UPDATE</text><text fill="#000000" font-family="sans-serif" font-size="13" lengthAdjust="spacing" textLength="9.3882" x="853.6042" y="1494.3701">si</text><text fill="#000000" font-family="sans-serif" font-size="13" lengthAdjust="spacing" textLength="3.6118" x="862.9924" y="1494.3701">&#160;</text><text fill="#000000" font-family="sans-serif" font-size="13" lengthAdjust="spacing" textLength="14.46" x="866.6042" y="1494.3701">no</text><text fill="#000000" font-family="sans-serif" font-size="13" lengthAdjust="spacing" textLength="33.96" x="837.3479" y="1510.7217">existe</text><text fill="#000000" font-family="sans-serif" font-size="13" lengthAdjust="spacing" textLength="3.6118" x="871.3079" y="1510.7217">&#160;</text><text fill="#000000" font-family="sans-serif" font-size="13" lengthAdjust="spacing" textLength="22.4009" x="874.9197" y="1510.7217">otro</text><text fill="#000000" font-family="sans-serif" font-size="13" lengthAdjust="spacing" textLength="44.0781" x="839.6934" y="1527.0732">nombre</text><text fill="#000000" font-family="sans-serif" font-size="13" lengthAdjust="spacing" textLength="3.6118" x="883.7715" y="1527.0732">&#160;</text><text fill="#000000" font-family="sans-serif" font-size="13" lengthAdjust="spacing" textLength="7.5918" x="887.3833" y="1527.0732">+</text><text fill="#000000" font-family="sans-serif" font-size="13" lengthAdjust="spacing" textLength="31.0781" x="851.7952" y="1543.4248">canal</text></g><path d="M10,1563.2813 L70.1709,1563.2813 L70.1709,1571.6328 L60.1709,1581.6328 L10,1581.6328 L10,1563.2813" fill="#EEEEEE" style="stroke:#000000;stroke-width:1.5;"/><rect fill="none" height="266.8359" style="stroke:#000000;stroke-width:1.5;" width="959.8491" x="10" y="1563.2813"/><text fill="#000000" font-family="sans-serif" font-size="13" font-weight="bold" lengthAdjust="spacing" textLength="15.1709" x="25" y="1577.7764">alt</text><text fill="#000000" font-family="sans-serif" font-size="11" font-weight="bold" lengthAdjust="spacing" textLength="66.6284" x="85.1709" y="1576.7002">[actualizada]</text><g class="message" data-participant-1="controller" data-participant-2="emisor"><polygon fill="#1168BD" points="96.2446,1616.3359,86.2446,1620.3359,96.2446,1624.3359,92.2446,1620.3359" style="stroke:#1168BD;stroke-width:1;"/><line style="stroke:#1168BD;stroke-width:1;stroke-dasharray:2,2;" x1="90.2446" x2="458.4097" y1="1620.3359" y2="1620.3359"/><text fill="#000000" font-family="sans-serif" font-size="13" lengthAdjust="spacing" textLength="21.6899" x="255.8804" y="1599.1279">200</text><text fill="#000000" font-family="sans-serif" font-size="13" lengthAdjust="spacing" textLength="3.6118" x="277.5703" y="1599.1279">&#160;</text><text fill="#000000" font-family="sans-serif" font-size="13" lengthAdjust="spacing" textLength="7.5918" x="281.1821" y="1599.1279">+</text><text fill="#000000" font-family="sans-serif" font-size="13" lengthAdjust="spacing" textLength="44.0845" x="250.2849" y="1615.4795">plantilla</text></g><line style="stroke:#000000;stroke-width:1;stroke-dasharray:2,2;" x1="10" x2="969.8491" y1="1629.3359" y2="1629.3359"/><text fill="#000000" font-family="sans-serif" font-size="11" font-weight="bold" lengthAdjust="spacing" textLength="104.5269" x="15" y="1640.7549">[sin fila actualizada]</text><g class="message" data-participant-1="service" data-participant-2="repository"><polygon fill="#1168BD" points="803.9502,1662.5234,813.9502,1666.5234,803.9502,1670.5234,807.9502,1666.5234" style="stroke:#1168BD;stroke-width:1;"/><line style="stroke:#1168BD;stroke-width:1;" x1="653.9268" x2="809.9502" y1="1666.5234" y2="1666.5234"/><text fill="#000000" font-family="sans-serif" font-size="13" lengthAdjust="spacing" textLength="119.939" x="674.969" y="1661.667">findTemplateById(id)</text></g><g class="message" data-participant-1="repository" data-participant-2="db"><polygon fill="#1168BD" points="906.7183,1709.2266,916.7183,1713.2266,906.7183,1717.2266,910.7183,1713.2266" style="stroke:#1168BD;stroke-width:1;"/><line style="stroke:#1168BD;stroke-width:1;" x1="815.9502" x2="912.7183" y1="1713.2266" y2="1713.2266"/><text fill="#000000" font-family="sans-serif" font-size="13" lengthAdjust="spacing" textLength="50.5718" x="842.0483" y="1692.0186">SELECT</text><text fill="#000000" font-family="sans-serif" font-size="13" lengthAdjust="spacing" textLength="44.0845" x="845.292" y="1708.3701">plantilla</text></g><path d="M20,1728.2266 L80.1709,1728.2266 L80.1709,1736.5781 L70.1709,1746.5781 L20,1746.5781 L20,1728.2266" fill="#EEEEEE" style="stroke:#000000;stroke-width:1.5;"/><rect fill="none" height="94.8906" style="stroke:#000000;stroke-width:1.5;" width="486.7544" x="20" y="1728.2266"/><text fill="#000000" font-family="sans-serif" font-size="13" font-weight="bold" lengthAdjust="spacing" textLength="15.1709" x="35" y="1742.7217">alt</text><text fill="#000000" font-family="sans-serif" font-size="11" font-weight="bold" lengthAdjust="spacing" textLength="55.0107" x="95.1709" y="1741.6455">[no existe]</text><g class="message" data-participant-1="controller" data-participant-2="emisor"><polygon fill="#1168BD" points="96.2446,1764.9297,86.2446,1768.9297,96.2446,1772.9297,92.2446,1768.9297" style="stroke:#1168BD;stroke-width:1;"/><line style="stroke:#1168BD;stroke-width:1;stroke-dasharray:2,2;" x1="90.2446" x2="458.4097" y1="1768.9297" y2="1768.9297"/><text fill="#000000" font-family="sans-serif" font-size="13" lengthAdjust="spacing" textLength="21.6899" x="261.4822" y="1764.0732">404</text></g><line style="stroke:#000000;stroke-width:1;stroke-dasharray:2,2;" x1="20" x2="506.7544" y1="1777.9297" y2="1777.9297"/><text fill="#000000" font-family="sans-serif" font-size="11" font-weight="bold" lengthAdjust="spacing" textLength="153.1084" x="25" y="1789.3486">[conflicto de nombre + canal]</text><g class="message" data-participant-1="controller" data-participant-2="emisor"><polygon fill="#1168BD" points="96.2446,1811.1172,86.2446,1815.1172,96.2446,1819.1172,92.2446,1815.1172" style="stroke:#1168BD;stroke-width:1;"/><line style="stroke:#1168BD;stroke-width:1;stroke-dasharray:2,2;" x1="90.2446" x2="458.4097" y1="1815.1172" y2="1815.1172"/><text fill="#000000" font-family="sans-serif" font-size="13" lengthAdjust="spacing" textLength="21.6899" x="261.4822" y="1810.2607">409</text></g><rect fill="#EEEEEE" height="3" style="stroke:#EEEEEE;stroke-width:1;" width="979.8491" x="0" y="1858.293"/><line style="stroke:#000000;stroke-width:1;" x1="0" x2="979.8491" y1="1858.293" y2="1858.293"/><line style="stroke:#000000;stroke-width:1;" x1="0" x2="979.8491" y1="1861.293" y2="1861.293"/><rect fill="#EEEEEE" height="24.3516" style="stroke:#000000;stroke-width:2;" width="68.9072" x="455.4709" y="1847.1172"/><text fill="#000000" font-family="sans-serif" font-size="13" font-weight="bold" lengthAdjust="spacing" textLength="51.2954" x="461.4709" y="1864.6123">Eliminar</text><g class="message" data-participant-1="emisor" data-participant-2="access"><polygon fill="#1168BD" points="217.9326,1932.5234,227.9326,1936.5234,217.9326,1940.5234,221.9326,1936.5234" style="stroke:#1168BD;stroke-width:1;"/><line style="stroke:#1168BD;stroke-width:1;" x1="85.2446" x2="223.9326" y1="1936.5234" y2="1936.5234"/><text fill="#000000" font-family="sans-serif" font-size="13" lengthAdjust="spacing" textLength="50.5718" x="132.3027" y="1898.9639">DELETE</text><text fill="#000000" font-family="sans-serif" font-size="13" lengthAdjust="spacing" textLength="120.688" x="97.2446" y="1915.3154">/api/v1/templates/{id}</text><text fill="#000000" font-family="sans-serif" font-size="13" lengthAdjust="spacing" textLength="60.6836" x="127.2468" y="1931.667">X-API-Key</text></g><g class="message" data-participant-1="access" data-participant-2="validation"><polygon fill="#1168BD" points="350.4307,1979.2266,360.4307,1983.2266,350.4307,1987.2266,354.4307,1983.2266" style="stroke:#1168BD;stroke-width:1;"/><line style="stroke:#1168BD;stroke-width:1;" x1="229.9326" x2="356.4307" y1="1983.2266" y2="1983.2266"/><text fill="#000000" font-family="sans-serif" font-size="13" lengthAdjust="spacing" textLength="43.3608" x="274.5012" y="1962.0186">request</text><text fill="#000000" font-family="sans-serif" font-size="13" lengthAdjust="spacing" textLength="60.709" x="265.8271" y="1978.3701">autorizado</text></g><g class="message" data-participant-1="validation" data-participant-2="controller"><polygon fill="#1168BD" points="447.4097,2025.9297,457.4097,2029.9297,447.4097,2033.9297,451.4097,2029.9297" style="stroke:#1168BD;stroke-width:1;"/><line style="stroke:#1168BD;stroke-width:1;" x1="362.4307" x2="453.4097" y1="2029.9297" y2="2029.9297"/><text fill="#000000" font-family="sans-serif" font-size="13" lengthAdjust="spacing" textLength="10.1182" x="382.3875" y="2008.7217">id</text><text fill="#000000" font-family="sans-serif" font-size="13" lengthAdjust="spacing" textLength="3.6118" x="392.5056" y="2008.7217">&#160;</text><text fill="#000000" font-family="sans-serif" font-size="13" lengthAdjust="spacing" textLength="43.3354" x="396.1174" y="2008.7217">BIGINT</text><text fill="#000000" font-family="sans-serif" font-size="13" lengthAdjust="spacing" textLength="33.9663" x="393.937" y="2025.0732">v&#225;lido</text></g><g class="message" data-participant-1="controller" data-participant-2="service"><polygon fill="#1168BD" points="641.9268,2056.2813,651.9268,2060.2813,641.9268,2064.2813,645.9268,2060.2813" style="stroke:#1168BD;stroke-width:1;"/><line style="stroke:#1168BD;stroke-width:1;" x1="459.4097" x2="647.9268" y1="2060.2813" y2="2060.2813"/><text fill="#000000" font-family="sans-serif" font-size="13" lengthAdjust="spacing" textLength="151.7344" x="480.801" y="2055.4248">deleteTemplateService(id)</text></g><g class="message" data-participant-1="service" data-participant-2="repository"><polygon fill="#1168BD" points="803.9502,2086.6328,813.9502,2090.6328,803.9502,2094.6328,807.9502,2090.6328" style="stroke:#1168BD;stroke-width:1;"/><line style="stroke:#1168BD;stroke-width:1;" x1="653.9268" x2="809.9502" y1="2090.6328" y2="2090.6328"/><text fill="#000000" font-family="sans-serif" font-size="13" lengthAdjust="spacing" textLength="134.3989" x="667.739" y="2085.7764">deleteTemplateById(id)</text></g><g class="message" data-participant-1="repository" data-participant-2="db"><polygon fill="#1168BD" points="906.7183,2166.0391,916.7183,2170.0391,906.7183,2174.0391,910.7183,2170.0391" style="stroke:#1168BD;stroke-width:1;"/><line style="stroke:#1168BD;stroke-width:1;" x1="815.9502" x2="912.7183" y1="2170.0391" y2="2170.0391"/><text fill="#000000" font-family="sans-serif" font-size="13" lengthAdjust="spacing" textLength="50.5718" x="835.5483" y="2116.1279">DELETE</text><text fill="#000000" font-family="sans-serif" font-size="13" lengthAdjust="spacing" textLength="3.6118" x="886.1201" y="2116.1279">&#160;</text><text fill="#000000" font-family="sans-serif" font-size="13" lengthAdjust="spacing" textLength="9.3882" x="889.7319" y="2116.1279">si</text><text fill="#000000" font-family="sans-serif" font-size="13" lengthAdjust="spacing" textLength="14.46" x="847.8184" y="2132.4795">no</text><text fill="#000000" font-family="sans-serif" font-size="13" lengthAdjust="spacing" textLength="3.6118" x="862.2783" y="2132.4795">&#160;</text><text fill="#000000" font-family="sans-serif" font-size="13" lengthAdjust="spacing" textLength="20.96" x="865.8901" y="2132.4795">hay</text><text fill="#000000" font-family="sans-serif" font-size="13" lengthAdjust="spacing" textLength="78.7681" x="827.9502" y="2148.8311">notificaciones</text><text fill="#000000" font-family="sans-serif" font-size="13" lengthAdjust="spacing" textLength="58.5381" x="838.0652" y="2165.1826">asociadas</text></g><path d="M10,2185.0391 L70.1709,2185.0391 L70.1709,2193.3906 L60.1709,2203.3906 L10,2203.3906 L10,2185.0391" fill="#EEEEEE" style="stroke:#000000;stroke-width:1.5;"/><rect fill="none" height="266.8359" style="stroke:#000000;stroke-width:1.5;" width="959.8491" x="10" y="2185.0391"/><text fill="#000000" font-family="sans-serif" font-size="13" font-weight="bold" lengthAdjust="spacing" textLength="15.1709" x="25" y="2199.5342">alt</text><text fill="#000000" font-family="sans-serif" font-size="11" font-weight="bold" lengthAdjust="spacing" textLength="58.0669" x="85.1709" y="2198.458">[eliminada]</text><g class="message" data-participant-1="controller" data-participant-2="emisor"><polygon fill="#1168BD" points="96.2446,2238.0938,86.2446,2242.0938,96.2446,2246.0938,92.2446,2242.0938" style="stroke:#1168BD;stroke-width:1;"/><line style="stroke:#1168BD;stroke-width:1;stroke-dasharray:2,2;" x1="90.2446" x2="458.4097" y1="2242.0938" y2="2242.0938"/><text fill="#000000" font-family="sans-serif" font-size="13" lengthAdjust="spacing" textLength="21.6899" x="251.3672" y="2220.8857">204</text><text fill="#000000" font-family="sans-serif" font-size="13" lengthAdjust="spacing" textLength="3.6118" x="273.0571" y="2220.8857">&#160;</text><text fill="#000000" font-family="sans-serif" font-size="13" lengthAdjust="spacing" textLength="16.6182" x="276.6689" y="2220.8857">sin</text><text fill="#000000" font-family="sans-serif" font-size="13" lengthAdjust="spacing" textLength="28.1899" x="258.2322" y="2237.2373">body</text></g><line style="stroke:#000000;stroke-width:1;stroke-dasharray:2,2;" x1="10" x2="969.8491" y1="2251.0938" y2="2251.0938"/><text fill="#000000" font-family="sans-serif" font-size="11" font-weight="bold" lengthAdjust="spacing" textLength="95.9653" x="15" y="2262.5127">[sin fila eliminada]</text><g class="message" data-participant-1="service" data-participant-2="repository"><polygon fill="#1168BD" points="803.9502,2284.2813,813.9502,2288.2813,803.9502,2292.2813,807.9502,2288.2813" style="stroke:#1168BD;stroke-width:1;"/><line style="stroke:#1168BD;stroke-width:1;" x1="653.9268" x2="809.9502" y1="2288.2813" y2="2288.2813"/><text fill="#000000" font-family="sans-serif" font-size="13" lengthAdjust="spacing" textLength="119.939" x="674.969" y="2283.4248">findTemplateById(id)</text></g><g class="message" data-participant-1="repository" data-participant-2="db"><polygon fill="#1168BD" points="906.7183,2330.9844,916.7183,2334.9844,906.7183,2338.9844,910.7183,2334.9844" style="stroke:#1168BD;stroke-width:1;"/><line style="stroke:#1168BD;stroke-width:1;" x1="815.9502" x2="912.7183" y1="2334.9844" y2="2334.9844"/><text fill="#000000" font-family="sans-serif" font-size="13" lengthAdjust="spacing" textLength="50.5718" x="842.0483" y="2313.7764">SELECT</text><text fill="#000000" font-family="sans-serif" font-size="13" lengthAdjust="spacing" textLength="44.0845" x="845.292" y="2330.1279">plantilla</text></g><path d="M20,2349.9844 L80.1709,2349.9844 L80.1709,2358.3359 L70.1709,2368.3359 L20,2368.3359 L20,2349.9844" fill="#EEEEEE" style="stroke:#000000;stroke-width:1.5;"/><rect fill="none" height="94.8906" style="stroke:#000000;stroke-width:1.5;" width="486.7544" x="20" y="2349.9844"/><text fill="#000000" font-family="sans-serif" font-size="13" font-weight="bold" lengthAdjust="spacing" textLength="15.1709" x="35" y="2364.4795">alt</text><text fill="#000000" font-family="sans-serif" font-size="11" font-weight="bold" lengthAdjust="spacing" textLength="55.0107" x="95.1709" y="2363.4033">[no existe]</text><g class="message" data-participant-1="controller" data-participant-2="emisor"><polygon fill="#1168BD" points="96.2446,2386.6875,86.2446,2390.6875,96.2446,2394.6875,92.2446,2390.6875" style="stroke:#1168BD;stroke-width:1;"/><line style="stroke:#1168BD;stroke-width:1;stroke-dasharray:2,2;" x1="90.2446" x2="458.4097" y1="2390.6875" y2="2390.6875"/><text fill="#000000" font-family="sans-serif" font-size="13" lengthAdjust="spacing" textLength="21.6899" x="261.4822" y="2385.8311">404</text></g><line style="stroke:#000000;stroke-width:1;stroke-dasharray:2,2;" x1="20" x2="506.7544" y1="2399.6875" y2="2399.6875"/><text fill="#000000" font-family="sans-serif" font-size="11" font-weight="bold" lengthAdjust="spacing" textLength="110.0161" x="25" y="2411.1064">[tiene notificaciones]</text><g class="message" data-participant-1="controller" data-participant-2="emisor"><polygon fill="#1168BD" points="96.2446,2432.875,86.2446,2436.875,96.2446,2440.875,92.2446,2436.875" style="stroke:#1168BD;stroke-width:1;"/><line style="stroke:#1168BD;stroke-width:1;stroke-dasharray:2,2;" x1="90.2446" x2="458.4097" y1="2436.875" y2="2436.875"/><text fill="#000000" font-family="sans-serif" font-size="13" lengthAdjust="spacing" textLength="21.6899" x="261.4822" y="2432.0186">409</text></g><!--SRC=[pPRjRXf758R_xrKSkNzQrUQZSQ8qaYFPW5qK0ZJWggqiHSFE0PzwcI4p0mwESZ6zXbv2RgndPdTXTyqsxezAHRB4Uj_tpFbupWXxHsebZ5Z2JCHt2wFNIdPqeWrySna-aTqfxAsG-fxK0kOYiLXyWn_Mg69yYzQA1Pudj50Get9e2ggb-9W99lI0yEBvWGZmAGB-d1kZxxCyskqNBo-wuTy3ckE055ve8z4yVZyMnb5CAw5SIT9gFNl9nrKbrOeFoowrSkMMX0nZfysXGpv7aIEN80m6NJY1AxIEllobG2Ai4Wv7II9i5Ats1y3H1Cs67pIGRvdIDmgNPBKv0c4X_Lesd8_x9tUulL5lISe4xuN1e1Lnp1qkQ_UI6_Mxba6t4Gb9uKYhidQAIqxIiRB3LHkT99Wc4UyUwmnf3MaQDlrU9ts7Ass9-xSDQhDxZ3WdCHCMuMYihLiOdFmy21evYwApC-WO50REpgAqAN3oEYiPNi5uD9b2KwoekMatNNQOlL6_dlXklS5jb4cBfhGH1YQzTx_qExttB7t_flSRR65lc_6XTuyKOcqzuA2vDyQ904L-09-G9VWAdhUUHQXa5cKNjU0djVdofq-ZDiPfgnrYx0lO3v1V6xyyrd58RY8zy9P6IllG6pHPlEF2n67NfLiKYRizXkOIdQ7OyZUzGiLl6tzO3hs5fjInPOVIuHH2WsfVH0Dw2N2IIvq30cALK2p0rpA-ddA4Rc_Gc_Oy_fmYWYInu8KN3LyG-3IZGYtLolBnpBJSUZydwJGmznjXICmIj6bcAtIiin6NashpdkhGq-89vRws8kIhBFNKELuNw6TJp8Dq-AstV1UqXRUipTZV2NFii_qe-78bc_Ohm3vI_CRbleAXe6AFdB6sFsGkfz1eD60qXCveU3deTwRG7S5mDFsfFxnAcUAsABra1E5xY8KI2SXr69JKDYYgTPIxz6FGX4xveZ9I_ydpGwlDH-qklDJF1Fi_lyXyVQwvnG_rstnzO9cRdqX-FhpHNrk89q1sqR_g3psoWOPOyw7egiuI2kkLz1CYUGpfbEfGI8LL5FQ-EXJAlejjNnPC1t2u7dVFUTai-RN0Z-GtJdD6bUc7FH7v2B9nre-oLHfbmC2IWZabub6Kkahcf6IbZbge9tnbCCHbUbA6iwAUmEnfWLcjvacuEVWMgdJYoV0NuEqbj2HLYsvsu_rtz9OO99c3czzVTH1AP9uFG5YFNzcn6zk1aMKrf-3TYgs_sMdE5mp_gb5yImkhOnBv5Orf0xyAtcdWpDDUeQuSuF_8d2DKMEd2luRjRm00]--></g></svg>