<svg xmlns="http://www.w3.org/2000/svg" xmlns:xlink="http://www.w3.org/1999/xlink" contentStyleType="text/css" data-diagram-type="ACTIVITY" height="2097px" preserveAspectRatio="none" style="width:1536px;height:2097px;background:#FFFFFF;" version="1.1" viewBox="0 0 1536 2097" width="1536px" zoomAndPan="magnify"><title>BP RF-7.4 - Reintento manual</title><defs/><g><g class="title" data-source-line="2"><text fill="#000000" font-family="sans-serif" font-size="14" font-weight="bold" lengthAdjust="spacing" textLength="196.0205" x="668.6887" y="34.5332">BP RF-7.4 - Reintento manual</text></g><rect fill="#E8F1FB" height="22.6406" style="stroke:#E8F1FB;stroke-width:1;" width="1503.3979" x="15" y="51.0645"/><ellipse cx="124.0439" cy="88.7051" fill="#222222" rx="10" ry="10" style="stroke:#222222;stroke-width:1;"/><rect fill="#FFFFFF" height="50.1875" rx="12.5" ry="12.5" style="stroke:#1676D2;stroke-width:0.5;" width="206.0879" x="21" y="118.7051"/><text fill="#000000" font-family="sans-serif" font-size="12" lengthAdjust="spacing" textLength="186.0879" x="31" y="141.1621">POST /api/v1/notifications/{id}/retry</text><text fill="#000000" font-family="sans-serif" font-size="12" lengthAdjust="spacing" textLength="78.6973" x="31" y="156.2559">con X-API-Key</text><line style="stroke:#8AB4E8;stroke-width:1.5;" x1="15" x2="15" y1="51.0645" y2="2085.6816"/><path d="M485.1982,185.0879 L485.1982,202.4395 L465.1982,206.4395 L485.1982,210.4395 L485.1982,227.791 A0,0 0 0 0 485.1982,227.791 L707.8252,227.791 A0,0 0 0 0 707.8252,227.791 L707.8252,195.0879 L697.8252,185.0879 L485.1982,185.0879 A0,0 0 0 0 485.1982,185.0879" fill="#FEFFDD" style="stroke:#181818;stroke-width:0.5;"/><path d="M697.8252,185.0879 L697.8252,195.0879 L707.8252,195.0879 L697.8252,185.0879" fill="#FEFFDD" style="stroke:#181818;stroke-width:0.5;"/><text fill="#000000" font-family="sans-serif" font-size="13" lengthAdjust="spacing" textLength="133.6689" x="491.1982" y="203.583">/api/v1/health, /metrics,</text><text fill="#000000" font-family="sans-serif" font-size="13" lengthAdjust="spacing" textLength="201.627" x="491.1982" y="219.9346">/openapi.json y /docs son p&#250;blicos.</text><rect fill="#FFFFFF" height="35.0938" rx="12.5" ry="12.5" style="stroke:#1676D2;stroke-width:0.5;" width="200.75" x="264.4482" y="188.8926"/><text fill="#000000" font-family="sans-serif" font-size="12" lengthAdjust="spacing" textLength="180.75" x="274.4482" y="211.3496">Validar configuraci&#243;n y X-API-Key</text><rect fill="#FFFFFF" height="35.0938" rx="12.5" ry="12.5" style="stroke:#1676D2;stroke-width:0.5;" width="102.0605" x="313.793" y="296.709"/><text fill="#000000" font-family="sans-serif" font-size="12" lengthAdjust="spacing" textLength="82.0605" x="323.793" y="319.166">Responder 503</text><ellipse cx="364.8232" cy="370.7559" fill="none" rx="11" ry="11" style="stroke:#222222;stroke-width:1;"/><ellipse cx="364.8232" cy="370.7559" fill="#222222" rx="6" ry="6" style="stroke:#222222;stroke-width:1;"/><polygon fill="#FFF2CC" points="309.1814,247.791,420.4651,247.791,432.4651,259.791,420.4651,271.791,309.1814,271.791,297.1814,259.791,309.1814,247.791" style="stroke:#C99A00;stroke-width:0.5;"/><text fill="#000000" font-family="sans-serif" font-size="11" lengthAdjust="spacing" textLength="14.0615" x="368.8232" y="283.21">No</text><text fill="#000000" font-family="sans-serif" font-size="11" lengthAdjust="spacing" textLength="111.2837" x="309.1814" y="264.292">&#191;API key configurada?</text><rect fill="#FFFFFF" height="35.0938" rx="12.5" ry="12.5" style="stroke:#1676D2;stroke-width:0.5;" width="102.0605" x="313.793" y="472.6738"/><text fill="#000000" font-family="sans-serif" font-size="12" lengthAdjust="spacing" textLength="82.0605" x="323.793" y="495.1309">Responder 401</text><ellipse cx="364.8232" cy="546.7207" fill="none" rx="11" ry="11" style="stroke:#222222;stroke-width:1;"/><ellipse cx="364.8232" cy="546.7207" fill="#222222" rx="6" ry="6" style="stroke:#222222;stroke-width:1;"/><polygon fill="#FFF2CC" points="323.5544,423.7559,406.092,423.7559,418.092,435.7559,406.092,447.7559,323.5544,447.7559,311.5544,435.7559,323.5544,423.7559" style="stroke:#C99A00;stroke-width:0.5;"/><text fill="#000000" font-family="sans-serif" font-size="11" lengthAdjust="spacing" textLength="14.0615" x="368.8232" y="459.1748">No</text><text fill="#000000" font-family="sans-serif" font-size="11" lengthAdjust="spacing" textLength="82.5376" x="323.5544" y="440.2568">&#191;API key v&#225;lida?</text><rect fill="#FFFFFF" height="35.0938" rx="12.5" ry="12.5" style="stroke:#1676D2;stroke-width:0.5;" width="144.7109" x="292.4678" y="599.7207"/><text fill="#000000" font-family="sans-serif" font-size="12" lengthAdjust="spacing" textLength="124.7109" x="302.4678" y="622.1777">Validar BIGINT positivo</text><rect fill="#FFFFFF" height="35.0938" rx="12.5" ry="12.5" style="stroke:#1676D2;stroke-width:0.5;" width="102.0605" x="313.793" y="703.7324"/><text fill="#000000" font-family="sans-serif" font-size="12" lengthAdjust="spacing" textLength="82.0605" x="323.793" y="726.1895">Responder 400</text><ellipse cx="364.8232" cy="779.373" fill="none" rx="11" ry="11" style="stroke:#222222;stroke-width:1;"/><ellipse cx="364.8232" cy="779.373" fill="#222222" rx="6" ry="6" style="stroke:#222222;stroke-width:1;"/><polygon fill="#FFF2CC" points="337.9194,654.8145,391.7271,654.8145,403.7271,666.8145,391.7271,678.8145,337.9194,678.8145,325.9194,666.8145,337.9194,654.8145" style="stroke:#C99A00;stroke-width:0.5;"/><text fill="#000000" font-family="sans-serif" font-size="11" lengthAdjust="spacing" textLength="14.0615" x="368.8232" y="690.2334">No</text><text fill="#000000" font-family="sans-serif" font-size="11" lengthAdjust="spacing" textLength="53.8076" x="337.9194" y="671.3154">&#191;Id v&#225;lido?</text><rect fill="#FFFFFF" height="35.0938" rx="12.5" ry="12.5" style="stroke:#1676D2;stroke-width:0.5;" width="102.0605" x="313.793" y="991.4785"/><text fill="#000000" font-family="sans-serif" font-size="12" lengthAdjust="spacing" textLength="82.0605" x="323.793" y="1013.9355">Responder 404</text><ellipse cx="364.8232" cy="1057.5723" fill="none" rx="11" ry="11" style="stroke:#222222;stroke-width:1;"/><ellipse cx="364.8232" cy="1057.5723" fill="#222222" rx="6" ry="6" style="stroke:#222222;stroke-width:1;"/><rect fill="#FFFFFF" height="35.0938" rx="12.5" ry="12.5" style="stroke:#1676D2;stroke-width:0.5;" width="84.0254" x="322.8105" y="1159.4902"/><text fill="#000000" font-family="sans-serif" font-size="12" lengthAdjust="spacing" textLength="64.0254" x="332.8105" y="1181.9473">ROLLBACK</text><rect fill="#FFFFFF" height="35.0938" rx="12.5" ry="12.5" style="stroke:#1676D2;stroke-width:0.5;" width="102.0605" x="313.793" y="1214.584"/><text fill="#000000" font-family="sans-serif" font-size="12" lengthAdjust="spacing" textLength="82.0605" x="323.793" y="1237.041">Responder 409</text><ellipse cx="364.8232" cy="1280.6777" fill="none" rx="11" ry="11" style="stroke:#222222;stroke-width:1;"/><ellipse cx="364.8232" cy="1280.6777" fill="#222222" rx="6" ry="6" style="stroke:#222222;stroke-width:1;"/><polygon fill="#FFF2CC" points="317.4395,1110.5723,412.207,1110.5723,424.207,1122.5723,412.207,1134.5723,317.4395,1134.5723,305.4395,1122.5723,317.4395,1110.5723" style="stroke:#C99A00;stroke-width:0.5;"/><text fill="#000000" font-family="sans-serif" font-size="11" lengthAdjust="spacing" textLength="14.0615" x="368.8232" y="1145.9912">No</text><text fill="#000000" font-family="sans-serif" font-size="11" lengthAdjust="spacing" textLength="94.7676" x="317.4395" y="1127.0732">&#191;Estado FALLIDA?</text><rect fill="#FFFFFF" height="35.0938" rx="12.5" ry="12.5" style="stroke:#1676D2;stroke-width:0.5;" width="84.0254" x="322.8105" y="1382.5957"/><text fill="#000000" font-family="sans-serif" font-size="12" lengthAdjust="spacing" textLength="64.0254" x="332.8105" y="1405.0527">ROLLBACK</text><rect fill="#FFFFFF" height="35.0938" rx="12.5" ry="12.5" style="stroke:#1676D2;stroke-width:0.5;" width="102.0605" x="313.793" y="1437.6895"/><text fill="#000000" font-family="sans-serif" font-size="12" lengthAdjust="spacing" textLength="82.0605" x="323.793" y="1460.1465">Responder 409</text><ellipse cx="364.8232" cy="1503.7832" fill="none" rx="11" ry="11" style="stroke:#222222;stroke-width:1;"/><ellipse cx="364.8232" cy="1503.7832" fill="#222222" rx="6" ry="6" style="stroke:#222222;stroke-width:1;"/><polygon fill="#FFF2CC" points="318.041,1333.6777,411.6055,1333.6777,423.6055,1345.6777,411.6055,1357.6777,318.041,1357.6777,306.041,1345.6777,318.041,1333.6777" style="stroke:#C99A00;stroke-width:0.5;"/><text fill="#000000" font-family="sans-serif" font-size="11" lengthAdjust="spacing" textLength="14.0615" x="368.8232" y="1369.0967">No</text><text fill="#000000" font-family="sans-serif" font-size="11" lengthAdjust="spacing" textLength="93.5645" x="318.041" y="1350.1787">&#191;Quedan intentos?</text><rect fill="#FFFFFF" height="35.0938" rx="12.5" ry="12.5" style="stroke:#1676D2;stroke-width:0.5;" width="255.4707" x="237.0879" y="1556.7832"/><text fill="#000000" font-family="sans-serif" font-size="12" lengthAdjust="spacing" textLength="235.4707" x="247.0879" y="1579.2402">Calcular backoff desde intentos acumulados</text><rect fill="#FFFFFF" height="35.0938" rx="12.5" ry="12.5" style="stroke:#1676D2;stroke-width:0.5;" width="181.4023" x="274.1221" y="1611.877"/><text fill="#000000" font-family="sans-serif" font-size="12" lengthAdjust="spacing" textLength="161.4023" x="284.1221" y="1634.334">Actualizar estado ENCOLADA</text><rect fill="#FFFFFF" height="35.0938" rx="12.5" ry="12.5" style="stroke:#1676D2;stroke-width:0.5;" width="232.8008" x="248.4229" y="1666.9707"/><text fill="#000000" font-family="sans-serif" font-size="12" lengthAdjust="spacing" textLength="212.8008" x="258.4229" y="1689.4277">Insertar outbox con available_at diferido</text><rect fill="#FFFFFF" height="35.0938" rx="12.5" ry="12.5" style="stroke:#1676D2;stroke-width:0.5;" width="157.7246" x="285.9609" y="1722.0645"/><text fill="#000000" font-family="sans-serif" font-size="12" lengthAdjust="spacing" textLength="137.7246" x="295.9609" y="1744.5215">COMMIT estado + outbox</text><rect fill="#FFFFFF" height="35.0938" rx="12.5" ry="12.5" style="stroke:#1676D2;stroke-width:0.5;" width="155.4277" x="287.1094" y="1777.1582"/><text fill="#000000" font-family="sans-serif" font-size="12" lengthAdjust="spacing" textLength="135.4277" x="297.1094" y="1799.6152">Responder 202 Accepted</text><line style="stroke:#8AB4E8;stroke-width:1.5;" x1="231.0879" x2="231.0879" y1="51.0645" y2="2085.6816"/><rect fill="#FFFFFF" height="35.0938" rx="12.5" ry="12.5" style="stroke:#1676D2;stroke-width:0.5;" width="197.3633" x="744.7197" y="832.373"/><text fill="#000000" font-family="sans-serif" font-size="12" lengthAdjust="spacing" textLength="177.3633" x="754.7197" y="854.8301">BEGIN y SELECT FOR UPDATE</text><rect fill="#FFFFFF" height="35.0938" rx="12.5" ry="12.5" style="stroke:#1676D2;stroke-width:0.5;" width="84.0254" x="801.3887" y="936.3848"/><text fill="#000000" font-family="sans-serif" font-size="12" lengthAdjust="spacing" textLength="64.0254" x="811.3887" y="958.8418">ROLLBACK</text><polygon fill="#FFF2CC" points="785.0122,887.4668,901.7905,887.4668,913.7905,899.4668,901.7905,911.4668,785.0122,911.4668,773.0122,899.4668,785.0122,887.4668" style="stroke:#C99A00;stroke-width:0.5;"/><text fill="#000000" font-family="sans-serif" font-size="11" lengthAdjust="spacing" textLength="14.0615" x="847.4014" y="922.8857">No</text><text fill="#000000" font-family="sans-serif" font-size="11" lengthAdjust="spacing" textLength="116.7783" x="785.0122" y="903.9678">&#191;Notificaci&#243;n existente?</text><line style="stroke:#8AB4E8;stroke-width:1.5;" x1="712.8252" x2="712.8252" y1="51.0645" y2="2085.6816"/><rect fill="#FFFFFF" height="50.1875" rx="12.5" ry="12.5" style="stroke:#1676D2;stroke-width:0.5;" width="196.1152" x="1086.5229" y="1832.252"/><text fill="#000000" font-family="sans-serif" font-size="12" lengthAdjust="spacing" textLength="176.1152" x="1096.5229" y="1854.709">Outbox Publisher publica cuando</text><text fill="#000000" font-family="sans-serif" font-size="12" lengthAdjust="spacing" textLength="99.4043" x="1096.5229" y="1869.8027">vence available_at</text><polygon fill="#FFF2CC" points="1137.8037,1902.4395,1231.3574,1902.4395,1243.3574,1914.4395,1231.3574,1926.4395,1137.8037,1926.4395,1125.8037,1914.4395,1137.8037,1902.4395" style="stroke:#C99A00;stroke-width:0.5;"/><text fill="#000000" font-family="sans-serif" font-size="11" lengthAdjust="spacing" textLength="93.5537" x="1137.8037" y="1918.9404">&#191;Redis disponible?</text><text fill="#000000" font-family="sans-serif" font-size="11" lengthAdjust="spacing" textLength="14.0615" x="1111.7422" y="1912.0225">No</text><text fill="#000000" font-family="sans-serif" font-size="11" lengthAdjust="spacing" textLength="10.3931" x="1243.3574" y="1912.0225">S&#237;</text><rect fill="#FFFFFF" height="50.1875" rx="12.5" ry="12.5" style="stroke:#1676D2;stroke-width:0.5;" width="198.7754" x="977.9775" y="1936.4395"/><text fill="#000000" font-family="sans-serif" font-size="12" lengthAdjust="spacing" textLength="155.4434" x="987.9775" y="1958.8965">Mantener outbox pendiente y</text><text fill="#000000" font-family="sans-serif" font-size="12" lengthAdjust="spacing" textLength="178.7754" x="987.9775" y="1973.9902">reintentar publicaci&#243;n con backoff</text><rect fill="#FFFFFF" height="35.0938" rx="12.5" ry="12.5" style="stroke:#1676D2;stroke-width:0.5;" width="190.0859" x="1196.7529" y="1936.4395"/><text fill="#000000" font-family="sans-serif" font-size="12" lengthAdjust="spacing" textLength="170.0859" x="1206.7529" y="1958.8965">Crear nuevo job BullMQ estable</text><polygon fill="#FFF2CC" points="1184.5806,1992.627,1196.5806,2004.627,1184.5806,2016.627,1172.5806,2004.627,1184.5806,1992.627" style="stroke:#C99A00;stroke-width:0.5;"/><path d="M1215.5806,2026.627 L1215.5806,2052.1543 L1195.5806,2056.1543 L1215.5806,2060.1543 L1215.5806,2085.6816 A0,0 0 0 0 1215.5806,2085.6816 L1511.8975,2085.6816 A0,0 0 0 0 1511.8975,2085.6816 L1511.8975,2036.627 L1501.8975,2026.627 L1215.5806,2026.627 A0,0 0 0 0 1215.5806,2026.627" fill="#FEFFDD" style="stroke:#181818;stroke-width:0.5;"/><path d="M1501.8975,2026.627 L1501.8975,2036.627 L1511.8975,2036.627 L1501.8975,2026.627" fill="#FEFFDD" style="stroke:#181818;stroke-width:0.5;"/><text fill="#000000" font-family="sans-serif" font-size="13" lengthAdjust="spacing" textLength="215.3442" x="1221.5806" y="2045.1221">El bloqueo de fila serializa solicitudes</text><text fill="#000000" font-family="sans-serif" font-size="13" lengthAdjust="spacing" textLength="275.3169" x="1221.5806" y="2061.4736">concurrentes. La segunda observa ENCOLADA</text><text fill="#000000" font-family="sans-serif" font-size="13" lengthAdjust="spacing" textLength="247.8696" x="1221.5806" y="2077.8252">y recibe 409; Redis no guarda este control.</text><ellipse cx="1184.5806" cy="2056.1543" fill="none" rx="11" ry="11" style="stroke:#222222;stroke-width:1;"/><ellipse cx="1184.5806" cy="2056.1543" fill="#222222" rx="6" ry="6" style="stroke:#222222;stroke-width:1;"/><line style="stroke:#8AB4E8;stroke-width:1.5;" x1="971.9775" x2="971.9775" y1="51.0645" y2="2085.6816"/><line style="stroke:#8AB4E8;stroke-width:1.5;" x1="1516.8975" x2="1516.8975" y1="51.0645" y2="2085.6816"/><line style="stroke:#181818;stroke-width:1;" x1="124.0439" x2="124.0439" y1="98.7051" y2="118.7051"/><polygon fill="#181818" points="120.0439,108.7051,124.0439,118.7051,128.0439,108.7051,124.0439,112.7051" style="stroke:#181818;stroke-width:1;"/><line style="stroke:#181818;stroke-width:1;" x1="364.8232" x2="364.8232" y1="331.8027" y2="359.7559"/><polygon fill="#181818" points="360.8232,349.7559,364.8232,359.7559,368.8232,349.7559,364.8232,353.7559" style="stroke:#181818;stroke-width:1;"/><line style="stroke:#181818;stroke-width:1;" x1="364.8232" x2="364.8232" y1="271.791" y2="296.709"/><polygon fill="#181818" points="360.8232,286.709,364.8232,296.709,368.8232,286.709,364.8232,290.709" style="stroke:#181818;stroke-width:1;"/><line style="stroke:#181818;stroke-width:1;" x1="432.4651" x2="444.4651" y1="259.791" y2="259.791"/><polygon fill="#181818" points="440.4651,329.7559,444.4651,339.7559,448.4651,329.7559,444.4651,333.7559" style="stroke:#181818;stroke-width:1;"/><line style="stroke:#181818;stroke-width:1;" x1="444.4651" x2="444.4651" y1="259.791" y2="403.7559"/><line style="stroke:#181818;stroke-width:1;" x1="444.4651" x2="364.8232" y1="403.7559" y2="403.7559"/><line style="stroke:#181818;stroke-width:1;" x1="364.8232" x2="364.8232" y1="403.7559" y2="423.7559"/><polygon fill="#181818" points="360.8232,413.7559,364.8232,423.7559,368.8232,413.7559,364.8232,417.7559" style="stroke:#181818;stroke-width:1;"/><line style="stroke:#181818;stroke-width:1;" x1="364.8232" x2="364.8232" y1="223.9863" y2="247.791"/><polygon fill="#181818" points="360.8232,237.791,364.8232,247.791,368.8232,237.791,364.8232,241.791" style="stroke:#181818;stroke-width:1;"/><line style="stroke:#181818;stroke-width:1;" x1="364.8232" x2="364.8232" y1="507.7676" y2="535.7207"/><polygon fill="#181818" points="360.8232,525.7207,364.8232,535.7207,368.8232,525.7207,364.8232,529.7207" style="stroke:#181818;stroke-width:1;"/><line style="stroke:#181818;stroke-width:1;" x1="364.8232" x2="364.8232" y1="447.7559" y2="472.6738"/><polygon fill="#181818" points="360.8232,462.6738,364.8232,472.6738,368.8232,462.6738,364.8232,466.6738" style="stroke:#181818;stroke-width:1;"/><line style="stroke:#181818;stroke-width:1;" x1="418.092" x2="430.092" y1="435.7559" y2="435.7559"/><polygon fill="#181818" points="426.092,505.7207,430.092,515.7207,434.092,505.7207,430.092,509.7207" style="stroke:#181818;stroke-width:1;"/><line style="stroke:#181818;stroke-width:1;" x1="430.092" x2="430.092" y1="435.7559" y2="579.7207"/><line style="stroke:#181818;stroke-width:1;" x1="430.092" x2="364.8232" y1="579.7207" y2="579.7207"/><line style="stroke:#181818;stroke-width:1;" x1="364.8232" x2="364.8232" y1="579.7207" y2="599.7207"/><polygon fill="#181818" points="360.8232,589.7207,364.8232,599.7207,368.8232,589.7207,364.8232,593.7207" style="stroke:#181818;stroke-width:1;"/><line style="stroke:#181818;stroke-width:1;" x1="364.8232" x2="364.8232" y1="738.8262" y2="768.373"/><polygon fill="#181818" points="360.8232,758.373,364.8232,768.373,368.8232,758.373,364.8232,762.373" style="stroke:#181818;stroke-width:1;"/><line style="stroke:#181818;stroke-width:1;" x1="364.8232" x2="364.8232" y1="678.8145" y2="703.7324"/><polygon fill="#181818" points="360.8232,693.7324,364.8232,703.7324,368.8232,693.7324,364.8232,697.7324" style="stroke:#181818;stroke-width:1;"/><line style="stroke:#181818;stroke-width:1;" x1="403.7271" x2="843.4014" y1="666.8145" y2="666.8145"/><polygon fill="#181818" points="839.4014,748.8262,843.4014,758.8262,847.4014,748.8262,843.4014,752.8262" style="stroke:#181818;stroke-width:1;"/><line style="stroke:#181818;stroke-width:1;" x1="843.4014" x2="843.4014" y1="666.8145" y2="832.373"/><polygon fill="#181818" points="839.4014,822.373,843.4014,832.373,847.4014,822.373,843.4014,826.373" style="stroke:#181818;stroke-width:1;"/><line style="stroke:#181818;stroke-width:1;" x1="364.8232" x2="364.8232" y1="634.8145" y2="654.8145"/><polygon fill="#181818" points="360.8232,644.8145,364.8232,654.8145,368.8232,644.8145,364.8232,648.8145" style="stroke:#181818;stroke-width:1;"/><line style="stroke:#181818;stroke-width:1;" x1="364.8232" x2="364.8232" y1="1026.5723" y2="1046.5723"/><polygon fill="#181818" points="360.8232,1036.5723,364.8232,1046.5723,368.8232,1036.5723,364.8232,1040.5723" style="stroke:#181818;stroke-width:1;"/><line style="stroke:#181818;stroke-width:1;" x1="364.8232" x2="364.8232" y1="1194.584" y2="1214.584"/><polygon fill="#181818" points="360.8232,1204.584,364.8232,1214.584,368.8232,1204.584,364.8232,1208.584" style="stroke:#181818;stroke-width:1;"/><line style="stroke:#181818;stroke-width:1;" x1="364.8232" x2="364.8232" y1="1249.6777" y2="1269.6777"/><polygon fill="#181818" points="360.8232,1259.6777,364.8232,1269.6777,368.8232,1259.6777,364.8232,1263.6777" style="stroke:#181818;stroke-width:1;"/><line style="stroke:#181818;stroke-width:1;" x1="364.8232" x2="364.8232" y1="1134.5723" y2="1159.4902"/><polygon fill="#181818" points="360.8232,1149.4902,364.8232,1159.4902,368.8232,1149.4902,364.8232,1153.4902" style="stroke:#181818;stroke-width:1;"/><line style="stroke:#181818;stroke-width:1;" x1="424.207" x2="436.207" y1="1122.5723" y2="1122.5723"/><polygon fill="#181818" points="432.207,1212.584,436.207,1222.584,440.207,1212.584,436.207,1216.584" style="stroke:#181818;stroke-width:1;"/><line style="stroke:#181818;stroke-width:1;" x1="436.207" x2="436.207" y1="1122.5723" y2="1313.6777"/><line style="stroke:#181818;stroke-width:1;" x1="436.207" x2="364.8232" y1="1313.6777" y2="1313.6777"/><line style="stroke:#181818;stroke-width:1;" x1="364.8232" x2="364.8232" y1="1313.6777" y2="1333.6777"/><polygon fill="#181818" points="360.8232,1323.6777,364.8232,1333.6777,368.8232,1323.6777,364.8232,1327.6777" style="stroke:#181818;stroke-width:1;"/><line style="stroke:#181818;stroke-width:1;" x1="364.8232" x2="364.8232" y1="1417.6895" y2="1437.6895"/><polygon fill="#181818" points="360.8232,1427.6895,364.8232,1437.6895,368.8232,1427.6895,364.8232,1431.6895" style="stroke:#181818;stroke-width:1;"/><line style="stroke:#181818;stroke-width:1;" x1="364.8232" x2="364.8232" y1="1472.7832" y2="1492.7832"/><polygon fill="#181818" points="360.8232,1482.7832,364.8232,1492.7832,368.8232,1482.7832,364.8232,1486.7832" style="stroke:#181818;stroke-width:1;"/><line style="stroke:#181818;stroke-width:1;" x1="364.8232" x2="364.8232" y1="1357.6777" y2="1382.5957"/><polygon fill="#181818" points="360.8232,1372.5957,364.8232,1382.5957,368.8232,1372.5957,364.8232,1376.5957" style="stroke:#181818;stroke-width:1;"/><line style="stroke:#181818;stroke-width:1;" x1="423.6055" x2="435.6055" y1="1345.6777" y2="1345.6777"/><polygon fill="#181818" points="431.6055,1435.6895,435.6055,1445.6895,439.6055,1435.6895,435.6055,1439.6895" style="stroke:#181818;stroke-width:1;"/><line style="stroke:#181818;stroke-width:1;" x1="435.6055" x2="435.6055" y1="1345.6777" y2="1536.7832"/><line style="stroke:#181818;stroke-width:1;" x1="435.6055" x2="364.8232" y1="1536.7832" y2="1536.7832"/><line style="stroke:#181818;stroke-width:1;" x1="364.8232" x2="364.8232" y1="1536.7832" y2="1556.7832"/><polygon fill="#181818" points="360.8232,1546.7832,364.8232,1556.7832,368.8232,1546.7832,364.8232,1550.7832" style="stroke:#181818;stroke-width:1;"/><line style="stroke:#181818;stroke-width:1;" x1="364.8232" x2="364.8232" y1="1591.877" y2="1611.877"/><polygon fill="#181818" points="360.8232,1601.877,364.8232,1611.877,368.8232,1601.877,364.8232,1605.877" style="stroke:#181818;stroke-width:1;"/><line style="stroke:#181818;stroke-width:1;" x1="364.8232" x2="364.8232" y1="1646.9707" y2="1666.9707"/><polygon fill="#181818" points="360.8232,1656.9707,364.8232,1666.9707,368.8232,1656.9707,364.8232,1660.9707" style="stroke:#181818;stroke-width:1;"/><line style="stroke:#181818;stroke-width:1;" x1="364.8232" x2="364.8232" y1="1702.0645" y2="1722.0645"/><polygon fill="#181818" points="360.8232,1712.0645,364.8232,1722.0645,368.8232,1712.0645,364.8232,1716.0645" style="stroke:#181818;stroke-width:1;"/><line style="stroke:#181818;stroke-width:1;" x1="364.8232" x2="364.8232" y1="1757.1582" y2="1777.1582"/><polygon fill="#181818" points="360.8232,1767.1582,364.8232,1777.1582,368.8232,1767.1582,364.8232,1771.1582" style="stroke:#181818;stroke-width:1;"/><line style="stroke:#181818;stroke-width:1;" x1="843.4014" x2="843.4014" y1="911.4668" y2="936.3848"/><polygon fill="#181818" points="839.4014,926.3848,843.4014,936.3848,847.4014,926.3848,843.4014,930.3848" style="stroke:#181818;stroke-width:1;"/><line style="stroke:#181818;stroke-width:1;" x1="913.7905" x2="925.7905" y1="899.4668" y2="899.4668"/><polygon fill="#181818" points="921.7905,998.2285,925.7905,1008.2285,929.7905,998.2285,925.7905,1002.2285" style="stroke:#181818;stroke-width:1;"/><line style="stroke:#181818;stroke-width:1;" x1="925.7905" x2="925.7905" y1="899.4668" y2="1095.5723"/><line style="stroke:#181818;stroke-width:1;" x1="925.7905" x2="364.8232" y1="1095.5723" y2="1095.5723"/><line style="stroke:#181818;stroke-width:1;" x1="364.8232" x2="364.8232" y1="1095.5723" y2="1110.5723"/><polygon fill="#181818" points="360.8232,1100.5723,364.8232,1110.5723,368.8232,1100.5723,364.8232,1104.5723" style="stroke:#181818;stroke-width:1;"/><line style="stroke:#181818;stroke-width:1;" x1="843.4014" x2="843.4014" y1="867.4668" y2="887.4668"/><polygon fill="#181818" points="839.4014,877.4668,843.4014,887.4668,847.4014,877.4668,843.4014,881.4668" style="stroke:#181818;stroke-width:1;"/><line style="stroke:#181818;stroke-width:1;" x1="1125.8037" x2="1077.3652" y1="1914.4395" y2="1914.4395"/><line style="stroke:#181818;stroke-width:1;" x1="1077.3652" x2="1077.3652" y1="1914.4395" y2="1936.4395"/><polygon fill="#181818" points="1073.3652,1926.4395,1077.3652,1936.4395,1081.3652,1926.4395,1077.3652,1930.4395" style="stroke:#181818;stroke-width:1;"/><line style="stroke:#181818;stroke-width:1;" x1="1243.3574" x2="1291.7959" y1="1914.4395" y2="1914.4395"/><line style="stroke:#181818;stroke-width:1;" x1="1291.7959" x2="1291.7959" y1="1914.4395" y2="1936.4395"/><polygon fill="#181818" points="1287.7959,1926.4395,1291.7959,1936.4395,1295.7959,1926.4395,1291.7959,1930.4395" style="stroke:#181818;stroke-width:1;"/><line style="stroke:#181818;stroke-width:1;" x1="1077.3652" x2="1077.3652" y1="1986.627" y2="2004.627"/><line style="stroke:#181818;stroke-width:1;" x1="1077.3652" x2="1172.5806" y1="2004.627" y2="2004.627"/><polygon fill="#181818" points="1162.5806,2000.627,1172.5806,2004.627,1162.5806,2008.627,1166.5806,2004.627" style="stroke:#181818;stroke-width:1;"/><line style="stroke:#181818;stroke-width:1;" x1="1291.7959" x2="1291.7959" y1="1971.5332" y2="2004.627"/><line style="stroke:#181818;stroke-width:1;" x1="1291.7959" x2="1196.5806" y1="2004.627" y2="2004.627"/><polygon fill="#181818" points="1206.5806,2000.627,1196.5806,2004.627,1206.5806,2008.627,1202.5806,2004.627" style="stroke:#181818;stroke-width:1;"/><line style="stroke:#181818;stroke-width:1;" x1="1184.5806" x2="1184.5806" y1="1882.4395" y2="1902.4395"/><polygon fill="#181818" points="1180.5806,1892.4395,1184.5806,1902.4395,1188.5806,1892.4395,1184.5806,1896.4395" style="stroke:#181818;stroke-width:1;"/><line style="stroke:#181818;stroke-width:1;" x1="1184.5806" x2="1184.5806" y1="2016.627" y2="2045.1543"/><polygon fill="#181818" points="1180.5806,2035.1543,1184.5806,2045.1543,1188.5806,2035.1543,1184.5806,2039.1543" style="stroke:#181818;stroke-width:1;"/><line style="stroke:#181818;stroke-width:1;" x1="124.0439" x2="124.0439" y1="168.8926" y2="173.8926"/><line style="stroke:#181818;stroke-width:1;" x1="124.0439" x2="364.8232" y1="173.8926" y2="173.8926"/><line style="stroke:#181818;stroke-width:1;" x1="364.8232" x2="364.8232" y1="173.8926" y2="188.8926"/><polygon fill="#181818" points="360.8232,178.8926,364.8232,188.8926,368.8232,178.8926,364.8232,182.8926" style="stroke:#181818;stroke-width:1;"/><line style="stroke:#181818;stroke-width:1;" x1="843.4014" x2="843.4014" y1="971.4785" y2="976.4785"/><line style="stroke:#181818;stroke-width:1;" x1="843.4014" x2="364.8232" y1="976.4785" y2="976.4785"/><line style="stroke:#181818;stroke-width:1;" x1="364.8232" x2="364.8232" y1="976.4785" y2="991.4785"/><polygon fill="#181818" points="360.8232,981.4785,364.8232,991.4785,368.8232,981.4785,364.8232,985.4785" style="stroke:#181818;stroke-width:1;"/><line style="stroke:#181818;stroke-width:1;" x1="364.8232" x2="364.8232" y1="1812.252" y2="1817.252"/><line style="stroke:#181818;stroke-width:1;" x1="364.8232" x2="1184.5806" y1="1817.252" y2="1817.252"/><line style="stroke:#181818;stroke-width:1;" x1="1184.5806" x2="1184.5806" y1="1817.252" y2="1832.252"/><polygon fill="#181818" points="1180.5806,1822.252,1184.5806,1832.252,1188.5806,1822.252,1184.5806,1826.252" style="stroke:#181818;stroke-width:1;"/><text fill="#003B70" font-family="sans-serif" font-size="18" lengthAdjust="spacing" textLength="124.0576" x="61.0151" y="69.75">Servicio interno</text><text fill="#003B70" font-family="sans-serif" font-size="18" lengthAdjust="spacing" textLength="82.0195" x="430.9468" y="69.75">API REST</text><text fill="#003B70" font-family="sans-serif" font-size="18" lengthAdjust="spacing" textLength="249.1523" x="717.8252" y="69.75">PostgreSQL - fuente de verdad</text><text fill="#003B70" font-family="sans-serif" font-size="18" lengthAdjust="spacing" textLength="204.1084" x="1142.3833" y="69.75">Procesamiento as&#237;ncrono</text><!--SRC=[hLHDSnf74Btlh-WgN-IA9P2iM18SKikof2WZWO2aSd1LQfXfOAnbUZCpYqmi_vZy09zoooLLuO-bPraG4hOloPwsfdlUU_FwmskV8RG6CEmSNvoSmp4CKHkFnXCiX2b45aNkJfjSMB60YP1tCqk5KGbbPE5-hZtknTrSABhNPWPJaRdzY91UBxLVmSS8-6jz4QYCa5LeDwSlJjzSl6cVbUTjBHParFEBBpgTpbcIF4dPHqYkhk9wlGoFlB2-EZuhl_8utK5LXv_s7tIl5vamk9Mz3tqPjyxJo_9y75mya9PUTauxhSU43fajVxt-kdLHPwheOOHsgQKc2BPRGm-H2qAZng0_6aDDvBgsFAqPydggfV2QZAjzrEfJpQAtgtT6ae5VZkD1z_WjhfeCoBymJ4VZXwZniyYq4XOuPwfdXHLIh_yqiDg_mCW8Li_cdfLkwUOeCZz_1RK5asZfNeKOvMWuVlBUKS2eAP8Emd- -_ckIQKdk94AZ8216UWf7__mTjDpXwb604Z-y13z70qStzBBqfZ54btFTqCBtzTVDyinvoWEMdZu3Mgx_24_w5iXv_VG0PET4g_jZzsOCEJdD3KdD2hwhAcJwDdBz03bw693pCukZsnvFpxJWqK5G24kqIYWkGYjbIlPhbFRIP0oT_X1-6hJZSReblwbgkoaEVj0kp1z-GKc_rsl5oTkDYBr27-Wy_ugDAVUM8kZ4lLwt7VyNXgklCDmMg8I1QeUu_vUYaOXC5XdNCMmYcaxPQCTURzbupHGBZYjopQWHIy_xI__EwRXvTtgJz7jnE-PWrpYqF6X0XP_GXz2X89P2PsAIuQ_20_EXvORWtAH_VTqTRq6-gwuycxL7vMVrCuYbnDoZ2aa3InATMEXogmgt_coafJ3fZVw6V53m_BWvtyt3dnGW2s4KlJDBD1AV2DjspH2LTgmoi6eE7JfzBO8jk7jY7amisvFNXgtMlDXnRjel-52PsuoGbpWSZTQVAyJ48kUR0fS4xsa2hIBBhczBOrX1iwfIMR2dUoNDO9BHRmLI68qfFmROVbrMXrS8qsjVS2qvbGN8mjgWqvr0BoJEUASAe0bVMOfT4Jbt1HQbdc3PBB1nn13C2i6p5sHXWFEMihtDz2y0]--></g></svg>