<svg xmlns="http://www.w3.org/2000/svg" xmlns:xlink="http://www.w3.org/1999/xlink" contentStyleType="text/css" data-diagram-type="ACTIVITY" height="1240px" preserveAspectRatio="none" style="width:1470px;height:1240px;background:#FFFFFF;" version="1.1" viewBox="0 0 1470 1240" width="1470px" zoomAndPan="magnify"><title>BP RF-7.3 y RF-7.5 - Consulta de estado e historial</title><defs/><g><g class="title" data-source-line="2"><text fill="#000000" font-family="sans-serif" font-size="14" font-weight="bold" lengthAdjust="spacing" textLength="336.0684" x="565.5071" y="34.5332">BP RF-7.3 y RF-7.5 - Consulta de estado e historial</text></g><rect fill="#E8F1FB" height="22.6406" style="stroke:#E8F1FB;stroke-width:1;" width="1437.0825" x="15" y="51.0645"/><ellipse cx="248.8645" cy="88.7051" fill="#222222" rx="10" ry="10" style="stroke:#222222;stroke-width:1;"/><rect fill="#FFFFFF" height="35.0938" rx="12.5" ry="12.5" style="stroke:#1676D2;stroke-width:0.5;" width="192.7402" x="152.4944" y="118.7051"/><text fill="#000000" font-family="sans-serif" font-size="12" lengthAdjust="spacing" textLength="172.7402" x="162.4944" y="141.1621">Solicitar consulta con X-API-Key</text><rect fill="#FFFFFF" height="35.0938" rx="12.5" ry="12.5" style="stroke:#1676D2;stroke-width:0.5;" width="98.709" x="199.51" y="591.6738"/><text fill="#000000" font-family="sans-serif" font-size="12" lengthAdjust="spacing" textLength="78.709" x="209.51" y="614.1309">Elegir consulta</text><polygon fill="#FFF2CC" points="231.7468,646.7676,265.9822,646.7676,277.9822,658.7676,265.9822,670.7676,231.7468,670.7676,219.7468,658.7676,231.7468,646.7676" style="stroke:#C99A00;stroke-width:0.5;"/><text fill="#000000" font-family="sans-serif" font-size="11" lengthAdjust="spacing" textLength="34.2354" x="231.7468" y="663.2686">&#191;Tipo?</text><text fill="#000000" font-family="sans-serif" font-size="11" lengthAdjust="spacing" textLength="28.7354" x="191.0115" y="656.3506">Por id</text><text fill="#000000" font-family="sans-serif" font-size="11" lengthAdjust="spacing" textLength="35.4707" x="277.9822" y="656.3506">Listado</text><rect fill="#FFFFFF" height="35.0938" rx="12.5" ry="12.5" style="stroke:#1676D2;stroke-width:0.5;" width="170.75" x="21" y="690.7676"/><text fill="#000000" font-family="sans-serif" font-size="12" lengthAdjust="spacing" textLength="150.75" x="31" y="713.2246">GET /api/v1/notifications/{id}</text><line style="stroke:#8AB4E8;stroke-width:1.5;" x1="15" x2="15" y1="51.0645" y2="1228.7051"/><path d="M816.7188,169.9941 L816.7188,187.3457 L796.7188,191.3457 L816.7188,195.3457 L816.7188,212.6973 A0,0 0 0 0 816.7188,212.6973 L1039.3457,212.6973 A0,0 0 0 0 1039.3457,212.6973 L1039.3457,179.9941 L1029.3457,169.9941 L816.7188,169.9941 A0,0 0 0 0 816.7188,169.9941" fill="#FEFFDD" style="stroke:#181818;stroke-width:0.5;"/><path d="M1029.3457,169.9941 L1029.3457,179.9941 L1039.3457,179.9941 L1029.3457,169.9941" fill="#FEFFDD" style="stroke:#181818;stroke-width:0.5;"/><text fill="#000000" font-family="sans-serif" font-size="13" lengthAdjust="spacing" textLength="133.6689" x="822.7188" y="188.4893">/api/v1/health, /metrics,</text><text fill="#000000" font-family="sans-serif" font-size="13" lengthAdjust="spacing" textLength="201.627" x="822.7188" y="204.8408">/openapi.json y /docs son p&#250;blicos.</text><rect fill="#FFFFFF" height="35.0938" rx="12.5" ry="12.5" style="stroke:#1676D2;stroke-width:0.5;" width="200.75" x="595.9688" y="173.7988"/><text fill="#000000" font-family="sans-serif" font-size="12" lengthAdjust="spacing" textLength="180.75" x="605.9688" y="196.2559">Validar configuraci&#243;n y X-API-Key</text><rect fill="#FFFFFF" height="35.0938" rx="12.5" ry="12.5" style="stroke:#1676D2;stroke-width:0.5;" width="102.0605" x="645.3135" y="281.6152"/><text fill="#000000" font-family="sans-serif" font-size="12" lengthAdjust="spacing" textLength="82.0605" x="655.3135" y="304.0723">Responder 503</text><ellipse cx="696.3438" cy="355.6621" fill="none" rx="11" ry="11" style="stroke:#222222;stroke-width:1;"/><ellipse cx="696.3438" cy="355.6621" fill="#222222" rx="6" ry="6" style="stroke:#222222;stroke-width:1;"/><polygon fill="#FFF2CC" points="640.7019,232.6973,751.9856,232.6973,763.9856,244.6973,751.9856,256.6973,640.7019,256.6973,628.7019,244.6973,640.7019,232.6973" style="stroke:#C99A00;stroke-width:0.5;"/><text fill="#000000" font-family="sans-serif" font-size="11" lengthAdjust="spacing" textLength="14.0615" x="700.3438" y="268.1162">No</text><text fill="#000000" font-family="sans-serif" font-size="11" lengthAdjust="spacing" textLength="111.2837" x="640.7019" y="249.1982">&#191;API key configurada?</text><rect fill="#FFFFFF" height="35.0938" rx="12.5" ry="12.5" style="stroke:#1676D2;stroke-width:0.5;" width="102.0605" x="645.3135" y="457.5801"/><text fill="#000000" font-family="sans-serif" font-size="12" lengthAdjust="spacing" textLength="82.0605" x="655.3135" y="480.0371">Responder 401</text><ellipse cx="696.3438" cy="538.6738" fill="none" rx="11" ry="11" style="stroke:#222222;stroke-width:1;"/><ellipse cx="696.3438" cy="538.6738" fill="#222222" rx="6" ry="6" style="stroke:#222222;stroke-width:1;"/><polygon fill="#FFF2CC" points="655.075,408.6621,737.6125,408.6621,749.6125,420.6621,737.6125,432.6621,655.075,432.6621,643.075,420.6621,655.075,408.6621" style="stroke:#C99A00;stroke-width:0.5;"/><text fill="#000000" font-family="sans-serif" font-size="11" lengthAdjust="spacing" textLength="14.0615" x="700.3438" y="444.0811">No</text><text fill="#000000" font-family="sans-serif" font-size="11" lengthAdjust="spacing" textLength="82.5376" x="655.075" y="425.1631">&#191;API key v&#225;lida?</text><rect fill="#FFFFFF" height="35.0938" rx="12.5" ry="12.5" style="stroke:#1676D2;stroke-width:0.5;" width="144.7109" x="481.4988" y="760.8613"/><text fill="#000000" font-family="sans-serif" font-size="12" lengthAdjust="spacing" textLength="124.7109" x="491.4988" y="783.3184">Validar BIGINT positivo</text><polygon fill="#FFF2CC" points="532.4585,916.1426,575.25,916.1426,587.25,928.1426,575.25,940.1426,532.4585,940.1426,520.4585,928.1426,532.4585,916.1426" style="stroke:#C99A00;stroke-width:0.5;"/><text fill="#000000" font-family="sans-serif" font-size="11" lengthAdjust="spacing" textLength="42.7915" x="532.4585" y="932.6436">&#191;Existe?</text><text fill="#000000" font-family="sans-serif" font-size="11" lengthAdjust="spacing" textLength="10.3931" x="510.0654" y="925.7256">S&#237;</text><text fill="#000000" font-family="sans-serif" font-size="11" lengthAdjust="spacing" textLength="14.0615" x="587.25" y="925.7256">No</text><rect fill="#FFFFFF" height="50.1875" rx="12.5" ry="12.5" style="stroke:#1676D2;stroke-width:0.5;" width="217.4727" x="355.2346" y="950.1426"/><text fill="#000000" font-family="sans-serif" font-size="12" lengthAdjust="spacing" textLength="197.4727" x="365.2346" y="972.5996">Responder 200 con estado, contador</text><text fill="#000000" font-family="sans-serif" font-size="12" lengthAdjust="spacing" textLength="94.0547" x="365.2346" y="987.6934">e historialIntentos</text><rect fill="#FFFFFF" height="35.0938" rx="12.5" ry="12.5" style="stroke:#1676D2;stroke-width:0.5;" width="102.0605" x="592.7073" y="950.1426"/><text fill="#000000" font-family="sans-serif" font-size="12" lengthAdjust="spacing" textLength="82.0605" x="602.7073" y="972.5996">Responder 404</text><polygon fill="#FFF2CC" points="553.8542,1006.3301,565.8542,1018.3301,553.8542,1030.3301,541.8542,1018.3301,553.8542,1006.3301" style="stroke:#C99A00;stroke-width:0.5;"/><ellipse cx="553.8542" cy="1073.6816" fill="none" rx="11" ry="11" style="stroke:#222222;stroke-width:1;"/><ellipse cx="553.8542" cy="1073.6816" fill="#222222" rx="6" ry="6" style="stroke:#222222;stroke-width:1;"/><rect fill="#FFFFFF" height="50.1875" rx="12.5" ry="12.5" style="stroke:#1676D2;stroke-width:0.5;" width="163.4258" x="757.1204" y="690.7676"/><text fill="#000000" font-family="sans-serif" font-size="12" lengthAdjust="spacing" textLength="130.0605" x="767.1204" y="713.2246">GET /api/v1/notifications</text><text fill="#000000" font-family="sans-serif" font-size="12" lengthAdjust="spacing" textLength="143.4258" x="767.1204" y="728.3184">?canal&amp;estado&amp;page&amp;limit</text><rect fill="#FFFFFF" height="35.0938" rx="12.5" ry="12.5" style="stroke:#1676D2;stroke-width:0.5;" width="160.0742" x="758.7961" y="775.9551"/><text fill="#000000" font-family="sans-serif" font-size="12" lengthAdjust="spacing" textLength="140.0742" x="768.7961" y="798.4121">Validar filtros y paginaci&#243;n</text><rect fill="#FFFFFF" height="35.0938" rx="12.5" ry="12.5" style="stroke:#1676D2;stroke-width:0.5;" width="102.0605" x="787.803" y="894.9668"/><text fill="#000000" font-family="sans-serif" font-size="12" lengthAdjust="spacing" textLength="82.0605" x="797.803" y="917.4238">Responder 400</text><ellipse cx="838.8333" cy="976.0605" fill="none" rx="11" ry="11" style="stroke:#222222;stroke-width:1;"/><ellipse cx="838.8333" cy="976.0605" fill="#222222" rx="6" ry="6" style="stroke:#222222;stroke-width:1;"/><polygon fill="#FFF2CC" points="794.8091,846.0488,882.8574,846.0488,894.8574,858.0488,882.8574,870.0488,794.8091,870.0488,782.8091,858.0488,794.8091,846.0488" style="stroke:#C99A00;stroke-width:0.5;"/><text fill="#000000" font-family="sans-serif" font-size="11" lengthAdjust="spacing" textLength="14.0615" x="842.8333" y="881.4678">No</text><text fill="#000000" font-family="sans-serif" font-size="11" lengthAdjust="spacing" textLength="88.0483" x="794.8091" y="862.5498">&#191;Consulta v&#225;lida?</text><rect fill="#FFFFFF" height="50.1875" rx="12.5" ry="12.5" style="stroke:#1676D2;stroke-width:0.5;" width="228.1309" x="724.7678" y="1120.5176"/><text fill="#000000" font-family="sans-serif" font-size="12" lengthAdjust="spacing" textLength="208.1309" x="734.7678" y="1142.9746">Responder 200 con items y pagination,</text><text fill="#000000" font-family="sans-serif" font-size="12" lengthAdjust="spacing" textLength="135.4219" x="734.7678" y="1158.0684">aunque la lista est&#233; vac&#237;a</text><ellipse cx="838.8333" cy="1201.7051" fill="none" rx="11" ry="11" style="stroke:#222222;stroke-width:1;"/><ellipse cx="838.8333" cy="1201.7051" fill="#222222" rx="6" ry="6" style="stroke:#222222;stroke-width:1;"/><line style="stroke:#8AB4E8;stroke-width:1.5;" x1="349.2346" x2="349.2346" y1="51.0645" y2="1228.7051"/><rect fill="#FFFFFF" height="50.1875" rx="12.5" ry="12.5" style="stroke:#1676D2;stroke-width:0.5;" width="190.0977" x="1050.3457" y="830.9551"/><text fill="#000000" font-family="sans-serif" font-size="12" lengthAdjust="spacing" textLength="170.0977" x="1060.3457" y="853.4121">Consultar notificaci&#243;n e intentos</text><text fill="#000000" font-family="sans-serif" font-size="12" lengthAdjust="spacing" textLength="121.4121" x="1060.3457" y="868.5059">ordenados por n&#250;mero</text><rect fill="#FFFFFF" height="50.1875" rx="12.5" ry="12.5" style="stroke:#1676D2;stroke-width:0.5;" width="196.1387" x="1250.4434" y="1050.3301"/><text fill="#000000" font-family="sans-serif" font-size="12" lengthAdjust="spacing" textLength="163.418" x="1260.4434" y="1072.7871">Filtrar, contar y obtener p&#225;gina</text><text fill="#000000" font-family="sans-serif" font-size="12" lengthAdjust="spacing" textLength="176.1387" x="1260.4434" y="1087.8809">ordenada por fecha descendente</text><line style="stroke:#8AB4E8;stroke-width:1.5;" x1="1044.3457" x2="1044.3457" y1="51.0645" y2="1228.7051"/><line style="stroke:#8AB4E8;stroke-width:1.5;" x1="1450.582" x2="1450.582" y1="51.0645" y2="1228.7051"/><line style="stroke:#181818;stroke-width:1;" x1="248.8645" x2="248.8645" y1="98.7051" y2="118.7051"/><polygon fill="#181818" points="244.8645,108.7051,248.8645,118.7051,252.8645,108.7051,248.8645,112.7051" style="stroke:#181818;stroke-width:1;"/><line style="stroke:#181818;stroke-width:1;" x1="219.7468" x2="106.375" y1="658.7676" y2="658.7676"/><line style="stroke:#181818;stroke-width:1;" x1="106.375" x2="106.375" y1="658.7676" y2="690.7676"/><polygon fill="#181818" points="102.375,680.7676,106.375,690.7676,110.375,680.7676,106.375,684.7676" style="stroke:#181818;stroke-width:1;"/><line style="stroke:#181818;stroke-width:1;" x1="248.8645" x2="248.8645" y1="626.7676" y2="646.7676"/><polygon fill="#181818" points="244.8645,636.7676,248.8645,646.7676,252.8645,636.7676,248.8645,640.7676" style="stroke:#181818;stroke-width:1;"/><line style="stroke:#181818;stroke-width:1;" x1="696.3438" x2="696.3438" y1="316.709" y2="344.6621"/><polygon fill="#181818" points="692.3438,334.6621,696.3438,344.6621,700.3438,334.6621,696.3438,338.6621" style="stroke:#181818;stroke-width:1;"/><line style="stroke:#181818;stroke-width:1;" x1="696.3438" x2="696.3438" y1="256.6973" y2="281.6152"/><polygon fill="#181818" points="692.3438,271.6152,696.3438,281.6152,700.3438,271.6152,696.3438,275.6152" style="stroke:#181818;stroke-width:1;"/><line style="stroke:#181818;stroke-width:1;" x1="763.9856" x2="775.9856" y1="244.6973" y2="244.6973"/><polygon fill="#181818" points="771.9856,314.6621,775.9856,324.6621,779.9856,314.6621,775.9856,318.6621" style="stroke:#181818;stroke-width:1;"/><line style="stroke:#181818;stroke-width:1;" x1="775.9856" x2="775.9856" y1="244.6973" y2="388.6621"/><line style="stroke:#181818;stroke-width:1;" x1="775.9856" x2="696.3438" y1="388.6621" y2="388.6621"/><line style="stroke:#181818;stroke-width:1;" x1="696.3438" x2="696.3438" y1="388.6621" y2="408.6621"/><polygon fill="#181818" points="692.3438,398.6621,696.3438,408.6621,700.3438,398.6621,696.3438,402.6621" style="stroke:#181818;stroke-width:1;"/><line style="stroke:#181818;stroke-width:1;" x1="696.3438" x2="696.3438" y1="208.8926" y2="232.6973"/><polygon fill="#181818" points="692.3438,222.6973,696.3438,232.6973,700.3438,222.6973,696.3438,226.6973" style="stroke:#181818;stroke-width:1;"/><line style="stroke:#181818;stroke-width:1;" x1="696.3438" x2="696.3438" y1="492.6738" y2="527.6738"/><polygon fill="#181818" points="692.3438,517.6738,696.3438,527.6738,700.3438,517.6738,696.3438,521.6738" style="stroke:#181818;stroke-width:1;"/><line style="stroke:#181818;stroke-width:1;" x1="696.3438" x2="696.3438" y1="432.6621" y2="457.5801"/><polygon fill="#181818" points="692.3438,447.5801,696.3438,457.5801,700.3438,447.5801,696.3438,451.5801" style="stroke:#181818;stroke-width:1;"/><line style="stroke:#181818;stroke-width:1;" x1="749.6125" x2="761.6125" y1="420.6621" y2="420.6621"/><polygon fill="#181818" points="757.6125,499.377,761.6125,509.377,765.6125,499.377,761.6125,503.377" style="stroke:#181818;stroke-width:1;"/><line style="stroke:#181818;stroke-width:1;" x1="761.6125" x2="761.6125" y1="420.6621" y2="576.6738"/><line style="stroke:#181818;stroke-width:1;" x1="761.6125" x2="248.8645" y1="576.6738" y2="576.6738"/><line style="stroke:#181818;stroke-width:1;" x1="248.8645" x2="248.8645" y1="576.6738" y2="591.6738"/><polygon fill="#181818" points="244.8645,581.6738,248.8645,591.6738,252.8645,581.6738,248.8645,585.6738" style="stroke:#181818;stroke-width:1;"/><line style="stroke:#181818;stroke-width:1;" x1="520.4585" x2="463.9709" y1="928.1426" y2="928.1426"/><line style="stroke:#181818;stroke-width:1;" x1="463.9709" x2="463.9709" y1="928.1426" y2="950.1426"/><polygon fill="#181818" points="459.9709,940.1426,463.9709,950.1426,467.9709,940.1426,463.9709,944.1426" style="stroke:#181818;stroke-width:1;"/><line style="stroke:#181818;stroke-width:1;" x1="587.25" x2="643.7375" y1="928.1426" y2="928.1426"/><line style="stroke:#181818;stroke-width:1;" x1="643.7375" x2="643.7375" y1="928.1426" y2="950.1426"/><polygon fill="#181818" points="639.7375,940.1426,643.7375,950.1426,647.7375,940.1426,643.7375,944.1426" style="stroke:#181818;stroke-width:1;"/><line style="stroke:#181818;stroke-width:1;" x1="463.9709" x2="463.9709" y1="1000.3301" y2="1018.3301"/><line style="stroke:#181818;stroke-width:1;" x1="463.9709" x2="541.8542" y1="1018.3301" y2="1018.3301"/><polygon fill="#181818" points="531.8542,1014.3301,541.8542,1018.3301,531.8542,1022.3301,535.8542,1018.3301" style="stroke:#181818;stroke-width:1;"/><line style="stroke:#181818;stroke-width:1;" x1="643.7375" x2="643.7375" y1="985.2363" y2="1018.3301"/><line style="stroke:#181818;stroke-width:1;" x1="643.7375" x2="565.8542" y1="1018.3301" y2="1018.3301"/><polygon fill="#181818" points="575.8542,1014.3301,565.8542,1018.3301,575.8542,1022.3301,571.8542,1018.3301" style="stroke:#181818;stroke-width:1;"/><line style="stroke:#181818;stroke-width:1;" x1="553.8542" x2="553.8542" y1="1030.3301" y2="1062.6816"/><polygon fill="#181818" points="549.8542,1052.6816,553.8542,1062.6816,557.8542,1052.6816,553.8542,1056.6816" style="stroke:#181818;stroke-width:1;"/><line style="stroke:#181818;stroke-width:1;" x1="838.8333" x2="838.8333" y1="740.9551" y2="775.9551"/><polygon fill="#181818" points="834.8333,765.9551,838.8333,775.9551,842.8333,765.9551,838.8333,769.9551" style="stroke:#181818;stroke-width:1;"/><line style="stroke:#181818;stroke-width:1;" x1="838.8333" x2="838.8333" y1="930.0605" y2="965.0605"/><polygon fill="#181818" points="834.8333,955.0605,838.8333,965.0605,842.8333,955.0605,838.8333,959.0605" style="stroke:#181818;stroke-width:1;"/><line style="stroke:#181818;stroke-width:1;" x1="838.8333" x2="838.8333" y1="870.0488" y2="894.9668"/><polygon fill="#181818" points="834.8333,884.9668,838.8333,894.9668,842.8333,884.9668,838.8333,888.9668" style="stroke:#181818;stroke-width:1;"/><line style="stroke:#181818;stroke-width:1;" x1="894.8574" x2="1348.5127" y1="858.0488" y2="858.0488"/><polygon fill="#181818" points="1344.5127,945.5137,1348.5127,955.5137,1352.5127,945.5137,1348.5127,949.5137" style="stroke:#181818;stroke-width:1;"/><line style="stroke:#181818;stroke-width:1;" x1="1348.5127" x2="1348.5127" y1="858.0488" y2="1050.3301"/><polygon fill="#181818" points="1344.5127,1040.3301,1348.5127,1050.3301,1352.5127,1040.3301,1348.5127,1044.3301" style="stroke:#181818;stroke-width:1;"/><line style="stroke:#181818;stroke-width:1;" x1="838.8333" x2="838.8333" y1="811.0488" y2="846.0488"/><polygon fill="#181818" points="834.8333,836.0488,838.8333,846.0488,842.8333,836.0488,838.8333,840.0488" style="stroke:#181818;stroke-width:1;"/><line style="stroke:#181818;stroke-width:1;" x1="838.8333" x2="838.8333" y1="1170.7051" y2="1190.7051"/><polygon fill="#181818" points="834.8333,1180.7051,838.8333,1190.7051,842.8333,1180.7051,838.8333,1184.7051" style="stroke:#181818;stroke-width:1;"/><line style="stroke:#181818;stroke-width:1;" x1="248.8645" x2="248.8645" y1="153.7988" y2="158.7988"/><line style="stroke:#181818;stroke-width:1;" x1="248.8645" x2="696.3438" y1="158.7988" y2="158.7988"/><line style="stroke:#181818;stroke-width:1;" x1="696.3438" x2="696.3438" y1="158.7988" y2="173.7988"/><polygon fill="#181818" points="692.3438,163.7988,696.3438,173.7988,700.3438,163.7988,696.3438,167.7988" style="stroke:#181818;stroke-width:1;"/><line style="stroke:#181818;stroke-width:1;" x1="106.375" x2="106.375" y1="725.8613" y2="743.3613"/><line style="stroke:#181818;stroke-width:1;" x1="106.375" x2="553.8542" y1="743.3613" y2="743.3613"/><line style="stroke:#181818;stroke-width:1;" x1="553.8542" x2="553.8542" y1="743.3613" y2="760.8613"/><polygon fill="#181818" points="549.8542,750.8613,553.8542,760.8613,557.8542,750.8613,553.8542,754.8613" style="stroke:#181818;stroke-width:1;"/><line style="stroke:#181818;stroke-width:1;" x1="553.8542" x2="553.8542" y1="795.9551" y2="813.4551"/><line style="stroke:#181818;stroke-width:1;" x1="553.8542" x2="1145.3945" y1="813.4551" y2="813.4551"/><line style="stroke:#181818;stroke-width:1;" x1="1145.3945" x2="1145.3945" y1="813.4551" y2="830.9551"/><polygon fill="#181818" points="1141.3945,820.9551,1145.3945,830.9551,1149.3945,820.9551,1145.3945,824.9551" style="stroke:#181818;stroke-width:1;"/><line style="stroke:#181818;stroke-width:1;" x1="1145.3945" x2="1145.3945" y1="881.1426" y2="898.6426"/><line style="stroke:#181818;stroke-width:1;" x1="1145.3945" x2="553.8542" y1="898.6426" y2="898.6426"/><line style="stroke:#181818;stroke-width:1;" x1="553.8542" x2="553.8542" y1="898.6426" y2="916.1426"/><polygon fill="#181818" points="549.8542,906.1426,553.8542,916.1426,557.8542,906.1426,553.8542,910.1426" style="stroke:#181818;stroke-width:1;"/><line style="stroke:#181818;stroke-width:1;" x1="1348.5127" x2="1348.5127" y1="1100.5176" y2="1105.5176"/><line style="stroke:#181818;stroke-width:1;" x1="1348.5127" x2="838.8333" y1="1105.5176" y2="1105.5176"/><line style="stroke:#181818;stroke-width:1;" x1="838.8333" x2="838.8333" y1="1105.5176" y2="1120.5176"/><polygon fill="#181818" points="834.8333,1110.5176,838.8333,1120.5176,842.8333,1110.5176,838.8333,1114.5176" style="stroke:#181818;stroke-width:1;"/><line style="stroke:#181818;stroke-width:1;" x1="277.9822" x2="838.8333" y1="658.7676" y2="658.7676"/><line style="stroke:#181818;stroke-width:1;" x1="838.8333" x2="838.8333" y1="658.7676" y2="690.7676"/><polygon fill="#181818" points="834.8333,680.7676,838.8333,690.7676,842.8333,680.7676,838.8333,684.7676" style="stroke:#181818;stroke-width:1;"/><text fill="#003B70" font-family="sans-serif" font-size="18" lengthAdjust="spacing" textLength="124.0576" x="120.0885" y="69.75">Servicio interno</text><text fill="#003B70" font-family="sans-serif" font-size="18" lengthAdjust="spacing" textLength="82.0195" x="655.7804" y="69.75">API REST</text><text fill="#003B70" font-family="sans-serif" font-size="18" lengthAdjust="spacing" textLength="249.1523" x="1122.8877" y="69.75">PostgreSQL - fuente de verdad</text><!--SRC=[ZLHDRzf04BtxLunKAKea28Pymo4A14UeKKG3gdhWih7NU1gpw-ukf2Z9ZycnXvnwowLI_SSwQnjm0asxfz7CpioRztRMe8avjFjmxLMFTlTWdXi7K8ME57eQ6mO11wuD2oHmY50RgP35ZgDlKIHCiGdSCFzshEHK11qPImLt4HfUYkk8akzGZ25aiIv7c6zmXcOEzmxGQMyib4Ma2hZAlH_gXqU7vutCVuvi8aNmDl63vtcDJkVLbNA5pid9cUjcuO5XoXJkHdOoTtTPgd0-bWUwmqdC15_0BfS-FcllTuyp_z2IkmQjU-pLlVRgWYV5eh_hxhMFN6hbF0oucg6F4b0OheHySBG5wZG7CYO_sU0l1283lbJF-htgHpvlKJAPSDqT31-SvcSMOv1V3d4yLSp7zASWdKi9GXeE2iUH8LGrbc1jLgz5dCKcga1jmer2NrTiJ2PSK7ptgvQsHYsGlWPh9-dB3U6IUjVX8W1RqS4Gjd__ibXk-Nm5862dEs0YBc3xIkvaF3IlkKv88wxWmDrhPJvwPucjXU6RGhFqoOxqNf5zjxvMP1EbpMxCnxXYahZBUmqnaSi6VP86WwB9HNUuf8Ycn11zPf3oQ_SOFEPTI_ndEGiDshsBtjKG4gcHdhqiBlUbDcF51vykQUd2AITmTkLcN0KiA2eiTb71ecSk8yzc4KRgaR2FKD2YQMf0zzAN2LTo8w1ynkvtscM-d7AGFkSZlk6ouRhP0yk_W8grhQ56elGRz0eKUJjEIxxIPKsR_U9M9ijAfIpf4hCs_o9x94vz9bYybQFQIjYORyKuGVE-0Y76HX53Sw0C53cBhH8foq_lRwziRHgtjVHdSxmUxR_KzImgfWfk5Q6JDyGdbK_I9mjpAIxBj0sv7zblMVlKo5RSFFIwXlIRJbR3MoOh8y6cujkKGymWjkHReTCVC6D- -ipMjkWF]--></g></svg>