<svg xmlns="http://www.w3.org/2000/svg" xmlns:xlink="http://www.w3.org/1999/xlink" contentStyleType="text/css" data-diagram-type="ACTIVITY" height="1211px" preserveAspectRatio="none" style="width:1410px;height:1211px;background:#FFFFFF;" version="1.1" viewBox="0 0 1410 1211" width="1410px" zoomAndPan="magnify"><title>BP RF-7.2 - Gesti&#243;n de plantillas</title><defs/><g><g class="title" data-source-line="2"><text fill="#000000" font-family="sans-serif" font-size="14" font-weight="bold" lengthAdjust="spacing" textLength="215.4824" x="596.0225" y="34.5332">BP RF-7.2 - Gesti&#243;n de plantillas</text></g><rect fill="#E8F1FB" height="22.6406" style="stroke:#E8F1FB;stroke-width:1;" width="1377.5273" x="15" y="51.0645"/><ellipse cx="120.0391" cy="88.7051" fill="#222222" rx="10" ry="10" style="stroke:#222222;stroke-width:1;"/><rect fill="#FFFFFF" height="50.1875" rx="12.5" ry="12.5" style="stroke:#1676D2;stroke-width:0.5;" width="198.0781" x="21" y="118.7051"/><text fill="#000000" font-family="sans-serif" font-size="12" lengthAdjust="spacing" textLength="131.3789" x="31" y="141.1621">Solicitar crear, actualizar</text><text fill="#000000" font-family="sans-serif" font-size="12" lengthAdjust="spacing" textLength="178.0781" x="31" y="156.2559">o eliminar plantilla con X-API-Key</text><line style="stroke:#8AB4E8;stroke-width:1.5;" x1="15" x2="15" y1="51.0645" y2="1089.8945"/><path d="M608.5918,185.0879 L608.5918,202.4395 L588.5918,206.4395 L608.5918,210.4395 L608.5918,227.791 A0,0 0 0 0 608.5918,227.791 L831.2188,227.791 A0,0 0 0 0 831.2188,227.791 L831.2188,195.0879 L821.2188,185.0879 L608.5918,185.0879 A0,0 0 0 0 608.5918,185.0879" fill="#FEFFDD" style="stroke:#181818;stroke-width:0.5;"/><path d="M821.2188,185.0879 L821.2188,195.0879 L831.2188,195.0879 L821.2188,185.0879" fill="#FEFFDD" style="stroke:#181818;stroke-width:0.5;"/><text fill="#000000" font-family="sans-serif" font-size="13" lengthAdjust="spacing" textLength="133.6689" x="614.5918" y="203.583">/api/v1/health, /metrics,</text><text fill="#000000" font-family="sans-serif" font-size="13" lengthAdjust="spacing" textLength="201.627" x="614.5918" y="219.9346">/openapi.json y /docs son p&#250;blicos.</text><rect fill="#FFFFFF" height="35.0938" rx="12.5" ry="12.5" style="stroke:#1676D2;stroke-width:0.5;" width="200.75" x="387.8418" y="188.8926"/><text fill="#000000" font-family="sans-serif" font-size="12" lengthAdjust="spacing" textLength="180.75" x="397.8418" y="211.3496">Validar configuraci&#243;n y X-API-Key</text><rect fill="#FFFFFF" height="35.0938" rx="12.5" ry="12.5" style="stroke:#1676D2;stroke-width:0.5;" width="102.0605" x="437.1865" y="296.709"/><text fill="#000000" font-family="sans-serif" font-size="12" lengthAdjust="spacing" textLength="82.0605" x="447.1865" y="319.166">Responder 503</text><ellipse cx="488.2168" cy="370.7559" fill="none" rx="11" ry="11" style="stroke:#222222;stroke-width:1;"/><ellipse cx="488.2168" cy="370.7559" fill="#222222" rx="6" ry="6" style="stroke:#222222;stroke-width:1;"/><polygon fill="#FFF2CC" points="432.575,247.791,543.8586,247.791,555.8586,259.791,543.8586,271.791,432.575,271.791,420.575,259.791,432.575,247.791" style="stroke:#C99A00;stroke-width:0.5;"/><text fill="#000000" font-family="sans-serif" font-size="11" lengthAdjust="spacing" textLength="14.0615" x="492.2168" y="283.21">No</text><text fill="#000000" font-family="sans-serif" font-size="11" lengthAdjust="spacing" textLength="111.2837" x="432.575" y="264.292">&#191;API key configurada?</text><rect fill="#FFFFFF" height="35.0938" rx="12.5" ry="12.5" style="stroke:#1676D2;stroke-width:0.5;" width="102.0605" x="437.1865" y="472.6738"/><text fill="#000000" font-family="sans-serif" font-size="12" lengthAdjust="spacing" textLength="82.0605" x="447.1865" y="495.1309">Responder 401</text><ellipse cx="488.2168" cy="546.7207" fill="none" rx="11" ry="11" style="stroke:#222222;stroke-width:1;"/><ellipse cx="488.2168" cy="546.7207" fill="#222222" rx="6" ry="6" style="stroke:#222222;stroke-width:1;"/><polygon fill="#FFF2CC" points="446.948,423.7559,529.4856,423.7559,541.4856,435.7559,529.4856,447.7559,446.948,447.7559,434.948,435.7559,446.948,423.7559" style="stroke:#C99A00;stroke-width:0.5;"/><text fill="#000000" font-family="sans-serif" font-size="11" lengthAdjust="spacing" textLength="14.0615" x="492.2168" y="459.1748">No</text><text fill="#000000" font-family="sans-serif" font-size="11" lengthAdjust="spacing" textLength="82.5376" x="446.948" y="440.2568">&#191;API key v&#225;lida?</text><rect fill="#FFFFFF" height="50.1875" rx="12.5" ry="12.5" style="stroke:#1676D2;stroke-width:0.5;" width="176.082" x="400.1758" y="599.7207"/><text fill="#000000" font-family="sans-serif" font-size="12" lengthAdjust="spacing" textLength="156.082" x="410.1758" y="622.1777">Identificar operaci&#243;n y validar</text><text fill="#000000" font-family="sans-serif" font-size="12" lengthAdjust="spacing" textLength="149.4141" x="410.1758" y="637.2715">id, body y variables con Zod</text><rect fill="#FFFFFF" height="35.0938" rx="12.5" ry="12.5" style="stroke:#1676D2;stroke-width:0.5;" width="102.0605" x="437.1865" y="718.8262"/><text fill="#000000" font-family="sans-serif" font-size="12" lengthAdjust="spacing" textLength="82.0605" x="447.1865" y="741.2832">Responder 400</text><ellipse cx="488.2168" cy="792.25" fill="none" rx="11" ry="11" style="stroke:#222222;stroke-width:1;"/><ellipse cx="488.2168" cy="792.25" fill="#222222" rx="6" ry="6" style="stroke:#222222;stroke-width:1;"/><polygon fill="#FFF2CC" points="445.4146,669.9082,531.019,669.9082,543.019,681.9082,531.019,693.9082,445.4146,693.9082,433.4146,681.9082,445.4146,669.9082" style="stroke:#C99A00;stroke-width:0.5;"/><text fill="#000000" font-family="sans-serif" font-size="11" lengthAdjust="spacing" textLength="14.0615" x="492.2168" y="705.3271">No</text><text fill="#000000" font-family="sans-serif" font-size="11" lengthAdjust="spacing" textLength="85.6045" x="445.4146" y="686.4092">&#191;Request v&#225;lido?</text><polygon fill="#FFF2CC" points="297.2783,919.8711,359.6475,919.8711,371.6475,931.8711,359.6475,943.8711,297.2783,943.8711,285.2783,931.8711,297.2783,919.8711" style="stroke:#C99A00;stroke-width:0.5;"/><text fill="#000000" font-family="sans-serif" font-size="11" lengthAdjust="spacing" textLength="42.1792" x="332.4629" y="955.29">Correcto</text><text fill="#000000" font-family="sans-serif" font-size="11" lengthAdjust="spacing" textLength="62.3691" x="297.2783" y="936.3721">&#191;Resultado?</text><rect fill="#FFFFFF" height="50.1875" rx="12.5" ry="12.5" style="stroke:#1676D2;stroke-width:0.5;" width="198.7695" x="229.0781" y="977.707"/><text fill="#000000" font-family="sans-serif" font-size="12" lengthAdjust="spacing" textLength="128.7422" x="239.0781" y="1000.1641">Responder 201 al crear,</text><text fill="#000000" font-family="sans-serif" font-size="12" lengthAdjust="spacing" textLength="178.7695" x="239.0781" y="1015.2578">200 al actualizar o 204 al eliminar</text><polygon fill="#FFF2CC" points="467.6934,919.8711,530.0625,919.8711,542.0625,931.8711,530.0625,943.8711,467.6934,943.8711,455.6934,931.8711,467.6934,919.8711" style="stroke:#C99A00;stroke-width:0.5;"/><text fill="#000000" font-family="sans-serif" font-size="11" lengthAdjust="spacing" textLength="45.853" x="502.8779" y="955.29">No existe</text><text fill="#000000" font-family="sans-serif" font-size="11" lengthAdjust="spacing" textLength="62.3691" x="467.6934" y="936.3721">&#191;Resultado?</text><text fill="#000000" font-family="sans-serif" font-size="11" lengthAdjust="spacing" textLength="42.7969" x="542.0625" y="929.4541">Conflicto</text><rect fill="#FFFFFF" height="35.0938" rx="12.5" ry="12.5" style="stroke:#1676D2;stroke-width:0.5;" width="102.0605" x="447.8477" y="977.707"/><text fill="#000000" font-family="sans-serif" font-size="12" lengthAdjust="spacing" textLength="82.0605" x="457.8477" y="1000.1641">Responder 404</text><rect fill="#FFFFFF" height="50.1875" rx="12.5" ry="12.5" style="stroke:#1676D2;stroke-width:0.5;" width="177.4473" x="569.9082" y="973.7891"/><text fill="#000000" font-family="sans-serif" font-size="12" lengthAdjust="spacing" textLength="157.4473" x="579.9082" y="996.2461">Responder 409 por duplicado</text><text fill="#000000" font-family="sans-serif" font-size="12" lengthAdjust="spacing" textLength="102.0703" x="579.9082" y="1011.3398">o plantilla asociada</text><ellipse cx="488.2168" cy="1078.8945" fill="none" rx="11" ry="11" style="stroke:#222222;stroke-width:1;"/><ellipse cx="488.2168" cy="1078.8945" fill="#222222" rx="6" ry="6" style="stroke:#222222;stroke-width:1;"/><line style="stroke:#8AB4E8;stroke-width:1.5;" x1="223.0781" x2="223.0781" y1="51.0645" y2="1089.8945"/><path d="M1062.9863,840.8164 L1062.9863,866.3438 L1042.9863,870.3438 L1062.9863,874.3438 L1062.9863,899.8711 A0,0 0 0 0 1062.9863,899.8711 L1386.0269,899.8711 A0,0 0 0 0 1386.0269,899.8711 L1386.0269,850.8164 L1376.0269,840.8164 L1062.9863,840.8164 A0,0 0 0 0 1062.9863,840.8164" fill="#FEFFDD" style="stroke:#181818;stroke-width:0.5;"/><path d="M1376.0269,840.8164 L1376.0269,850.8164 L1386.0269,850.8164 L1376.0269,840.8164" fill="#FEFFDD" style="stroke:#181818;stroke-width:0.5;"/><text fill="#000000" font-family="sans-serif" font-size="13" lengthAdjust="spacing" textLength="177.3916" x="1068.9863" y="859.3115">POST: nombre + canal &#250;nicos.</text><text fill="#000000" font-family="sans-serif" font-size="13" lengthAdjust="spacing" textLength="275.6597" x="1068.9863" y="875.6631">PUT: id existente y sin duplicar nombre + canal.</text><text fill="#000000" font-family="sans-serif" font-size="13" lengthAdjust="spacing" textLength="302.0405" x="1068.9863" y="892.0146">DELETE: id existente y sin notificaciones asociadas.</text><rect fill="#FFFFFF" height="50.1875" rx="12.5" ry="12.5" style="stroke:#1676D2;stroke-width:0.5;" width="200.7676" x="842.2188" y="845.25"/><text fill="#000000" font-family="sans-serif" font-size="12" lengthAdjust="spacing" textLength="180.7676" x="852.2188" y="867.707">Ejecutar operaci&#243;n con sus reglas</text><text fill="#000000" font-family="sans-serif" font-size="12" lengthAdjust="spacing" textLength="136.0898" x="852.2188" y="882.8008">de existencia e integridad</text><line style="stroke:#8AB4E8;stroke-width:1.5;" x1="836.2188" x2="836.2188" y1="51.0645" y2="1089.8945"/><line style="stroke:#8AB4E8;stroke-width:1.5;" x1="1391.0269" x2="1391.0269" y1="51.0645" y2="1089.8945"/><line style="stroke:#181818;stroke-width:1;" x1="120.0391" x2="120.0391" y1="98.7051" y2="118.7051"/><polygon fill="#181818" points="116.0391,108.7051,120.0391,118.7051,124.0391,108.7051,120.0391,112.7051" style="stroke:#181818;stroke-width:1;"/><line style="stroke:#181818;stroke-width:1;" x1="488.2168" x2="488.2168" y1="331.8027" y2="359.7559"/><polygon fill="#181818" points="484.2168,349.7559,488.2168,359.7559,492.2168,349.7559,488.2168,353.7559" style="stroke:#181818;stroke-width:1;"/><line style="stroke:#181818;stroke-width:1;" x1="488.2168" x2="488.2168" y1="271.791" y2="296.709"/><polygon fill="#181818" points="484.2168,286.709,488.2168,296.709,492.2168,286.709,488.2168,290.709" style="stroke:#181818;stroke-width:1;"/><line style="stroke:#181818;stroke-width:1;" x1="555.8586" x2="567.8586" y1="259.791" y2="259.791"/><polygon fill="#181818" points="563.8586,329.7559,567.8586,339.7559,571.8586,329.7559,567.8586,333.7559" style="stroke:#181818;stroke-width:1;"/><line style="stroke:#181818;stroke-width:1;" x1="567.8586" x2="567.8586" y1="259.791" y2="403.7559"/><line style="stroke:#181818;stroke-width:1;" x1="567.8586" x2="488.2168" y1="403.7559" y2="403.7559"/><line style="stroke:#181818;stroke-width:1;" x1="488.2168" x2="488.2168" y1="403.7559" y2="423.7559"/><polygon fill="#181818" points="484.2168,413.7559,488.2168,423.7559,492.2168,413.7559,488.2168,417.7559" style="stroke:#181818;stroke-width:1;"/><line style="stroke:#181818;stroke-width:1;" x1="488.2168" x2="488.2168" y1="223.9863" y2="247.791"/><polygon fill="#181818" points="484.2168,237.791,488.2168,247.791,492.2168,237.791,488.2168,241.791" style="stroke:#181818;stroke-width:1;"/><line style="stroke:#181818;stroke-width:1;" x1="488.2168" x2="488.2168" y1="507.7676" y2="535.7207"/><polygon fill="#181818" points="484.2168,525.7207,488.2168,535.7207,492.2168,525.7207,488.2168,529.7207" style="stroke:#181818;stroke-width:1;"/><line style="stroke:#181818;stroke-width:1;" x1="488.2168" x2="488.2168" y1="447.7559" y2="472.6738"/><polygon fill="#181818" points="484.2168,462.6738,488.2168,472.6738,492.2168,462.6738,488.2168,466.6738" style="stroke:#181818;stroke-width:1;"/><line style="stroke:#181818;stroke-width:1;" x1="541.4856" x2="553.4856" y1="435.7559" y2="435.7559"/><polygon fill="#181818" points="549.4856,505.7207,553.4856,515.7207,557.4856,505.7207,553.4856,509.7207" style="stroke:#181818;stroke-width:1;"/><line style="stroke:#181818;stroke-width:1;" x1="553.4856" x2="553.4856" y1="435.7559" y2="579.7207"/><line style="stroke:#181818;stroke-width:1;" x1="553.4856" x2="488.2168" y1="579.7207" y2="579.7207"/><line style="stroke:#181818;stroke-width:1;" x1="488.2168" x2="488.2168" y1="579.7207" y2="599.7207"/><polygon fill="#181818" points="484.2168,589.7207,488.2168,599.7207,492.2168,589.7207,488.2168,593.7207" style="stroke:#181818;stroke-width:1;"/><line style="stroke:#181818;stroke-width:1;" x1="488.2168" x2="488.2168" y1="753.9199" y2="781.25"/><polygon fill="#181818" points="484.2168,771.25,488.2168,781.25,492.2168,771.25,488.2168,775.25" style="stroke:#181818;stroke-width:1;"/><line style="stroke:#181818;stroke-width:1;" x1="488.2168" x2="488.2168" y1="693.9082" y2="718.8262"/><polygon fill="#181818" points="484.2168,708.8262,488.2168,718.8262,492.2168,708.8262,488.2168,712.8262" style="stroke:#181818;stroke-width:1;"/><line style="stroke:#181818;stroke-width:1;" x1="543.019" x2="942.6025" y1="681.9082" y2="681.9082"/><polygon fill="#181818" points="938.6025,763.9199,942.6025,773.9199,946.6025,763.9199,942.6025,767.9199" style="stroke:#181818;stroke-width:1;"/><line style="stroke:#181818;stroke-width:1;" x1="942.6025" x2="942.6025" y1="681.9082" y2="845.25"/><polygon fill="#181818" points="938.6025,835.25,942.6025,845.25,946.6025,835.25,942.6025,839.25" style="stroke:#181818;stroke-width:1;"/><line style="stroke:#181818;stroke-width:1;" x1="488.2168" x2="488.2168" y1="649.9082" y2="669.9082"/><polygon fill="#181818" points="484.2168,659.9082,488.2168,669.9082,492.2168,659.9082,488.2168,663.9082" style="stroke:#181818;stroke-width:1;"/><line style="stroke:#181818;stroke-width:1;" x1="328.4629" x2="328.4629" y1="943.8711" y2="977.707"/><polygon fill="#181818" points="324.4629,967.707,328.4629,977.707,332.4629,967.707,328.4629,971.707" style="stroke:#181818;stroke-width:1;"/><line style="stroke:#181818;stroke-width:1;" x1="328.4629" x2="328.4629" y1="1027.8945" y2="1047.8945"/><polygon fill="#181818" points="324.4629,1037.8945,328.4629,1047.8945,332.4629,1037.8945,328.4629,1041.8945" style="stroke:#181818;stroke-width:1;"/><line style="stroke:#181818;stroke-width:1;" x1="498.8779" x2="498.8779" y1="943.8711" y2="977.707"/><polygon fill="#181818" points="494.8779,967.707,498.8779,977.707,502.8779,967.707,498.8779,971.707" style="stroke:#181818;stroke-width:1;"/><line style="stroke:#181818;stroke-width:1;" x1="498.8779" x2="498.8779" y1="1012.8008" y2="1047.8945"/><polygon fill="#181818" points="494.8779,1037.8945,498.8779,1047.8945,502.8779,1037.8945,498.8779,1041.8945" style="stroke:#181818;stroke-width:1;"/><line style="stroke:#181818;stroke-width:1;" x1="371.6475" x2="455.6934" y1="931.8711" y2="931.8711"/><polygon fill="#181818" points="445.6934,927.8711,455.6934,931.8711,445.6934,935.8711,449.6934,931.8711" style="stroke:#181818;stroke-width:1;"/><line style="stroke:#181818;stroke-width:1;" x1="942.6025" x2="942.6025" y1="895.4375" y2="904.8711"/><line style="stroke:#181818;stroke-width:1;" x1="942.6025" x2="328.4629" y1="904.8711" y2="904.8711"/><line style="stroke:#181818;stroke-width:1;" x1="328.4629" x2="328.4629" y1="904.8711" y2="919.8711"/><polygon fill="#181818" points="324.4629,909.8711,328.4629,919.8711,332.4629,909.8711,328.4629,913.8711" style="stroke:#181818;stroke-width:1;"/><line style="stroke:#181818;stroke-width:1;" x1="542.0625" x2="658.6318" y1="931.8711" y2="931.8711"/><line style="stroke:#181818;stroke-width:1;" x1="658.6318" x2="658.6318" y1="931.8711" y2="973.7891"/><polygon fill="#181818" points="654.6318,963.7891,658.6318,973.7891,662.6318,963.7891,658.6318,967.7891" style="stroke:#181818;stroke-width:1;"/><line style="stroke:#181818;stroke-width:1;" x1="658.6318" x2="658.6318" y1="1023.9766" y2="1047.8945"/><polygon fill="#181818" points="654.6318,1037.8945,658.6318,1047.8945,662.6318,1037.8945,658.6318,1041.8945" style="stroke:#181818;stroke-width:1;"/><line style="stroke:#181818;stroke-width:1;" x1="328.4629" x2="658.6318" y1="1047.8945" y2="1047.8945"/><line style="stroke:#181818;stroke-width:1;" x1="488.2168" x2="488.2168" y1="1047.8945" y2="1067.8945"/><polygon fill="#181818" points="484.2168,1057.8945,488.2168,1067.8945,492.2168,1057.8945,488.2168,1061.8945" style="stroke:#181818;stroke-width:1;"/><line style="stroke:#181818;stroke-width:1;" x1="120.0391" x2="120.0391" y1="168.8926" y2="173.8926"/><line style="stroke:#181818;stroke-width:1;" x1="120.0391" x2="488.2168" y1="173.8926" y2="173.8926"/><line style="stroke:#181818;stroke-width:1;" x1="488.2168" x2="488.2168" y1="173.8926" y2="188.8926"/><polygon fill="#181818" points="484.2168,178.8926,488.2168,188.8926,492.2168,178.8926,488.2168,182.8926" style="stroke:#181818;stroke-width:1;"/><text fill="#003B70" font-family="sans-serif" font-size="18" lengthAdjust="spacing" textLength="124.0576" x="57.0103" y="69.75">Servicio interno</text><text fill="#003B70" font-family="sans-serif" font-size="18" lengthAdjust="spacing" textLength="82.0195" x="488.6387" y="69.75">API REST</text><text fill="#003B70" font-family="sans-serif" font-size="18" lengthAdjust="spacing" textLength="249.1523" x="989.0466" y="69.75">PostgreSQL - fuente de verdad</text><g class="legend" data-source-line="62"><rect fill="none" height="84.4375" rx="7.5" ry="7.5" style="stroke:#000000;stroke-width:1;" width="297.9092" x="1087.6182" y="1101.8945"/><text fill="#000000" font-family="sans-serif" font-size="14" font-weight="bold" lengthAdjust="spacing" textLength="49.7656" x="1096.5078" y="1123.4277">M&#233;todo</text><text fill="#000000" font-family="sans-serif" font-size="14" font-weight="bold" lengthAdjust="spacing" textLength="100.3584" x="1158.749" y="1123.4277">Regla principal</text><text fill="#000000" font-family="sans-serif" font-size="14" font-weight="bold" lengthAdjust="spacing" textLength="34.2275" x="1342.4102" y="1123.4277">&#201;xito</text><text fill="#000000" font-family="sans-serif" font-size="14" lengthAdjust="spacing" textLength="38.1172" x="1096.5078" y="1141.0371">POST</text><text fill="#000000" font-family="sans-serif" font-size="14" lengthAdjust="spacing" textLength="148.6338" x="1158.749" y="1141.0371">Nombre &#250;nico por canal</text><text fill="#000000" font-family="sans-serif" font-size="14" lengthAdjust="spacing" textLength="23.3584" x="1342.4102" y="1141.0371">201</text><text fill="#000000" font-family="sans-serif" font-size="14" lengthAdjust="spacing" textLength="28" x="1096.5078" y="1158.6465">PUT</text><text fill="#000000" font-family="sans-serif" font-size="14" lengthAdjust="spacing" textLength="116.7305" x="1158.749" y="1158.6465">Existe y no duplica</text><text fill="#000000" font-family="sans-serif" font-size="14" lengthAdjust="spacing" textLength="23.3584" x="1342.4102" y="1158.6465">200</text><text fill="#000000" font-family="sans-serif" font-size="14" lengthAdjust="spacing" textLength="54.4619" x="1096.5078" y="1176.2559">DELETE</text><text fill="#000000" font-family="sans-serif" font-size="14" lengthAdjust="spacing" textLength="175.8818" x="1158.749" y="1176.2559">Sin notificaciones asociadas</text><text fill="#000000" font-family="sans-serif" font-size="14" lengthAdjust="spacing" textLength="23.3584" x="1342.4102" y="1176.2559">204</text><line style="stroke:#000000;stroke-width:1;" x1="1092.6182" x2="1380.5273" y1="1108.8945" y2="1108.8945"/><line style="stroke:#000000;stroke-width:1;" x1="1092.6182" x2="1380.5273" y1="1126.5039" y2="1126.5039"/><line style="stroke:#000000;stroke-width:1;" x1="1092.6182" x2="1380.5273" y1="1144.1133" y2="1144.1133"/><line style="stroke:#000000;stroke-width:1;" x1="1092.6182" x2="1380.5273" y1="1161.7227" y2="1161.7227"/><line style="stroke:#000000;stroke-width:1;" x1="1092.6182" x2="1380.5273" y1="1179.332" y2="1179.332"/><line style="stroke:#000000;stroke-width:1;" x1="1092.6182" x2="1092.6182" y1="1108.8945" y2="1179.332"/><line style="stroke:#000000;stroke-width:1;" x1="1154.8594" x2="1154.8594" y1="1108.8945" y2="1179.332"/><line style="stroke:#000000;stroke-width:1;" x1="1338.5205" x2="1338.5205" y1="1108.8945" y2="1179.332"/><line style="stroke:#000000;stroke-width:1;" x1="1380.5273" x2="1380.5273" y1="1108.8945" y2="1179.332"/></g><!--SRC=[VLJBRXen5DtFLrmfcqGDOI0q3r1L1J9KKTCq1L9LLJPcV04dWpsrFIIqz0Fw6LrstLqsbSgFzTe3OHBIi3BtSNpkERvZXKqGckVGQPVsTwfGWZTeh9Z_bi0HqeH9AvA4cI0mrqAcJBCnz5byFTGgaxob4gNXPYGi5l9cnBYw4N880vQOOeR5Lao4dSAt0EZNV1B8PvJcgFFeHcLlV- -uwkF7WesLv8yRDzhjThNLUb1IH6WT7Xw5eKztBTDs4Qxwdmz7zr2BuFVYG3TYJ4hWadOH-k2eMOiEVBpdj5oZ5XsqA-tcgg2jvFB-CDnjxeTqLJ3hefw8M2WGqgAMQXOOHpIeTrL2SJf3h97fRQTXnXBnbUbBgG0JCHQIilTMGQmaV2eTdP-KtkAqGTXqX4xKxSs2-aVgv0vBoO4OPfh5tkffiK4gYw35S6I9T9cbeZofb4V84ZlQXl8OhHQnsNOvbQAa_CwLKGwZp5Lim9tJ-LsVQ2kp4w3au103CO3DltySbskShWXmzdeBx0WbR9wfBIzJlOCc9GjHmyjmj-5ZnghKOOd18w39_ASRwJcGMbXP0wcVS2Iz1Y8cDMYEbHAJNA9BAVWsz1MV-fWMh9-WyU9-LhonOD71BndjouA5Ufv5kCOYc9qhOuSQknzEQVK66N52jtWJr9nnCYowmZYp3paw3YOpe758ctb9w82tmbYKiM20_WaDDGt17vbv_hxRgvCRuxv6U04naoo1-PtCdQBy1QK5Nw9HvnICe2z1bYPUg8UjhkKuEerwqPDTTBNNbrwr9EMOKKIFi-ARABxDfQ0cIomhIDbIMcDirmMjXXKW_lbQNCfg6Bg_g_K0HIKr5rikIID0-Xxzxw8pjHZX2UjgUQjZ8mUaXNtAtqD8QQiNOd7brdErbSln6mlh_Ii84XmwCNA3Pg_WtVoNLLm17JlENKYr85TJ6e92yn-tmb8oc7ahOGPdkI6vX_xwtDIPLySNNhYwo0z6nX2d1K5V4_gQt4GAT9-npTVNg9u8vxI3Vm00]--></g></svg>